<svg width="32" height="31" viewBox="0 0 32 31" fill="none" xmlns="http://www.w3.org/2000/svg">
<path fill-rule="evenodd" clip-rule="evenodd" d="M15.5 0C6.93959 0 0 6.93959 0 15.5C0 24.0604 6.93959 31 15.5 31H16.5C25.0604 31 32 24.0604 32 15.5C32 6.93959 25.0604 0 16.5 0H15.5ZM23.5122 9.03486C23.5244 9.03954 23.5344 9.04813 23.5404 9.05908C25.9884 12.4369 27.1975 16.2472 26.7454 20.6336C26.7449 20.6388 26.7437 20.6439 26.7419 20.6488C26.7406 20.6526 26.7388 20.6563 26.7366 20.6599C26.7318 20.6679 26.7251 20.6749 26.7172 20.6804C25.0787 21.8192 23.2452 22.6873 21.2955 23.2471C21.2817 23.2511 21.267 23.2509 21.2533 23.2465C21.2397 23.2422 21.2278 23.2339 21.2194 23.2229C20.8071 22.6861 20.4373 22.1216 20.1129 21.534C20.1085 21.5259 20.1059 21.517 20.1054 21.5078C20.1048 21.4987 20.1064 21.4896 20.1098 21.4811C20.1133 21.4726 20.1187 21.4648 20.1256 21.4584C20.1324 21.4519 20.1407 21.4469 20.1498 21.4437C20.7354 21.237 21.3013 20.9844 21.8416 20.6884C21.8514 20.6829 21.8596 20.6752 21.8655 20.666C21.8714 20.6569 21.8748 20.6465 21.8753 20.6358C21.8759 20.6251 21.8737 20.6144 21.8689 20.6047C21.864 20.5951 21.8567 20.5866 21.8476 20.5802C21.7331 20.5003 21.6194 20.4164 21.5109 20.3325C21.5011 20.325 21.4892 20.3202 21.4767 20.3188C21.4641 20.3174 21.4514 20.3193 21.44 20.3244C17.9343 21.8439 14.0936 21.8439 10.5459 20.3244C10.5345 20.3196 10.5219 20.3179 10.5096 20.3195C10.4972 20.3211 10.4855 20.3258 10.4759 20.3333C10.3674 20.4172 10.2537 20.5003 10.1401 20.5802C10.131 20.5867 10.1237 20.5952 10.119 20.6049C10.1142 20.6146 10.1121 20.6253 10.1127 20.636C10.1134 20.6467 10.1169 20.6571 10.1228 20.6662C10.1288 20.6753 10.1371 20.6829 10.1469 20.6884C10.6884 20.9819 11.2538 21.2347 11.8379 21.4444C11.847 21.4476 11.8553 21.4525 11.8622 21.4588C11.8691 21.4652 11.8745 21.4728 11.8781 21.4813C11.8816 21.4898 11.8832 21.4988 11.8828 21.5079C11.8823 21.517 11.8798 21.5259 11.8754 21.534C11.5565 22.1249 11.1861 22.6901 10.7681 23.2238C10.7595 23.2346 10.7476 23.2425 10.734 23.2467C10.7204 23.2509 10.7057 23.2511 10.692 23.2472C8.74586 22.6855 6.91552 21.8175 5.27911 20.6804C5.27125 20.6747 5.26471 20.6675 5.25986 20.6593C5.25502 20.6511 5.25197 20.6421 5.25091 20.6328C4.87325 16.8387 5.64309 12.9969 8.45339 9.05829C8.46026 9.04786 8.47041 9.03968 8.48244 9.0349C9.88773 8.42921 11.371 7.99764 12.8949 7.75106C12.9087 7.74901 12.9229 7.75092 12.9356 7.75654C12.9482 7.76216 12.9588 7.77122 12.9658 7.78254C13.1725 8.12554 13.3587 8.47898 13.5238 8.84125C15.1664 8.60726 16.8371 8.60726 18.4796 8.84125C18.6436 8.4799 18.827 8.12655 19.0289 7.78254C19.0357 7.77097 19.0462 7.76169 19.059 7.75604C19.0717 7.75039 19.086 7.74864 19.0998 7.75106C20.6236 7.99816 22.1068 8.42969 23.5122 9.03486ZM10.4571 16.273C10.4571 17.4027 11.3372 18.3226 12.4053 18.3226C13.4903 18.3226 14.3534 17.4027 14.3534 16.2729C14.3705 15.1513 13.4989 14.2234 12.4053 14.2234C11.3201 14.2234 10.4571 15.1433 10.4571 16.273ZM17.6601 16.273C17.6601 17.4027 18.5402 18.3226 19.6082 18.3226C20.702 18.3226 21.5564 17.4027 21.5564 16.2729C21.5735 15.1513 20.702 14.2234 19.6082 14.2234C18.5231 14.2234 17.6601 15.1433 17.6601 16.273Z" fill="white"/>
</svg>
