<svg width="32" height="31" viewBox="0 0 32 31" fill="none" xmlns="http://www.w3.org/2000/svg">
<path d="M10.7032 24.9612C10.7032 25.0893 10.5549 25.1919 10.3677 25.1919C10.1549 25.2112 10.0065 25.1086 10.0065 24.9612C10.0065 24.8329 10.1549 24.7304 10.3419 24.7304C10.5355 24.7112 10.7032 24.8137 10.7032 24.9612ZM8.69676 24.6727C8.65162 24.8008 8.78063 24.9483 8.97423 24.9868C9.1419 25.0509 9.33549 24.9868 9.37423 24.8586C9.41288 24.7304 9.29036 24.583 9.09676 24.5252C8.92901 24.4804 8.74189 24.5445 8.69676 24.6727ZM11.5484 24.5637C11.3613 24.6086 11.2323 24.7304 11.2516 24.8778C11.271 25.006 11.4387 25.0893 11.6323 25.0445C11.8194 24.9996 11.9484 24.8778 11.929 24.7496C11.9096 24.6278 11.7355 24.5445 11.5484 24.5637ZM15.7935 0C6.84516 0 0 6.74989 0 15.6407C0 22.7496 4.50323 28.8329 10.9355 30.9739C11.7613 31.1213 12.0516 30.6149 12.0516 30.1982C12.0516 29.8008 12.0323 27.6085 12.0323 26.2624C12.0323 26.2624 7.51613 27.2239 6.56774 24.3521C6.56774 24.3521 5.83226 22.4868 4.77419 22.006C4.77419 22.006 3.29677 20.9997 4.87742 21.0189C4.87742 21.0189 6.48387 21.1471 7.36774 22.6727C8.78063 25.147 11.1484 24.4355 12.071 24.0124C12.2194 22.9868 12.6387 22.2753 13.1032 21.8522C9.49676 21.4547 5.85806 20.9356 5.85806 14.769C5.85806 13.0062 6.34839 12.1216 7.38065 10.9934C7.2129 10.5767 6.66451 8.85883 7.54839 6.64092C8.89676 6.22425 12 8.37162 12 8.37162C13.2904 8.01269 14.6774 7.8268 16.0516 7.8268C17.4258 7.8268 18.8129 8.01269 20.1032 8.37162C20.1032 8.37162 23.2065 6.21785 24.5549 6.64092C25.4387 8.86527 24.8904 10.5767 24.7226 10.9934C25.7549 12.128 26.3871 13.0126 26.3871 14.769C26.3871 20.9548 22.5871 21.4484 18.9806 21.8522C19.5742 22.3586 20.0774 23.3202 20.0774 24.8265C20.0774 26.9867 20.0581 29.6598 20.0581 30.1854C20.0581 30.6021 20.3549 31.1084 21.1742 30.961C27.6258 28.8329 32 22.7496 32 15.6407C32 6.74989 24.7419 0 15.7935 0ZM6.27096 22.1086C6.1871 22.1727 6.20645 22.3201 6.31613 22.442C6.41935 22.5445 6.56774 22.5894 6.65161 22.506C6.73549 22.442 6.71613 22.2945 6.60645 22.1727C6.50323 22.0701 6.35484 22.0253 6.27096 22.1086ZM5.5742 21.5894C5.52904 21.6727 5.59355 21.7753 5.72258 21.8394C5.82581 21.9035 5.95484 21.8842 6 21.7945C6.04516 21.7112 5.98065 21.6086 5.85161 21.5445C5.72258 21.506 5.61935 21.5253 5.5742 21.5894ZM7.66451 23.8714C7.56129 23.9547 7.6 24.1471 7.74839 24.2688C7.89677 24.4163 8.08387 24.4355 8.16774 24.333C8.25161 24.2496 8.2129 24.0573 8.08387 23.9355C7.94194 23.788 7.74839 23.7689 7.66451 23.8714ZM6.92904 22.9291C6.82581 22.9933 6.82581 23.1598 6.92904 23.3074C7.03226 23.4548 7.20645 23.5189 7.29032 23.4548C7.39355 23.3714 7.39355 23.2048 7.29032 23.0573C7.2 22.9099 7.03226 22.8457 6.92904 22.9291Z" fill="white"/>
</svg>
