<svg width="32" height="31" viewBox="0 0 32 31" fill="none" xmlns="http://www.w3.org/2000/svg">
<path fill-rule="evenodd" clip-rule="evenodd" d="M15.5 0C6.93959 0 0 6.93959 0 15.5C0 24.0604 6.93959 31 15.5 31H16.5C25.0604 31 32 24.0604 32 15.5C32 6.93959 25.0604 0 16.5 0H15.5ZM11.3881 15C11.3881 12.4455 13.4481 10.385 16.002 10.385C18.556 10.385 20.616 12.4455 20.616 15C20.616 17.5545 18.556 19.615 16.002 19.615C13.4481 19.615 11.3881 17.5545 11.3881 15ZM13.0023 15C13.0023 16.6548 14.3516 18.0003 16.002 18.0003C17.6524 18.0003 19.0017 16.6548 19.0017 15C19.0017 13.3452 17.6564 11.9997 16.002 11.9997C14.3476 11.9997 13.0023 13.3452 13.0023 15ZM20.8047 11.2727C21.399 11.2727 21.8809 10.7947 21.8809 10.1963C21.8809 9.60181 21.399 9.11983 20.8047 9.11983C20.2104 9.11983 19.7285 9.60181 19.7285 10.1963C19.7285 10.7907 20.2064 11.2727 20.8047 11.2727ZM23.4831 7.51724C24.5392 8.56956 24.8685 9.84682 24.9368 11.2887C25.0211 12.7749 25.0211 17.2251 24.9368 18.7113C24.8645 20.1532 24.5352 21.4304 23.4831 22.4828C22.431 23.5391 21.1541 23.8685 19.7125 23.9367C18.2266 24.0211 13.7734 24.0211 12.2875 23.9367C10.846 23.8644 9.57301 23.5351 8.5169 22.4828C7.46079 21.4304 7.13151 20.1532 7.06325 18.7113C6.97892 17.2251 6.97892 12.7708 7.06325 11.2847C7.13553 9.8428 7.46079 8.56555 8.5169 7.51322C9.57301 6.4609 10.85 6.13154 12.2875 6.06326C13.7734 5.97891 18.2266 5.97891 19.7125 6.06326C21.1541 6.13556 22.431 6.46491 23.4831 7.51724ZM21.3066 22.0169C22.0977 21.6996 22.7041 21.0931 23.0173 20.3058C23.4203 19.293 23.3978 17.0775 23.3833 15.6414C23.3809 15.4031 23.3787 15.1863 23.3787 15C23.3787 14.8137 23.3809 14.5969 23.3833 14.3587C23.3978 12.9233 23.4202 10.7104 23.0173 9.69419C22.7001 8.90294 22.0937 8.29644 21.3066 7.98315C20.2908 7.58227 18.0651 7.60362 16.6297 7.6174C16.3968 7.61963 16.1847 7.62167 16.002 7.62167C15.8157 7.62167 15.599 7.61947 15.3609 7.61706C13.9258 7.60251 11.7134 7.58009 10.6974 7.98315C9.9063 8.30046 9.29994 8.90695 8.98673 9.69419C8.58593 10.7102 8.60728 12.9365 8.62105 14.3722C8.62329 14.6051 8.62532 14.8173 8.62532 15C8.62532 15.1863 8.62312 15.4031 8.62071 15.6412C8.60617 17.0766 8.58376 19.2896 8.98673 20.3058C9.30396 21.0971 9.91032 21.7036 10.6974 22.0169C11.7132 22.4178 13.939 22.3964 15.3744 22.3826C15.6072 22.3804 15.8193 22.3784 16.002 22.3784C16.1883 22.3784 16.405 22.3806 16.6431 22.383C18.0782 22.3975 20.2906 22.4199 21.3066 22.0169Z" fill="white"/>
</svg>
