<svg width="338" height="80" viewBox="0 0 338 80" fill="none" xmlns="http://www.w3.org/2000/svg">
<path d="M45.4315 66.808L11.9035 57.216C8.26617 56.16 5.4795 54.7227 3.5435 52.904C1.66617 51.0267 0.7275 47.9173 0.7275 43.576V37.24C0.7275 32.8987 1.66617 29.8187 3.5435 28C5.4795 26.1227 8.26617 24.656 11.9035 23.6L45.4315 14.008C46.5462 13.7733 47.3382 13.8907 47.8075 14.36C48.3355 14.8293 48.5995 15.6213 48.5995 16.736V28.352C48.5995 29.4667 48.3355 30.3173 47.8075 30.904C47.3382 31.432 46.5462 31.784 45.4315 31.96L20.1755 38.736C19.5888 38.8533 19.1782 39.0293 18.9435 39.264C18.7675 39.4987 18.6795 39.88 18.6795 40.408C18.6795 40.936 18.7675 41.3173 18.9435 41.552C19.1782 41.7867 19.5888 41.9627 20.1755 42.08L45.4315 48.856C46.5462 49.032 47.3382 49.4133 47.8075 50C48.3355 50.528 48.5995 51.3493 48.5995 52.464V64.08C48.5995 65.1947 48.3355 65.9867 47.8075 66.456C47.3382 66.9253 46.5462 67.0427 45.4315 66.808ZM108.076 8.64H121.188C122.302 8.64 123.094 8.904 123.564 9.432C124.092 9.90133 124.356 10.6933 124.356 11.808V45.952C124.356 47.8293 124.268 49.5893 124.092 51.232C123.974 52.816 123.534 54.6933 122.772 56.864L118.372 68.832C118.078 69.712 117.638 70.4747 117.052 71.12C116.524 71.7067 115.79 72 114.852 72H103.148C102.209 72 101.358 71.7947 100.596 71.384C99.8331 70.9733 99.3345 70.2987 99.0998 69.36L95.0518 55.016C94.8758 54.4293 94.6411 54.048 94.3478 53.872C94.1131 53.6373 93.8198 53.52 93.4678 53.52H92.6758C92.3238 53.52 92.0011 53.6373 91.7078 53.872C91.4731 54.048 91.2678 54.4293 91.0918 55.016L86.9558 69.36C86.7211 70.24 86.2811 70.9147 85.6358 71.384C84.9905 71.7947 84.1985 72 83.2598 72H71.6438C70.7051 72 69.8838 71.7067 69.1798 71.12C68.5345 70.5333 68.0651 69.7707 67.7718 68.832L63.3718 56.688C62.6091 54.5173 62.1398 52.64 61.9638 51.056C61.8465 49.4133 61.7878 47.6533 61.7878 45.776V11.808C61.7878 10.6933 62.0225 9.90133 62.4918 9.432C63.0198 8.904 63.8411 8.64 64.9558 8.64H78.5078C79.6225 8.64 80.4145 8.904 80.8838 9.432C81.4118 9.90133 81.6758 10.6933 81.6758 11.808V44.192L86.7798 33.104C87.2491 32.1067 87.8651 31.4027 88.6278 30.992C89.3905 30.5813 90.3291 30.376 91.4438 30.376H95.1398C96.2545 30.376 97.1931 30.5813 97.9558 30.992C98.7185 31.4027 99.3345 32.1067 99.8038 33.104L104.908 44.192V11.808C104.908 10.6933 105.142 9.90133 105.612 9.432C106.14 8.904 106.961 8.64 108.076 8.64ZM179.713 72H138.881C137.766 72 136.945 71.7653 136.417 71.296C135.947 70.768 135.713 69.9467 135.713 68.832V11.808C135.713 10.6933 135.947 9.90133 136.417 9.432C136.945 8.904 137.766 8.64 138.881 8.64H179.713C180.827 8.64 181.619 8.904 182.089 9.432C182.617 9.90133 182.881 10.6933 182.881 11.808V22.104C182.881 23.2187 182.617 24.04 182.089 24.568C181.619 25.0373 180.827 25.272 179.713 25.272H155.425V32.048H172.585C173.699 32.048 174.491 32.312 174.961 32.84C175.489 33.3093 175.753 34.1013 175.753 35.216V44.632C175.753 45.7467 175.489 46.568 174.961 47.096C174.491 47.5653 173.699 47.8 172.585 47.8H155.425V55.368H179.713C180.827 55.368 181.619 55.632 182.089 56.16C182.617 56.6293 182.881 57.4213 182.881 58.536V68.832C182.881 69.9467 182.617 70.768 182.089 71.296C181.619 71.7653 180.827 72 179.713 72ZM230.251 72H196.459C195.344 72 194.523 71.7653 193.995 71.296C193.525 70.768 193.291 69.9467 193.291 68.832V11.808C193.291 10.6933 193.525 9.90133 193.995 9.432C194.523 8.904 195.344 8.64 196.459 8.64H224.531C230.28 8.64 234.533 9.75466 237.291 11.984C240.048 14.1547 241.427 17.528 241.427 22.104V26.328C241.427 28.792 240.987 30.816 240.107 32.4C239.285 33.9253 237.995 35.0693 236.235 35.832C239.989 36.184 242.776 37.4747 244.595 39.704C246.413 41.9333 247.323 45.1893 247.323 49.472V57.568C247.323 62.496 245.915 66.1333 243.099 68.48C240.341 70.8267 236.059 72 230.251 72ZM213.091 23.6V33.104H220.571C221.685 33.104 222.507 32.8107 223.035 32.224C223.621 31.6373 223.915 30.7573 223.915 29.584V27.12C223.915 25.9467 223.621 25.0667 223.035 24.48C222.507 23.8933 221.685 23.6 220.571 23.6H213.091ZM213.091 46.656V57.04H224.531C225.645 57.04 226.467 56.7467 226.995 56.16C227.581 55.5733 227.875 54.6933 227.875 53.52V50.088C227.875 48.9147 227.581 48.064 226.995 47.536C226.467 46.9493 225.645 46.656 224.531 46.656H213.091ZM251.6 76.752L262.16 3.888C262.278 2.77333 262.542 1.98133 262.952 1.51199C263.422 0.983995 264.214 0.719995 265.328 0.719995H278.088C279.203 0.719995 280.024 0.983995 280.552 1.51199C281.139 1.98133 281.374 2.77333 281.256 3.888L270.696 76.752C270.579 77.8667 270.286 78.6587 269.816 79.128C269.406 79.656 268.643 79.92 267.528 79.92H254.768C253.654 79.92 252.803 79.656 252.216 79.128C251.688 78.6587 251.483 77.8667 251.6 76.752ZM326.108 57.216L292.58 66.808C291.466 67.0427 290.644 66.9253 290.116 66.456C289.647 65.9867 289.412 65.1947 289.412 64.08V52.464C289.412 51.3493 289.647 50.528 290.116 50C290.644 49.4133 291.466 49.032 292.58 48.856L317.836 42.08C318.423 41.9627 318.804 41.7867 318.98 41.552C319.215 41.3173 319.332 40.936 319.332 40.408C319.332 39.88 319.215 39.4987 318.98 39.264C318.804 39.0293 318.423 38.8533 317.836 38.736L292.58 31.96C291.466 31.784 290.644 31.432 290.116 30.904C289.647 30.3173 289.412 29.4667 289.412 28.352V16.736C289.412 15.6213 289.647 14.8293 290.116 14.36C290.644 13.8907 291.466 13.7733 292.58 14.008L326.108 23.6C329.746 24.656 332.503 26.1227 334.38 28C336.316 29.8187 337.284 32.8987 337.284 37.24V43.576C337.284 47.9173 336.316 51.0267 334.38 52.904C332.503 54.7227 329.746 56.16 326.108 57.216Z" fill="url(#paint0_linear_1_3)"/>
<defs>
<linearGradient id="paint0_linear_1_3" x1="169" y1="-7" x2="169" y2="80" gradientUnits="userSpaceOnUse">
<stop offset="0.296875" stop-color="#BB3AF4"/>
<stop offset="0.744792" stop-color="#1EB3F6"/>
</linearGradient>
</defs>
</svg>
