<svg width="276" height="79" viewBox="0 0 276 79" fill="none" xmlns="http://www.w3.org/2000/svg">
<path d="M33.016 60.088L27.648 65.368L0.456 43.544L27.648 20.752L33.016 26.032L11.368 43.544L33.016 60.088ZM107.918 57.888L94.9824 71H86.4464L76.4144 60.792L66.4704 71H57.8464L44.9104 57.888V10.192H53.6224V55.424L61.5424 63.608H63.9184L72.0144 55.424V10.192H80.7264V55.424L88.8224 63.608H91.2864L99.2064 55.688V10.192H107.918V57.888ZM152.645 71H128.797L121.229 63.344V32.984L128.797 25.328H145.077L152.645 32.984V48.208L145.077 55.776H130.997L138.741 48.208H144.021V32.984H129.941V63.344H152.645V71ZM197.024 63.344L189.368 71H174.144V63.432L165.432 72.056V9.576L174.144 0.423996V30.784L179.6 25.328H189.368L197.024 32.984V63.344ZM188.312 63.344V32.984H174.144V63.344H188.312ZM239.646 2.536L209.638 78.656H201.63L231.902 2.536H239.646ZM264.536 43.544L242.8 26.032L248.08 20.752L275.36 43.544L248.08 65.368L242.8 60.088L264.536 43.544Z" fill="url(#paint0_linear_1_3)"/>
<defs>
<linearGradient id="paint0_linear_1_3" x1="138" y1="-11" x2="138" y2="79" gradientUnits="userSpaceOnUse">
<stop offset="0.296875" stop-color="#BB3AF4"/>
<stop offset="0.744792" stop-color="#1EB3F6"/>
</linearGradient>
</defs>
</svg>
