<svg width="328" height="69" viewBox="0 0 328 69" fill="none" xmlns="http://www.w3.org/2000/svg">
<path d="M2.984 42.208C1.63467 41.6213 0.96 40.6533 0.96 39.304C0.96 38.6587 1.136 38.1013 1.488 37.632C1.84 37.104 2.33867 36.6933 2.984 36.4L49.448 14.752C50.328 16.16 50.768 17.5387 50.768 18.888C50.768 19.944 50.504 20.8827 49.976 21.704C49.448 22.5253 48.656 23.1413 47.6 23.552L12.4 39.304L47.512 55.056C48.5093 55.4667 49.272 56.112 49.8 56.992C50.328 57.872 50.592 58.8693 50.592 59.984C50.592 61.4507 50.2107 62.7707 49.448 63.944L2.984 42.208ZM81.15 65.792C79.038 65.792 77.3073 65.2933 75.958 64.296C74.6087 63.24 73.6993 61.7733 73.23 59.896L58.71 3.4C59.59 2.872 60.7047 2.608 62.054 2.608C63.7553 2.608 65.1927 3.048 66.366 3.928C67.5393 4.74933 68.302 5.89333 68.654 7.36L78.246 49.072L76.838 54.264L77.366 54.44L91.534 5.336C91.7687 4.456 92.2087 3.78133 92.854 3.312C93.558 2.84266 94.3793 2.608 95.318 2.608C96.198 2.608 96.99 2.84266 97.694 3.312C98.398 3.78133 98.8673 4.456 99.102 5.336L111.334 49.424L110.102 54.792L110.63 54.968L121.982 7.36C122.334 5.89333 123.067 4.74933 124.182 3.928C125.355 3.048 126.763 2.608 128.406 2.608C129.755 2.608 130.929 2.872 131.926 3.4L117.406 59.896C116.937 61.7733 115.998 63.24 114.59 64.296C113.241 65.2933 111.51 65.792 109.398 65.792L94.35 12.552L93.822 12.728L94.966 16.864L81.15 65.792ZM153.965 65.792C150.387 65.792 147.189 65.1173 144.373 63.768C141.557 62.36 139.357 60.4533 137.773 58.048C136.189 55.584 135.397 52.8267 135.397 49.776V36.752C135.397 33.6427 136.219 30.8267 137.861 28.304C139.563 25.7813 141.821 23.816 144.637 22.408C147.512 20.9413 150.621 20.208 153.965 20.208C157.309 20.208 160.36 20.912 163.117 22.32C165.933 23.728 168.133 25.664 169.717 28.128C171.36 30.592 172.181 33.3787 172.181 36.488V42.12C172.181 43.0587 171.829 43.8507 171.125 44.496C170.421 45.1413 169.571 45.464 168.573 45.464H142.877V49.424C142.877 52.416 143.816 54.8213 145.693 56.64C147.629 58.4587 150.387 59.368 153.965 59.368C157.544 59.368 160.272 58.576 162.149 56.992C164.027 55.408 164.965 53.2667 164.965 50.568C166.725 50.4507 168.192 50.8027 169.365 51.624C170.597 52.3867 171.213 53.5307 171.213 55.056C171.213 56.9333 170.392 58.6933 168.749 60.336C167.165 61.9787 165.053 63.2987 162.413 64.296C159.773 65.2933 156.957 65.792 153.965 65.792ZM165.053 39.48V36.488C165.053 33.5547 164.027 31.1787 161.973 29.36C159.979 27.4827 157.309 26.544 153.965 26.544C150.621 26.544 147.923 27.4827 145.869 29.36C143.875 31.1787 142.877 33.5547 142.877 36.488V39.48H165.053ZM182.34 8.592C182.34 4.60266 184.921 2.608 190.084 2.608V24.08C189.204 24.8427 188.588 25.488 188.236 26.016L188.5 26.456C190.26 24.5787 192.401 23.0827 194.924 21.968C197.505 20.7947 200.028 20.208 202.492 20.208C207.713 20.208 211.878 21.5867 214.988 24.344C218.097 27.1013 219.652 30.7973 219.652 35.432V50.48C219.652 53.4133 218.918 56.0533 217.452 58.4C216.044 60.7467 214.049 62.5653 211.468 63.856C208.886 65.1467 205.953 65.792 202.668 65.792C196.918 65.792 192.078 63.2693 188.148 58.224L187.884 58.576C188.236 59.104 188.822 59.8373 189.644 60.776C189.644 62.4773 189.057 63.7387 187.884 64.56C186.71 65.3813 184.862 65.792 182.34 65.792V8.592ZM200.996 59.016C204.574 59.016 207.302 58.2533 209.18 56.728C211.116 55.2027 212.084 53.0027 212.084 50.128V35.784C212.084 33.0267 211.116 30.8853 209.18 29.36C207.244 27.776 204.545 26.984 201.084 26.984C198.033 26.984 195.422 27.8053 193.252 29.448C191.081 31.0907 189.996 33.056 189.996 35.344V50.568C189.996 52.9733 191.052 54.9973 193.164 56.64C195.276 58.224 197.886 59.016 200.996 59.016ZM260.546 3.4C261.074 2.344 261.778 1.552 262.658 1.02399C263.597 0.437329 264.624 0.143996 265.738 0.143996C267.205 0.143996 268.672 0.61333 270.138 1.552L238.37 65C237.256 67.112 235.554 68.168 233.266 68.168C231.741 68.168 230.274 67.6693 228.866 66.672L260.546 3.4ZM279.343 63.944C278.58 62.7707 278.199 61.4507 278.199 59.984C278.199 58.8693 278.463 57.872 278.991 56.992C279.519 56.112 280.281 55.4667 281.279 55.056L316.391 39.304L281.191 23.552C280.135 23.1413 279.343 22.5253 278.815 21.704C278.287 20.8827 278.023 19.944 278.023 18.888C278.023 17.5387 278.463 16.16 279.343 14.752L325.806 36.4C326.452 36.6933 326.951 37.104 327.303 37.632C327.655 38.1013 327.831 38.6587 327.831 39.304C327.831 40.6533 327.156 41.6213 325.806 42.208L279.343 63.944Z" fill="url(#paint0_linear_1_3)"/>
<defs>
<linearGradient id="paint0_linear_1_3" x1="164.5" y1="-27" x2="164.5" y2="68" gradientUnits="userSpaceOnUse">
<stop offset="0.296875" stop-color="#BB3AF4"/>
<stop offset="0.744792" stop-color="#1EB3F6"/>
</linearGradient>
</defs>
</svg>
