<svg width="399" height="92" viewBox="0 0 399 92" fill="none" xmlns="http://www.w3.org/2000/svg">
<path d="M49.373 77.752C49.0797 77.9867 48.669 78.1627 48.141 78.28C47.613 78.3973 46.997 78.3973 46.293 78.28L12.677 68.688C8.80503 67.5733 5.8717 66.0187 3.87703 64.024C1.88236 62.0293 0.885031 58.744 0.885031 54.168V47.832C0.885031 45.1333 1.23703 42.9333 1.94103 41.232C2.64503 39.472 3.6717 38.0347 5.02103 36.92L16.373 27.328C17.3117 26.5653 18.4264 25.8907 19.717 25.304C21.0077 24.7173 22.445 24.1893 24.029 23.72L57.645 14.128C59.1117 13.8933 60.1677 14.0693 60.813 14.656C61.517 15.184 61.869 16.2107 61.869 17.736V29.352C61.869 30.1733 61.7517 30.8773 61.517 31.464C61.2824 31.992 60.9597 32.432 60.549 32.784L49.109 42.376C48.8157 42.6107 48.4637 42.816 48.053 42.992C47.6424 43.168 47.2024 43.3147 46.733 43.432L41.893 44.664L57.997 48.976C59.3464 49.2107 60.3144 49.68 60.901 50.384C61.5464 51.0293 61.869 52.056 61.869 53.464V65.08C61.869 65.8427 61.7517 66.488 61.517 67.016C61.341 67.4853 61.077 67.8667 60.725 68.16L49.373 77.752ZM57.821 67.808C58.9357 68.0427 59.7277 67.9253 60.197 67.456C60.725 66.9867 60.989 66.1947 60.989 65.08V53.464C60.989 52.3493 60.725 51.528 60.197 51C59.7277 50.4133 58.9357 50.032 57.821 49.856L32.565 43.08C31.9784 42.9627 31.5677 42.7867 31.333 42.552C31.157 42.3173 31.069 41.936 31.069 41.408C31.069 40.88 31.157 40.4987 31.333 40.264C31.5677 40.0293 31.9784 39.8533 32.565 39.736L57.821 32.96C58.9357 32.784 59.7277 32.432 60.197 31.904C60.725 31.3173 60.989 30.4667 60.989 29.352V17.736C60.989 16.6213 60.725 15.8293 60.197 15.36C59.7277 14.8907 58.9357 14.7733 57.821 15.008L24.293 24.6C20.6557 25.656 17.869 27.1227 15.933 29C14.0557 30.8187 13.117 33.8987 13.117 38.24V44.576C13.117 48.9173 14.0557 52.0267 15.933 53.904C17.869 55.7227 20.6557 57.16 24.293 58.216L57.821 67.808ZM53.069 57.512V58.392L26.669 50.824C25.2024 50.4133 23.9704 49.768 22.973 48.888C22.0344 47.9493 21.565 46.512 21.565 44.576V38.24C21.565 36.304 22.0344 34.9253 22.973 34.104C23.9704 33.2827 25.2024 32.6667 26.669 32.256L53.069 24.688V25.568L26.845 33.136C25.613 33.488 24.557 34.016 23.677 34.72C22.8557 35.424 22.445 36.5973 22.445 38.24V44.576C22.445 46.2187 22.8557 47.4507 23.677 48.272C24.557 49.0347 25.613 49.592 26.845 49.944L53.069 57.512ZM115.501 42.64C116.44 42.64 117.173 42.9333 117.701 43.52C118.288 44.048 118.992 45.1333 119.813 46.776L127.909 62.968C128.202 63.5547 128.554 63.9067 128.965 64.024C129.434 64.1413 129.874 64.2 130.285 64.2H130.725C131.194 64.2 131.634 64.024 132.045 63.672C132.456 63.2613 132.69 62.8213 132.749 62.352L134.949 52.32C135.184 51.2053 135.301 49.768 135.301 48.008C135.36 46.248 135.389 44.7227 135.389 43.432V17.56H136.269V43.52C136.269 44.8107 136.24 46.336 136.181 48.096C136.181 49.856 136.064 51.2933 135.829 52.408L133.629 62.352C133.394 63.2907 133.013 63.9947 132.485 64.464C132.016 64.8747 131.429 65.08 130.725 65.08H130.109C129.581 65.08 129.024 64.992 128.437 64.816C127.909 64.5813 127.498 64.1707 127.205 63.584L119.109 47.216C118.346 45.6907 117.73 44.6933 117.261 44.224C116.792 43.7547 116.205 43.52 115.501 43.52H113.301C112.597 43.52 112.01 43.7547 111.541 44.224C111.072 44.6933 110.456 45.6907 109.693 47.216L101.597 63.584C101.304 64.1707 100.864 64.5813 100.277 64.816C99.7489 64.992 99.2209 65.08 98.6929 65.08H98.0769C97.3729 65.08 96.7569 64.8747 96.2289 64.464C95.7596 63.9947 95.4076 63.2907 95.1729 62.352L92.9729 52.408C92.7382 51.2933 92.5916 49.856 92.5329 48.096C92.5329 46.336 92.5329 44.8107 92.5329 43.52V17.56H93.4129V43.432C93.4129 44.7227 93.4129 46.248 93.4129 48.008C93.4716 49.768 93.6182 51.2053 93.8529 52.32L96.0529 62.352C96.1116 62.8213 96.3462 63.2613 96.7569 63.672C97.1676 64.024 97.6076 64.2 98.0769 64.2H98.5169C98.9276 64.2 99.3382 64.1413 99.7489 64.024C100.218 63.9067 100.6 63.5547 100.893 62.968L108.989 46.776C109.81 45.1333 110.485 44.048 111.013 43.52C111.6 42.9333 112.362 42.64 113.301 42.64H115.501ZM129.317 9.64C128.202 9.64 127.381 9.904 126.853 10.432C126.384 10.9013 126.149 11.6933 126.149 12.808V45.192L121.045 34.104C120.576 33.1067 119.96 32.4027 119.197 31.992C118.434 31.5813 117.496 31.376 116.381 31.376H112.685C111.57 31.376 110.632 31.5813 109.869 31.992C109.106 32.4027 108.49 33.1067 108.021 34.104L102.917 45.192V12.808C102.917 11.6933 102.653 10.9013 102.125 10.432C101.656 9.904 100.864 9.64 99.7489 9.64H86.1969C85.0822 9.64 84.2609 9.904 83.7329 10.432C83.2636 10.9013 83.0289 11.6933 83.0289 12.808V46.776C83.0289 48.6533 83.0876 50.4133 83.2049 52.056C83.3809 53.64 83.8502 55.5173 84.6129 57.688L89.0129 69.832C89.3062 70.7707 89.7756 71.5333 90.4209 72.12C91.1249 72.7067 91.9462 73 92.8849 73H104.501C105.44 73 106.232 72.7947 106.877 72.384C107.522 71.9147 107.962 71.24 108.197 70.36L112.333 56.016C112.509 55.4293 112.714 55.048 112.949 54.872C113.242 54.6373 113.565 54.52 113.917 54.52H114.709C115.061 54.52 115.354 54.6373 115.589 54.872C115.882 55.048 116.117 55.4293 116.293 56.016L120.341 70.36C120.576 71.2987 121.074 71.9733 121.837 72.384C122.6 72.7947 123.45 73 124.389 73H136.093C137.032 73 137.765 72.7067 138.293 72.12C138.88 71.4747 139.32 70.712 139.613 69.832L144.013 57.864C144.776 55.6933 145.216 53.816 145.333 52.232C145.509 50.5893 145.597 48.8293 145.597 46.952V12.808C145.597 11.6933 145.333 10.9013 144.805 10.432C144.336 9.904 143.544 9.64 142.429 9.64H129.317ZM96.2289 82.416C95.8182 82.7093 95.3489 82.944 94.8209 83.12C94.2929 83.3547 93.7356 83.472 93.1489 83.472H81.5329C80.4182 83.472 79.4502 83.12 78.6289 82.416C77.8076 81.712 77.2209 80.8027 76.8689 79.688L72.4689 67.544C71.6476 65.3733 71.1489 63.4667 70.9729 61.824C70.8556 60.1227 70.7969 58.304 70.7969 56.368V22.4C70.7969 21.6373 70.8849 20.992 71.0609 20.464C71.2956 19.936 71.6182 19.496 72.0289 19.144L83.3809 9.552C83.6742 9.31733 84.0556 9.14133 84.5249 9.02399C85.0529 8.848 85.6102 8.76 86.1969 8.76H99.7489C101.157 8.76 102.184 9.08266 102.829 9.728C103.474 10.3733 103.797 11.4 103.797 12.808V35.776L108.725 31.64C109.194 31.2293 109.752 30.936 110.397 30.76C111.101 30.584 111.864 30.496 112.685 30.496H113.917V22.4C113.917 21.6373 114.005 20.992 114.181 20.464C114.357 19.936 114.621 19.5253 114.973 19.232L115.061 19.144L126.501 9.552C126.794 9.31733 127.176 9.14133 127.645 9.02399C128.114 8.848 128.672 8.76 129.317 8.76H142.429C143.837 8.76 144.864 9.08266 145.509 9.728C146.154 10.3733 146.477 11.4 146.477 12.808V46.952C146.477 48.888 146.389 50.7067 146.213 52.408C146.096 54.0507 145.626 55.9573 144.805 58.128L140.405 70.096C140.229 70.6827 139.994 71.2107 139.701 71.68C139.408 72.1493 139.056 72.5893 138.645 73L127.293 82.416C126.941 82.768 126.56 83.032 126.149 83.208C125.738 83.384 125.269 83.472 124.741 83.472H113.037C111.864 83.472 110.837 83.208 109.957 82.68C109.077 82.152 108.461 81.3307 108.109 80.216L106.349 73.968L96.2289 82.416ZM198.367 83.472H157.535C156.127 83.472 155.101 83.1493 154.455 82.504C153.81 81.8587 153.487 80.832 153.487 79.424V22.4C153.487 21.6373 153.575 20.992 153.751 20.464C153.986 19.936 154.309 19.496 154.719 19.144L166.071 9.552C166.365 9.31733 166.746 9.14133 167.215 9.02399C167.743 8.848 168.301 8.76 168.887 8.76H209.719C211.127 8.76 212.154 9.08266 212.799 9.728C213.445 10.3733 213.767 11.4 213.767 12.808V23.104C213.767 23.8667 213.65 24.512 213.415 25.04C213.239 25.568 212.946 26.008 212.535 26.36L204.967 32.608C205.554 32.9013 205.965 33.3413 206.199 33.928C206.493 34.5147 206.639 35.2773 206.639 36.216V45.632C206.639 46.3947 206.522 47.04 206.287 47.568C206.111 48.096 205.818 48.536 205.407 48.888L197.575 55.488H209.719C211.127 55.488 212.154 55.8107 212.799 56.456C213.445 57.1013 213.767 58.128 213.767 59.536V69.832C213.767 70.5947 213.65 71.24 213.415 71.768C213.239 72.296 212.946 72.736 212.535 73.088L201.095 82.592C200.861 82.8267 200.479 83.032 199.951 83.208C199.482 83.384 198.954 83.472 198.367 83.472ZM209.719 73C210.834 73 211.626 72.7653 212.095 72.296C212.623 71.768 212.887 70.9467 212.887 69.832V59.536C212.887 58.4213 212.623 57.6293 212.095 57.16C211.626 56.632 210.834 56.368 209.719 56.368H185.431V48.8H202.591C203.706 48.8 204.498 48.5653 204.967 48.096C205.495 47.568 205.759 46.7467 205.759 45.632V36.216C205.759 35.1013 205.495 34.3093 204.967 33.84C204.498 33.312 203.706 33.048 202.591 33.048H185.431V26.272H209.719C210.834 26.272 211.626 26.0373 212.095 25.568C212.623 25.04 212.887 24.2187 212.887 23.104V12.808C212.887 11.6933 212.623 10.9013 212.095 10.432C211.626 9.904 210.834 9.64 209.719 9.64H168.887C167.773 9.64 166.951 9.904 166.423 10.432C165.954 10.9013 165.719 11.6933 165.719 12.808V69.832C165.719 70.9467 165.954 71.768 166.423 72.296C166.951 72.7653 167.773 73 168.887 73H209.719ZM204.967 64.2V65.08H175.311V17.56H204.967V18.44H176.191V40.528H197.839V41.408H176.191V64.2H204.967ZM223.879 83.472C222.471 83.472 221.444 83.1493 220.799 82.504C220.154 81.8587 219.831 80.832 219.831 79.424V22.4C219.831 21.6373 219.919 20.992 220.095 20.464C220.33 19.936 220.652 19.496 221.063 19.144L232.415 9.552C232.708 9.31733 233.09 9.14133 233.559 9.02399C234.087 8.848 234.644 8.76 235.231 8.76H263.303C269.404 8.76 273.892 9.96267 276.767 12.368C279.642 14.7147 281.079 18.2933 281.079 23.104V27.328C281.079 29.3813 280.786 31.1413 280.199 32.608C279.671 34.0747 278.85 35.248 277.735 36.128L277.471 36.304C280.639 37.008 283.015 38.5333 284.599 40.88C286.183 43.168 286.975 46.3653 286.975 50.472V58.568C286.975 61.208 286.594 63.496 285.831 65.432C285.068 67.3093 283.924 68.8933 282.399 70.184L271.047 79.776C269.58 81.008 267.732 81.9173 265.503 82.504C263.274 83.1493 260.663 83.472 257.671 83.472H223.879ZM269.023 73C274.831 73 279.114 71.8267 281.871 69.48C284.687 67.1333 286.095 63.496 286.095 58.568V50.472C286.095 46.1893 285.186 42.9333 283.367 40.704C281.548 38.4747 278.762 37.184 275.007 36.832C276.767 36.0693 278.058 34.9253 278.879 33.4C279.759 31.816 280.199 29.792 280.199 27.328V23.104C280.199 18.528 278.82 15.1547 276.063 12.984C273.306 10.7547 269.052 9.64 263.303 9.64H235.231C234.116 9.64 233.295 9.904 232.767 10.432C232.298 10.9013 232.063 11.6933 232.063 12.808V69.832C232.063 70.9467 232.298 71.768 232.767 72.296C233.295 72.7653 234.116 73 235.231 73H269.023ZM265.503 65.08H241.831V17.56H259.695C262.1 17.56 264.066 17.824 265.591 18.352C267.116 18.8213 268.29 19.496 269.111 20.376C269.932 21.1973 270.49 22.1653 270.783 23.28C271.076 24.3947 271.223 25.5973 271.223 26.888V32.52C271.223 34.28 270.9 35.8933 270.255 37.36C269.668 38.8267 268.114 39.8827 265.591 40.528C267.996 40.528 269.962 40.792 271.487 41.32C273.012 41.7893 274.186 42.4933 275.007 43.432C275.828 44.312 276.356 45.368 276.591 46.6C276.884 47.832 277.031 49.1813 277.031 50.648V56.28C277.031 57.5707 276.884 58.7733 276.591 59.888C276.298 60.944 275.74 61.8533 274.919 62.616C274.156 63.3787 273.012 63.9947 271.487 64.464C269.962 64.8747 267.967 65.08 265.503 65.08ZM259.695 18.44H242.711V40.528H259.695C262.1 40.528 264.007 40.3227 265.415 39.912C266.823 39.4427 267.879 38.856 268.583 38.152C269.346 37.3893 269.815 36.5387 269.991 35.6C270.226 34.6027 270.343 33.576 270.343 32.52V26.888C270.343 24.5413 269.668 22.5467 268.319 20.904C266.97 19.2613 264.095 18.44 259.695 18.44ZM251.863 24.6H259.343C260.458 24.6 261.279 24.8933 261.807 25.48C262.394 26.0667 262.687 26.9467 262.687 28.12V30.584C262.687 31.7573 262.394 32.6373 261.807 33.224C261.279 33.8107 260.458 34.104 259.343 34.104H251.863V24.6ZM265.591 41.408H242.711V64.2H265.503C269.903 64.2 272.778 63.496 274.127 62.088C275.476 60.6213 276.151 58.6853 276.151 56.28V50.648C276.151 48.008 275.476 45.808 274.127 44.048C272.836 42.288 269.991 41.408 265.591 41.408ZM251.863 47.656H263.303C264.418 47.656 265.239 47.9493 265.767 48.536C266.354 49.064 266.647 49.9147 266.647 51.088V54.52C266.647 55.6933 266.354 56.5733 265.767 57.16C265.239 57.7467 264.418 58.04 263.303 58.04H251.863V47.656ZM305.56 91.392H292.8C291.334 91.392 290.248 91.04 289.544 90.336C288.84 89.6907 288.576 88.664 288.752 87.256L299.312 14.392C299.371 13.6293 299.488 12.984 299.664 12.456C299.899 11.928 300.222 11.488 300.632 11.136L311.984 1.632C312.278 1.39733 312.659 1.22133 313.128 1.104C313.598 0.927996 314.126 0.839995 314.712 0.839995H327.472C328.939 0.839995 330.024 1.192 330.728 1.896C331.432 2.54133 331.696 3.568 331.52 4.97599L320.96 77.84C320.843 78.6027 320.667 79.248 320.432 79.776C320.256 80.3627 319.963 80.7733 319.552 81.008L308.2 90.6C307.848 90.8347 307.467 91.0107 307.056 91.128C306.646 91.304 306.147 91.392 305.56 91.392ZM300.984 77.752C300.867 78.8667 301.072 79.6587 301.6 80.128C302.187 80.656 303.038 80.92 304.152 80.92H316.912C318.027 80.92 318.79 80.656 319.2 80.128C319.67 79.6587 319.963 78.8667 320.08 77.752L330.64 4.888C330.758 3.77333 330.523 2.98133 329.936 2.51199C329.408 1.98399 328.587 1.71999 327.472 1.71999H314.712C313.598 1.71999 312.806 1.98399 312.336 2.51199C311.926 2.98133 311.662 3.77333 311.544 4.888L300.984 77.752ZM319.992 9.64H320.872L311.72 73H310.84L319.992 9.64ZM341.403 78.28C339.936 78.5147 338.851 78.3387 338.147 77.752C337.502 77.224 337.179 76.1973 337.179 74.672V63.056C337.179 62.2347 337.296 61.56 337.531 61.032C337.766 60.4453 338.088 59.9467 338.499 59.536L349.851 50.032C350.144 49.7973 350.496 49.592 350.907 49.416C351.318 49.24 351.787 49.0933 352.315 48.976L357.155 47.744L341.051 43.432C339.702 43.1973 338.704 42.7573 338.059 42.112C337.472 41.408 337.179 40.352 337.179 38.944V27.328C337.179 26.5653 337.267 25.92 337.443 25.392C337.619 24.864 337.883 24.4533 338.235 24.16L349.675 14.656C349.968 14.4213 350.379 14.2453 350.907 14.128C351.435 14.0107 352.051 14.0107 352.755 14.128H352.843L386.371 23.72C390.243 24.8347 393.176 26.3893 395.171 28.384C397.166 30.3787 398.163 33.664 398.163 38.24V44.576C398.163 47.2747 397.782 49.504 397.019 51.264C396.315 52.9653 395.318 54.3733 394.027 55.488L382.587 65.08C381.707 65.8427 380.622 66.5173 379.331 67.104C378.099 67.632 376.662 68.16 375.019 68.688L341.403 78.28ZM386.107 58.216C389.744 57.16 392.502 55.7227 394.379 53.904C396.315 52.0267 397.283 48.9173 397.283 44.576V38.24C397.283 33.8987 396.315 30.8187 394.379 29C392.502 27.1227 389.744 25.656 386.107 24.6L352.579 15.008C351.464 14.7733 350.643 14.8907 350.115 15.36C349.646 15.8293 349.411 16.6213 349.411 17.736V29.352C349.411 30.4667 349.646 31.3173 350.115 31.904C350.643 32.432 351.464 32.784 352.579 32.96L377.835 39.736C378.422 39.8533 378.803 40.0293 378.979 40.264C379.214 40.4987 379.331 40.88 379.331 41.408C379.331 41.936 379.214 42.3173 378.979 42.552C378.803 42.7867 378.422 42.9627 377.835 43.08L352.579 49.856C351.464 50.032 350.643 50.4133 350.115 51C349.646 51.528 349.411 52.3493 349.411 53.464V65.08C349.411 66.1947 349.646 66.9867 350.115 67.456C350.643 67.9253 351.464 68.0427 352.579 67.808L386.107 58.216ZM383.731 50.824L357.331 58.392V57.512L383.555 49.944C384.787 49.592 385.814 49.0347 386.635 48.272C387.515 47.4507 387.955 46.2187 387.955 44.576V38.24C387.955 36.5973 387.515 35.424 386.635 34.72C385.814 34.016 384.787 33.488 383.555 33.136L357.331 25.568V24.688L383.731 32.256C385.198 32.6667 386.4 33.2827 387.339 34.104C388.336 34.9253 388.835 36.304 388.835 38.24V44.576C388.835 46.512 388.336 47.9493 387.339 48.888C386.4 49.768 385.198 50.4133 383.731 50.824Z" fill="url(#paint0_linear_1_3)"/>
<defs>
<linearGradient id="paint0_linear_1_3" x1="199.5" y1="-6" x2="199.5" y2="91" gradientUnits="userSpaceOnUse">
<stop offset="0.296875" stop-color="#BB3AF4"/>
<stop offset="0.744792" stop-color="#1EB3F6"/>
</linearGradient>
</defs>
</svg>
