<svg width="345" height="79" viewBox="0 0 345 79" fill="none" xmlns="http://www.w3.org/2000/svg">
<path d="M27.8813 57.264C23.3053 56.208 18.7293 55.152 14.1533 54.096C9.63595 53.04 5.08928 52.0133 0.513281 51.016C4.26795 47.0267 8.02262 43.3013 11.7773 39.84C15.5319 36.3787 19.4919 33.3573 23.6573 30.776C27.8813 28.1947 32.3693 26.1707 37.1213 24.704C41.8733 23.1787 47.1533 22.416 52.9613 22.416V23.032C52.9613 23.384 52.9613 23.6773 52.9613 23.912C53.0199 24.1467 53.0493 24.352 53.0493 24.528C53.0493 24.8213 52.9026 25.056 52.6093 25.232C52.3746 25.3493 52.0519 25.4667 51.6413 25.584C51.2306 25.6427 50.8199 25.7013 50.4093 25.76C49.9986 25.76 49.6466 25.76 49.3533 25.76H48.7373L48.8253 26.728C49.1773 26.728 49.676 26.816 50.3213 26.992C51.0253 27.1093 51.7 27.3147 52.3453 27.608C53.0493 27.8427 53.636 28.136 54.1053 28.488C54.5746 28.84 54.8093 29.28 54.8093 29.808C54.8093 30.4533 54.1933 31.04 52.9613 31.568C51.788 32.096 50.4093 32.5653 48.8253 32.976C47.2413 33.328 45.6866 33.6507 44.1613 33.944C42.6946 34.1787 41.6973 34.384 41.1693 34.56C37.6493 35.6747 34.3346 37.2587 31.2253 39.312C28.1746 41.3067 25.1239 43.3307 22.0733 45.384C24.4199 46.0293 26.7373 46.704 29.0253 47.408C31.3133 48.0533 33.6013 48.6987 35.8893 49.344C36.2999 49.4613 37.092 49.6373 38.2653 49.872C39.4973 50.1067 40.7293 50.4 41.9613 50.752C43.252 51.0453 44.396 51.3973 45.3933 51.808C46.3906 52.2187 46.8893 52.6293 46.8893 53.04C46.8893 53.1573 46.8306 53.3333 46.7133 53.568C42.3133 52.3947 37.9133 51.3093 33.5133 50.312C29.1133 49.256 24.7133 48.0827 20.3133 46.792L20.2253 46.88C24.6253 48.112 28.9959 49.2853 33.3373 50.4C37.6786 51.456 42.0493 52.6587 46.4493 54.008L46.0093 55.416C46.772 55.5333 47.6226 55.7973 48.5613 56.208C49.5586 56.56 50.0573 57.2053 50.0573 58.144C50.0573 58.848 49.6173 59.4053 48.7373 59.816C47.8573 60.168 47.1533 60.4027 46.6253 60.52C43.5746 59.112 40.4066 57.9093 37.1213 56.912C33.836 55.9147 30.492 55.0347 27.0893 54.272C23.7453 53.5093 20.3719 52.8053 16.9693 52.16C13.6253 51.5147 10.3106 50.84 7.02528 50.136C10.1933 51.0747 13.3906 51.9253 16.6173 52.688C19.8439 53.4507 23.0706 54.2427 26.2973 55.064C29.524 55.8267 32.7213 56.6773 35.8893 57.616C39.0573 58.496 42.196 59.552 45.3053 60.784C44.6013 60.96 43.868 61.048 43.1053 61.048C41.9319 61.048 40.7586 60.9307 39.5853 60.696C38.4706 60.4027 37.3266 60.08 36.1533 59.728C35.0386 59.376 33.9239 58.9947 32.8093 58.584C31.6946 58.1733 30.5506 57.8213 29.3773 57.528L28.5853 56.472C24.1266 55.8267 19.7266 54.888 15.3853 53.656C11.1026 52.424 6.76128 51.2507 2.36128 50.136C5.17728 47.3787 8.02262 44.68 10.8973 42.04C13.7719 39.4 16.7346 36.8187 19.7853 34.296C19.6679 34.296 19.6093 34.1787 19.6093 33.944C16.1479 36.408 12.9213 39.0773 9.92928 41.952C6.93728 44.8267 4.00395 47.76 1.12928 50.752C5.64661 51.808 10.1053 52.864 14.5053 53.92C18.9639 54.976 23.4226 56.0907 27.8813 57.264ZM5.00128 49.696C5.93995 48.6987 6.84928 47.7013 7.72928 46.704C8.25728 46.176 8.75595 45.648 9.22528 45.12C8.69728 45.648 8.16928 46.176 7.64128 46.704C6.64395 47.6427 5.64662 48.6107 4.64928 49.608L5.00128 49.696ZM94.4017 49.256C95.1644 51.7787 95.9271 54.3307 96.6897 56.912C97.5111 59.4933 98.4791 61.8987 99.5937 64.128C100.767 66.2987 102.204 68.176 103.906 69.76C105.666 71.4027 107.866 72.488 110.506 73.016C107.983 72.84 105.812 72.0187 103.994 70.552C102.234 69.0853 100.738 67.296 99.5057 65.184C98.2737 63.0133 97.2764 60.696 96.5137 58.232C95.7511 55.768 95.1937 53.5093 94.8417 51.456C94.6657 52.864 94.3724 54.4187 93.9617 56.12C93.6097 57.8213 93.1404 59.5227 92.5537 61.224C91.9671 62.8667 91.2631 64.4507 90.4417 65.976C89.6791 67.4427 88.7697 68.704 87.7137 69.76L80.2337 71.08C77.7111 69.672 75.4817 67.6773 73.5457 65.096C71.6684 62.456 69.9964 59.4933 68.5297 56.208C67.1217 52.864 65.9191 49.3147 64.9217 45.56C63.9831 41.7467 63.1911 37.992 62.5457 34.296C61.9004 30.6 61.4017 27.0507 61.0497 23.648C60.7564 20.1867 60.5804 17.1653 60.5217 14.584L62.7217 14.32C63.0151 14.496 63.2497 14.936 63.4257 15.64C63.6604 16.2853 63.8364 17.0187 63.9537 17.84C64.0711 18.6613 64.1591 19.4533 64.2177 20.216C64.2764 20.9787 64.3057 21.5067 64.3057 21.8L65.0977 21.536C65.0977 21.0667 65.1271 20.216 65.1857 18.984C65.2444 17.6933 65.3911 16.4027 65.6257 15.112C65.8604 13.7627 66.1831 12.5893 66.5937 11.592C67.0631 10.5947 67.6497 10.096 68.3537 10.096C68.7057 10.096 69.0577 11.0053 69.4097 12.824C69.8204 14.6427 70.2897 17.0187 70.8177 19.952C71.3457 22.8267 71.9324 26.112 72.5777 29.808C73.2231 33.4453 73.9857 37.112 74.8657 40.808C75.8044 44.4453 76.8604 47.9653 78.0337 51.368C79.2071 54.712 80.5564 57.528 82.0817 59.816C82.6097 57.2347 83.2844 54.448 84.1057 51.456C84.9857 48.4053 85.8364 45.5893 86.6577 43.008C87.4791 40.368 88.1831 38.168 88.7697 36.408C89.4151 34.648 89.7964 33.7387 89.9137 33.68L99.3297 33.416C100.092 33.944 100.796 34.912 101.442 36.32C102.087 37.6693 102.703 39.2533 103.29 41.072C103.876 42.8907 104.434 44.856 104.962 46.968C105.49 49.0213 106.047 51.0453 106.634 53.04C107.22 54.976 107.836 56.7947 108.482 58.496C109.127 60.1387 109.831 61.4587 110.594 62.456L111.386 62.544C112.266 62.544 113.146 61.9867 114.026 60.872C114.964 59.7573 115.874 58.3493 116.754 56.648C117.692 54.888 118.572 52.9813 119.394 50.928C120.215 48.816 120.948 46.792 121.594 44.856C122.298 42.8613 122.884 41.072 123.354 39.488C123.823 37.8453 124.175 36.6427 124.41 35.88C124.644 35 124.879 33.7973 125.114 32.272C125.407 30.688 125.7 28.9867 125.994 27.168C126.287 25.3493 126.58 23.5307 126.874 21.712C127.226 19.8347 127.578 18.1627 127.93 16.696C128.282 15.1707 128.663 13.9387 129.074 13C129.484 12.0027 129.924 11.504 130.394 11.504L130.834 11.592C129.074 22.9147 126.551 34.0613 123.266 45.032C125.084 39.6347 126.58 34.1787 127.754 28.664C128.986 23.1493 130.188 17.6347 131.362 12.12L132.066 12.824C132.124 12.4133 132.3 11.68 132.594 10.624C132.887 9.50933 133.21 8.39466 133.562 7.27999C133.972 6.10666 134.412 5.08 134.882 4.2C135.351 3.32 135.82 2.88 136.29 2.88C136.642 2.88 136.935 3.17333 137.17 3.76C137.463 4.34666 137.668 5.02133 137.786 5.784C137.903 6.54667 137.991 7.30933 138.05 8.072C138.108 8.776 138.138 9.24533 138.138 9.48C138.138 9.656 138.05 10.0373 137.874 10.624C137.698 11.2107 137.58 11.6213 137.522 11.856C137.052 13.8507 136.466 16.608 135.762 20.128C135.116 23.648 134.324 27.52 133.386 31.744C132.447 35.9093 131.332 40.1627 130.042 44.504C128.868 48.6693 127.519 52.512 125.994 56.032C127.578 52.512 129.015 48.6987 130.306 44.592C131.655 40.2507 132.828 36.0267 133.826 31.92C134.882 27.7547 135.791 23.912 136.554 20.392C137.316 16.872 137.932 14.1147 138.402 12.12C138.402 15.112 138.167 18.2213 137.698 21.448C137.228 24.616 136.612 27.8133 135.85 31.04C135.087 34.2667 134.236 37.464 133.298 40.632C132.359 43.8 131.45 46.792 130.57 49.608L129.25 50.136C128.722 52.0133 127.988 54.2427 127.05 56.824C126.111 59.4053 124.908 61.8693 123.442 64.216C122.034 66.504 120.362 68.44 118.426 70.024C116.548 71.6667 114.407 72.488 112.002 72.488C110.183 72.488 108.54 72.0773 107.074 71.256C105.666 70.4933 104.375 69.4373 103.202 68.088C102.087 66.7973 101.09 65.3013 100.21 63.6C99.3884 61.8987 98.6257 60.1387 97.9217 58.32C97.2764 56.5013 96.6897 54.6827 96.1617 52.864C95.6337 50.9867 95.1644 49.2853 94.7537 47.76C94.6364 48.1707 94.5191 48.6693 94.4017 49.256ZM111.386 70.992C113.204 70.992 114.906 70.4053 116.49 69.232C118.132 68.1173 119.658 66.592 121.066 64.656C119.54 66.1813 118.015 67.5013 116.49 68.616C114.964 69.7307 113.263 70.288 111.386 70.288C109.86 70.288 108.452 69.848 107.162 68.968C105.93 68.1467 104.786 67.0613 103.73 65.712C102.732 64.304 101.823 62.7493 101.002 61.048C100.239 59.288 99.5351 57.5573 98.8897 55.856C98.2444 54.1547 97.6871 52.5413 97.2177 51.016C96.7484 49.432 96.3377 48.112 95.9857 47.056C96.2204 48.464 96.5431 50.048 96.9537 51.808C97.4231 53.5093 97.9511 55.24 98.5377 57C99.1244 58.76 99.7991 60.4907 100.562 62.192C101.383 63.8347 102.322 65.3307 103.378 66.68C104.434 67.9707 105.607 68.9973 106.898 69.76C108.247 70.5813 109.743 70.992 111.386 70.992ZM112.354 72.928C114.348 72.576 116.167 71.8133 117.81 70.64C119.452 69.5253 120.919 68.176 122.21 66.592C123.559 65.008 124.703 63.2773 125.642 61.4C126.17 60.4027 126.668 59.4053 127.138 58.408C126.727 59.464 126.258 60.5493 125.73 61.664C124.791 63.6587 123.676 65.5067 122.386 67.208C121.095 68.8507 119.599 70.2 117.898 71.256C116.255 72.3707 114.407 72.928 112.354 72.928ZM110.506 64.216C109.802 64.04 109.098 63.4827 108.394 62.544C107.748 61.6053 107.25 60.6373 106.898 59.64C107.074 60.168 107.279 60.7253 107.514 61.312C107.807 61.8987 108.13 62.456 108.482 62.984C108.892 63.512 109.332 63.952 109.802 64.304C110.271 64.5973 110.799 64.744 111.386 64.744C112.324 64.744 113.234 64.3333 114.114 63.512C115.052 62.632 115.903 61.576 116.666 60.344C117.487 59.112 118.22 57.8213 118.866 56.472C119.511 55.064 120.068 53.8027 120.538 52.688C120.068 53.744 119.482 54.976 118.778 56.384C118.132 57.7333 117.399 58.9947 116.578 60.168C115.815 61.3413 114.964 62.3387 114.026 63.16C113.146 63.9813 112.266 64.392 111.386 64.392C111.151 64.392 110.858 64.3333 110.506 64.216ZM94.2257 53.304C94.2844 52.8933 94.3431 52.512 94.4017 52.16C94.4604 51.7493 94.5484 51.3387 94.6657 50.928L94.3137 49.872C94.1964 50.4587 94.0791 51.0453 93.9617 51.632C93.9031 52.16 93.8151 52.7173 93.6977 53.304H94.2257ZM127.49 57.528C127.372 57.8213 127.255 58.1147 127.138 58.408C127.255 58.056 127.372 57.7627 127.49 57.528ZM127.842 56.736C127.724 57.0293 127.607 57.2933 127.49 57.528C127.607 57.2347 127.724 56.9707 127.842 56.736ZM128.106 56.12C127.988 56.296 127.9 56.5013 127.842 56.736C127.9 56.5013 127.988 56.296 128.106 56.12ZM174.858 69.584C172.628 70.3467 170.927 70.7573 169.754 70.816C168.58 70.9333 167.554 71.0213 166.674 71.08C163.388 71.08 160.426 70.464 157.786 69.232C155.146 68 152.887 66.328 151.01 64.216C149.132 62.104 147.666 59.64 146.61 56.824C145.612 53.9493 145.114 50.8987 145.114 47.672C145.114 45.7947 145.29 43.8587 145.642 41.864C145.994 39.8107 146.522 37.816 147.226 35.88C147.93 33.8853 148.839 32.0373 149.954 30.336C151.01 28.6347 152.271 27.1093 153.738 25.76C152.212 26.992 150.922 28.4587 149.866 30.16C148.751 31.8613 147.812 33.7093 147.05 35.704C146.287 37.64 145.73 39.664 145.378 41.776C145.026 43.8293 144.85 45.824 144.85 47.76C144.85 50.224 145.231 52.864 145.994 55.68C146.815 58.4373 148.106 61.0187 149.866 63.424C151.626 65.7707 153.884 67.736 156.642 69.32C159.458 70.904 162.86 71.696 166.85 71.696C168.727 71.696 170.692 71.432 172.746 70.904C170.516 72.3707 168.023 73.104 165.266 73.104C163.036 73.104 160.924 72.752 158.93 72.048C156.994 71.4027 155.175 70.464 153.474 69.232C151.831 68.0587 150.335 66.6507 148.986 65.008C147.636 63.3653 146.492 61.6053 145.554 59.728L146.346 59.024C145.348 57.0293 144.615 55.0347 144.146 53.04C143.735 51.0453 143.53 49.0213 143.53 46.968C143.53 43.976 143.94 41.1013 144.762 38.344C145.642 35.5867 146.786 32.976 148.194 30.512L150.306 27.608C150.658 26.9627 151.156 26.3173 151.802 25.672C152.506 25.0267 153.268 24.4107 154.09 23.824C154.911 23.1787 155.762 22.6213 156.642 22.152C157.58 21.624 158.46 21.1547 159.282 20.744C161.394 19.688 163.506 18.7493 165.618 17.928C167.73 17.048 170.194 16.4027 173.01 15.992L172.658 15.728C167.26 16.256 162.684 17.576 158.93 19.688C155.175 21.7413 152.124 24.264 149.778 27.256C147.431 30.248 145.73 33.5333 144.674 37.112C143.618 40.632 143.09 44.0933 143.09 47.496C143.09 49.3147 143.236 51.1627 143.53 53.04C143.882 54.8587 144.38 56.6773 145.026 58.496C143.559 54.976 142.826 51.2507 142.826 47.32C142.826 43.448 143.471 39.6053 144.762 35.792C146.052 31.9787 148.076 28.4587 150.834 25.232C154.354 22.0053 158.196 19.5413 162.362 17.84C166.527 16.08 170.546 15.2 174.418 15.2C175.65 15.2 176.911 15.4053 178.202 15.816C179.492 16.2267 180.666 16.872 181.722 17.752C182.778 18.5733 183.628 19.6587 184.274 21.008C184.978 22.3573 185.33 24 185.33 25.936C185.33 27.52 184.948 29.456 184.186 31.744C183.423 34.032 182.279 36.2613 180.754 38.432C179.287 40.544 177.439 42.3627 175.21 43.888C172.98 45.3547 170.399 46.088 167.466 46.088H164.562C162.391 45.6187 160.396 45.0907 158.578 44.504C156.818 43.8587 155.146 43.36 153.562 43.008C153.327 43.9467 153.18 44.856 153.122 45.736C153.122 46.5573 153.122 47.3787 153.122 48.2C153.122 49.9013 153.298 51.5733 153.65 53.216C154.06 54.8 154.676 56.2667 155.498 57.616C156.319 58.9653 157.346 60.1093 158.578 61.048C159.868 61.928 161.423 62.4853 163.242 62.72C164.356 62.9547 165.324 63.1013 166.146 63.16C166.967 63.16 167.642 63.1893 168.17 63.248C168.756 63.248 169.167 63.336 169.402 63.512C169.695 63.6293 169.842 63.8933 169.842 64.304C169.255 64.48 168.639 64.5973 167.994 64.656C167.407 64.7147 166.791 64.744 166.146 64.744C164.092 64.744 162.244 64.4213 160.602 63.776C158.959 63.072 157.551 62.28 156.378 61.4C157.727 62.7493 159.34 63.7173 161.218 64.304C163.095 64.832 164.943 65.096 166.762 65.096C167.759 65.096 168.786 65.008 169.842 64.832C169.724 65.184 169.666 65.3893 169.666 65.448C169.666 65.8 169.812 66.0347 170.106 66.152C170.34 66.0933 170.751 65.9467 171.338 65.712C171.924 65.4187 172.511 65.1547 173.098 64.92C173.743 64.6267 174.359 64.392 174.946 64.216C175.532 63.9813 175.943 63.864 176.178 63.864C176.471 63.864 176.735 63.9227 176.97 64.04C177.204 64.0987 177.322 64.4213 177.322 65.008C177.322 65.5947 177.116 66.2987 176.706 67.12C176.295 67.9413 175.679 68.7627 174.858 69.584ZM162.714 34.736L164.65 35.088C165.295 35.2053 165.882 35.264 166.41 35.264C166.996 35.264 167.671 35.088 168.434 34.736C169.255 34.3253 170.047 33.768 170.81 33.064C171.631 32.36 172.335 31.48 172.922 30.424C173.567 29.368 174.036 28.1653 174.33 26.816L174.506 26.288C173.684 26.288 172.452 26.4933 170.81 26.904C169.167 27.3147 167.466 27.872 165.706 28.576C163.946 29.2213 162.303 30.0133 160.778 30.952C159.252 31.832 158.196 32.8 157.61 33.856C158.49 34.032 159.34 34.208 160.162 34.384C161.042 34.5013 161.892 34.6187 162.714 34.736ZM158.666 41.248C158.783 41.1307 158.842 40.9547 158.842 40.72C158.9 40.4853 158.93 40.3093 158.93 40.192L154.794 38.696L154.354 39.928L158.666 41.248ZM156.202 61.224C155.791 60.7547 155.38 60.2853 154.97 59.816C154.618 59.4053 154.324 58.9947 154.09 58.584C154.618 59.5813 155.322 60.4613 156.202 61.224ZM209.903 23.648H211.399C214.802 23.648 218.175 24.264 221.519 25.496C224.863 26.6693 227.855 28.3413 230.495 30.512C233.135 32.6827 235.247 35.2933 236.831 38.344C238.474 41.336 239.295 44.6213 239.295 48.2C239.295 52.0133 238.767 55.2107 237.711 57.792C236.655 60.3147 235.159 62.3973 233.223 64.04C231.287 65.6827 228.97 66.9733 226.271 67.912C223.572 68.792 220.58 69.5253 217.295 70.112C219.348 69.936 221.636 69.5547 224.159 68.968C226.74 68.3813 229.146 67.3547 231.375 65.888C233.663 64.3627 235.57 62.28 237.095 59.64C238.62 56.9413 239.383 53.4213 239.383 49.08C239.383 43.7413 237.887 38.9307 234.895 34.648C231.903 30.3653 227.444 27.1387 221.519 24.968C220.052 24.3227 218.527 23.824 216.943 23.472C215.418 23.0613 213.863 22.856 212.279 22.856C212.807 22.5627 213.511 22.416 214.391 22.416C215.271 22.3573 215.975 22.328 216.503 22.328C218.791 22.328 221.138 22.7973 223.543 23.736C226.007 24.6747 228.324 25.9653 230.495 27.608C232.666 29.2507 234.572 31.1867 236.215 33.416C237.916 35.5867 239.178 37.904 239.999 40.368C239.706 40.4853 239.442 40.72 239.207 41.072C239.676 42.5387 240.028 43.976 240.263 45.384C240.498 46.792 240.615 48.2293 240.615 49.696C240.615 51.3387 240.468 52.9813 240.175 54.624C239.94 56.2667 239.412 57.88 238.591 59.464C237.828 61.048 236.714 62.544 235.247 63.952C233.839 65.36 231.962 66.6213 229.615 67.736C227.268 68.8507 224.394 69.76 220.991 70.464C217.588 71.2267 213.54 71.7253 208.847 71.96C208.554 72.136 208.143 72.224 207.615 72.224C207.087 72.2827 206.559 72.312 206.031 72.312H204.799C203.919 72.312 203.01 72.136 202.071 71.784C201.132 71.4907 200.282 70.9333 199.519 70.112C198.756 69.3493 198.14 68.3227 197.671 67.032C197.202 65.6827 196.967 64.0107 196.967 62.016V61.048C196.908 61.2827 196.82 61.4 196.703 61.4C196.527 61.4 196.439 61.3413 196.439 61.224V61.664C196.439 62.72 196.498 63.9227 196.615 65.272C196.732 66.5627 197.055 67.7947 197.583 68.968C198.17 70.1413 199.05 71.1093 200.223 71.872C201.455 72.6933 203.186 73.104 205.415 73.104C205.943 73.104 206.471 73.0747 206.999 73.016C207.586 73.016 208.202 72.928 208.847 72.752C213.13 72.576 217.207 72.1067 221.079 71.344C225.01 70.5813 228.471 69.3493 231.463 67.648C234.455 65.888 236.831 63.512 238.591 60.52C240.351 57.528 241.231 53.6853 241.231 48.992C241.231 47.4667 241.114 45.912 240.879 44.328C240.938 44.9733 241.026 45.5893 241.143 46.176C241.26 47.1147 241.319 48.0533 241.319 48.992C241.319 50.2827 241.231 51.7493 241.055 53.392C240.938 55.0347 240.556 56.7067 239.911 58.408C239.324 60.1093 238.444 61.7813 237.271 63.424C236.098 65.0667 234.455 66.504 232.343 67.736C230.172 69.0267 227.914 70.024 225.567 70.728C223.279 71.4907 221.079 72.048 218.967 72.4C216.914 72.8107 215.036 73.0453 213.335 73.104C211.692 73.2213 210.46 73.28 209.639 73.28H208.583C208.055 73.28 207.498 73.3093 206.911 73.368C206.383 73.4853 205.796 73.544 205.151 73.544H204.711C204.183 73.544 203.508 73.4853 202.687 73.368C201.924 73.2507 201.103 72.9573 200.223 72.488C199.402 72.0187 198.639 71.256 197.935 70.2C197.231 69.2027 196.732 67.7653 196.439 65.888C196.322 65.2427 196.234 64.5973 196.175 63.952C196.116 63.3067 196.028 62.72 195.911 62.192C195.911 61.0187 195.999 59.9333 196.175 58.936C196.351 57.88 196.439 57.0293 196.439 56.384V40.28L193.271 23.648C193.33 22.4747 193.388 21.184 193.447 19.776C193.564 18.368 193.652 16.9307 193.711 15.464C193.828 13.9387 193.916 12.4427 193.975 10.976C194.034 9.50933 194.063 8.10133 194.063 6.752C194.063 6.28266 194.034 5.84266 193.975 5.432C193.975 4.96266 193.975 4.52266 193.975 4.112C194.151 4.288 194.327 4.376 194.503 4.376C194.738 4.376 194.972 4.31733 195.207 4.2C195.5 4.024 195.764 3.936 195.999 3.936C196.175 3.936 196.351 4.024 196.527 4.2C196.703 4.376 196.85 4.69866 196.967 5.168C197.143 5.63733 197.26 6.34133 197.319 7.27999C197.378 8.16 197.407 9.304 197.407 10.712H198.199C198.434 7.48533 198.844 4.96266 199.431 3.144C200.076 1.32533 200.722 0.415999 201.367 0.415999C202.13 0.415999 202.687 1.35466 203.039 3.23199C203.391 5.10933 203.626 7.48533 203.743 10.36C203.919 13.176 204.066 16.2853 204.183 19.688C204.3 23.032 204.535 26.2 204.887 29.192C205.532 32.6533 206.06 36.3493 206.471 40.28C206.882 44.152 207.146 47.936 207.263 51.632C207.263 54.3893 207.234 56.3547 207.175 57.528C207.116 58.7013 207.028 59.552 206.911 60.08V62.456L209.903 62.192C211.78 62.192 213.716 62.104 215.711 61.928C217.706 61.6933 219.378 61.3413 220.727 60.872C223.191 60.4613 225.098 59.8747 226.447 59.112C227.855 58.2907 228.911 57.4107 229.615 56.472C230.319 55.5333 230.759 54.536 230.935 53.48C231.111 52.424 231.199 51.4267 231.199 50.488C231.199 48.6693 231.052 46.9387 230.759 45.296C230.524 43.5947 230.026 42.04 229.263 40.632C228.5 39.1653 227.386 37.8453 225.919 36.672C224.452 35.44 222.546 34.3547 220.199 33.416C217.618 32.4187 215.74 31.832 214.567 31.656C213.452 31.48 212.895 31.128 212.895 30.6C212.895 30.5413 212.954 30.336 213.071 29.984C215.535 30.1013 217.999 30.688 220.463 31.744C222.751 32.7413 224.834 34.0027 226.711 35.528C224.892 34.0027 222.868 32.7413 220.639 31.744C218.234 30.6293 215.799 29.9547 213.335 29.72C213.511 29.4853 213.599 29.192 213.599 28.84C213.599 28.664 213.511 28.4293 213.335 28.136H211.839C211.428 28.136 210.988 28.1653 210.519 28.224C210.05 28.2827 209.668 28.3413 209.375 28.4C207.967 28.2827 206.97 28.0773 206.383 27.784C205.855 27.4907 205.591 27.1387 205.591 26.728C205.591 26.1413 206.06 25.5547 206.999 24.968C207.996 24.3813 208.964 23.9413 209.903 23.648ZM233.047 48.816C233.047 51.5147 232.724 53.7147 232.079 55.416C231.434 57.1173 230.524 58.4373 229.351 59.376C230.876 58.32 231.874 56.9707 232.343 55.328C232.871 53.6853 233.135 51.6027 233.135 49.08C233.135 48.6693 233.106 48.288 233.047 47.936C233.047 47.6427 233.018 47.32 232.959 46.968C232.959 47.32 232.959 47.6427 232.959 47.936C233.018 48.2293 233.047 48.5227 233.047 48.816ZM240.703 43.272L240.791 43.624L240.703 43.272ZM226.975 35.792C226.858 35.7333 226.77 35.6453 226.711 35.528C226.828 35.5867 226.916 35.6747 226.975 35.792ZM240.791 43.712C240.791 43.8293 240.791 43.9173 240.791 43.976C240.791 43.9173 240.791 43.8293 240.791 43.712ZM283.25 9.304C283.836 9.304 284.247 9.53866 284.482 10.008C284.716 10.4187 284.834 10.8587 284.834 11.328C284.834 13.3813 284.218 15.8453 282.986 18.72C281.812 21.536 280.287 24.5867 278.41 27.872C276.591 31.1573 274.626 34.5893 272.514 38.168C270.402 41.7467 268.407 45.296 266.53 48.816C264.711 52.2773 263.186 55.6213 261.954 58.848C260.78 62.0747 260.194 65.008 260.194 67.648C260.194 67.9413 260.194 68.3227 260.194 68.792C260.252 69.2613 260.282 69.8187 260.282 70.464C260.282 71.4027 260.194 72.2827 260.018 73.104C259.842 73.984 259.431 74.4533 258.786 74.512L258.434 73.896C258.492 71.96 258.58 70.024 258.698 68.088C258.815 66.2693 259.02 64.48 259.314 62.72C258.492 66.592 258.082 70.4933 258.082 74.424H256.586L256.762 76.36C256.644 76.8293 256.439 77.328 256.146 77.856C255.852 78.4427 255.412 78.736 254.826 78.736C254.18 78.736 253.594 78.472 253.066 77.944C252.596 77.416 252.215 76.9173 251.922 76.448C251.922 70.112 252.655 64.216 254.122 58.76C255.647 53.2453 257.818 47.672 260.634 42.04C257.818 47.2027 255.618 52.5707 254.034 58.144C252.508 63.7173 251.57 69.4373 251.218 75.304C250.514 74.0133 250.162 72.6053 250.162 71.08C250.162 69.144 250.25 67.296 250.426 65.536C250.66 63.7173 251.012 61.8693 251.482 59.992L252.626 59.816C252.978 57.2933 253.594 54.8587 254.474 52.512C255.412 50.1067 256.439 47.7893 257.554 45.56C258.668 43.272 259.812 41.0133 260.986 38.784C262.218 36.5547 263.332 34.2667 264.33 31.92L263.802 31.744C261.455 36.2027 259.167 40.6613 256.938 45.12C254.884 49.344 253.212 53.8027 251.922 58.496C252.743 54.976 253.858 51.544 255.266 48.2C256.791 44.6213 258.434 41.1013 260.194 37.64C261.954 34.1787 263.802 30.776 265.738 27.432C267.674 24.0293 269.522 20.6267 271.282 17.224C272.103 15.6987 272.954 14.2613 273.834 12.912C274.772 11.504 275.564 10.0373 276.21 8.51199C276.562 8.688 277.06 8.89333 277.706 9.128C278.41 9.304 278.762 9.62666 278.762 10.096C278.762 10.448 278.644 10.8587 278.41 11.328C278.234 11.7973 278.058 12.208 277.882 12.56L278.762 13C279.231 12.296 279.847 11.504 280.61 10.624C281.431 9.744 282.311 9.304 283.25 9.304ZM251.746 59.2C251.804 58.9653 251.863 58.7307 251.922 58.496C251.863 58.7307 251.804 58.9653 251.746 59.2ZM300.422 22.152C302.886 22.152 305.907 22.416 309.486 22.944C313.065 23.4133 316.702 24.1173 320.398 25.056C324.094 25.9947 327.585 27.1387 330.87 28.488C334.155 29.7787 336.707 31.216 338.526 32.8C339.758 33.9147 340.814 35.1467 341.694 36.496C342.633 37.7867 343.571 39.1067 344.51 40.456C340.755 42.6267 337.529 44.2107 334.83 45.208C332.131 46.1467 329.579 46.9093 327.174 47.496C324.827 48.024 322.451 48.5813 320.046 49.168C317.641 49.7547 314.913 50.7227 311.862 52.072C311.217 52.3653 310.454 52.776 309.574 53.304C308.753 53.832 307.873 54.3893 306.934 54.976C306.054 55.504 305.174 56.0027 304.294 56.472C303.473 56.8827 302.769 57.088 302.182 57.088L301.126 56.12C302.123 55.768 303.091 55.3867 304.03 54.976C304.969 54.5653 305.849 54.0373 306.67 53.392C305.79 53.8613 304.881 54.272 303.942 54.624C303.003 54.976 302.065 55.2987 301.126 55.592L300.686 54.272L299.454 54.712C298.867 54.888 298.515 54.976 298.398 54.976C297.87 54.976 297.342 54.8587 296.814 54.624C296.286 54.3307 296.022 53.8613 296.022 53.216C296.022 52.3947 296.257 51.7493 296.726 51.28C297.195 50.752 297.782 50.3413 298.486 50.048C299.953 49.4613 301.39 48.816 302.798 48.112C304.206 47.408 305.614 46.704 307.022 46C308.43 45.2373 309.838 44.5333 311.246 43.888C312.713 43.2427 314.209 42.7147 315.734 42.304C314.15 42.5973 312.654 43.096 311.246 43.8C309.838 44.4453 308.43 45.1493 307.022 45.912C305.614 46.616 304.177 47.32 302.71 48.024C301.302 48.6693 299.806 49.1093 298.222 49.344C300.099 47.2907 302.358 45.6773 304.998 44.504C307.697 43.272 310.337 42.1573 312.918 41.16L313.182 42.04C315.235 41.16 317.347 40.4267 319.518 39.84C321.747 39.2533 323.977 38.7547 326.206 38.344L325.326 37.992C323.39 38.6373 321.395 39.1653 319.342 39.576C317.406 39.928 315.441 40.3973 313.446 40.984C315.323 40.3387 317.201 39.752 319.078 39.224C321.014 38.696 322.979 38.256 324.974 37.904C324.153 37.552 322.979 37.1707 321.454 36.76C319.929 36.2907 318.227 35.8213 316.35 35.352C314.531 34.8827 312.595 34.4427 310.542 34.032C308.547 33.5627 306.611 33.152 304.734 32.8C302.857 32.448 301.126 32.184 299.542 32.008C298.017 31.7733 296.814 31.656 295.934 31.656C295.934 31.5387 295.934 31.4507 295.934 31.392C295.993 31.3333 296.022 31.2453 296.022 31.128C296.022 30.6587 295.963 30.1893 295.846 29.72C296.022 29.2507 296.286 28.9573 296.638 28.84C297.049 28.664 297.489 28.576 297.958 28.576C298.251 28.576 298.545 28.6053 298.838 28.664C299.131 28.664 299.425 28.6933 299.718 28.752L299.806 27.784C299.454 27.7253 298.926 27.608 298.222 27.432C297.577 27.1973 296.902 26.9333 296.198 26.64C295.494 26.3467 294.878 26.024 294.35 25.672C293.881 25.2613 293.646 24.8213 293.646 24.352C293.646 23.824 293.939 23.4133 294.526 23.12C295.113 22.8267 295.758 22.6213 296.462 22.504C297.225 22.328 297.987 22.24 298.75 22.24C299.513 22.1813 300.07 22.152 300.422 22.152ZM326.734 38.168L327.79 37.904L321.102 35.44L320.134 35.704L326.734 38.168ZM317.934 41.688C319.87 41.2773 322.041 40.808 324.446 40.28C326.851 39.6933 328.905 39.0773 330.606 38.432L330.254 38.344L317.934 41.688ZM332.454 44.768C330.225 45.4133 327.966 45.9413 325.678 46.352C323.449 46.704 321.219 47.232 318.99 47.936C321.219 47.4667 323.449 47.0267 325.678 46.616C327.966 46.2053 330.225 45.5893 332.454 44.768ZM317.934 41.688C317.875 41.688 317.817 41.7173 317.758 41.776L317.934 41.688Z" fill="url(#paint0_linear_1_3)"/>
<defs>
<linearGradient id="paint0_linear_1_3" x1="172.5" y1="-11" x2="172.5" y2="79" gradientUnits="userSpaceOnUse">
<stop offset="0.296875" stop-color="#BB3AF4"/>
<stop offset="0.744792" stop-color="#1EB3F6"/>
</linearGradient>
</defs>
</svg>
