<svg width="376" height="81" viewBox="0 0 376 81" fill="none" xmlns="http://www.w3.org/2000/svg">
<path d="M52.6875 45.6602V48.9688L28.2812 39.3438L32.6211 37.7109L52.6875 45.6602ZM52.6875 52.2773V55.6289L19.7734 42.6094L24.0273 40.9766L52.6875 52.2773ZM52.6875 58.9805V62.2891L11.6094 46.0469L15.5625 44.2852L52.6875 58.9805ZM52.6875 10.6406V13.9492L0.09375 34.7891V31.4805L52.6875 10.6406ZM52.6875 3.98047V7.33203L0.09375 28.1289V24.8203L52.6875 3.98047ZM52.6875 17.3008V20.6523L0.09375 41.4492V38.1406L52.6875 17.3008ZM52.6875 23.9609V27.2695L4.26172 46.4336L52.6875 65.5977V68.9062L0.09375 48.1094V44.7578L52.6875 23.9609ZM80.4023 50.1289L78.9414 56.2305L64.2461 0.84375H67.4258L80.4023 50.1289ZM83.625 38.2266L82.0352 44.1562L70.6484 0.84375H73.7852L83.625 38.2266ZM86.8477 25.8945L85.2148 31.9102L77.0078 0.84375H80.2305L86.8477 25.8945ZM99.0938 72H95.8711L114.691 0.929688L114.648 0.84375H117.914V0.929688L126.293 29.8047L133.984 0.84375H137.207L118.344 72H115.121L106.699 43.168L99.0938 72ZM92.6484 72H89.4688L108.289 0.84375H111.469L92.6484 72ZM86.2461 72H83.0664L101.93 0.84375H105.066L86.2461 72ZM137.594 72H134.371L153.191 0.84375H156.414L137.594 72ZM131.148 72H127.969L146.789 0.84375H149.969L131.148 72ZM124.746 72H121.566L140.43 0.84375H143.566L124.746 72ZM78.2539 65.8984L95.4844 0.84375H98.707L79.8438 72H76.6211L57.8008 0.84375H61.0234L78.2539 65.8984ZM108.332 37.1094L116.668 66.1562L118.301 60.0117L109.922 31.0508L108.332 37.1094ZM111.512 24.9922L119.891 53.9531L121.523 47.8945L113.145 18.8906L111.512 24.9922ZM114.691 12.9609L123.113 41.9219L124.703 35.8203L116.367 6.77344L114.691 12.9609ZM177.77 72H174.676V10.125H177.77V72ZM171.582 72H168.488V10.125H171.582V72ZM165.395 72H162.301V10.125H165.395V72ZM183.957 56.5312H213.562V59.625H183.957V62.7188H213.562V65.8125H183.957V68.9062H213.562V72H180.863V10.125H213.562V13.2188H183.957V16.3125H213.562V19.4062H183.957V22.5H213.562V25.5938H183.957V33.2852H211.844V36.3789H183.957V39.4727H211.844V42.5664H183.957V45.6602H211.844V48.7539H183.957V56.5312ZM269.465 40.7188L269.379 40.6758C272.616 37.5247 274.234 33.6862 274.234 29.1602C274.234 24.8633 272.63 21.1393 269.422 17.9883C266.242 14.8086 262.475 13.2188 258.121 13.2188H224.09V72H220.996V10.125H258.121C261.501 10.125 264.667 10.9987 267.617 12.7461C270.596 14.4648 272.96 16.7995 274.707 19.75C276.454 22.6719 277.328 25.8086 277.328 29.1602C277.328 33.7435 276.096 37.6823 273.633 40.9766C276.096 44.3854 277.328 48.138 277.328 52.2344C277.328 56.1589 276.44 59.625 274.664 62.6328C272.888 65.612 270.553 67.8607 267.66 69.3789C264.796 70.8971 261.616 71.6562 258.121 71.6562H238.57V68.5625H258.121C262.533 68.5625 266.314 67.0013 269.465 63.8789C272.645 60.7279 274.234 56.8464 274.234 52.2344C274.234 50.1146 273.776 48.0234 272.859 45.9609C271.943 43.8984 270.797 42.1654 269.422 40.7617C269.422 40.7331 269.436 40.7188 269.465 40.7188ZM258.121 56.1875H238.57V59.2812H258.121C260.012 59.2812 261.616 58.651 262.934 57.3906C264.28 56.1016 264.953 54.3828 264.953 52.2344C264.953 50.3724 264.266 48.7396 262.891 47.3359C261.516 45.9036 259.926 45.1875 258.121 45.1875H238.527V48.2812H258.121C259.095 48.2812 259.954 48.6823 260.699 49.4844C261.473 50.2865 261.859 51.2031 261.859 52.2344C261.859 53.4948 261.501 54.4688 260.785 55.1562C260.069 55.8438 259.181 56.1875 258.121 56.1875ZM258.121 62.375H238.57V65.4688H258.121C261.673 65.4688 264.724 64.2083 267.273 61.6875C269.852 59.138 271.141 55.987 271.141 52.2344C271.141 49.8568 270.496 47.6224 269.207 45.5312C267.947 43.4115 266.271 41.7786 264.18 40.6328C266.271 39.5443 267.947 37.9974 269.207 35.9922C270.496 33.9583 271.141 31.681 271.141 29.1602C271.141 25.7227 269.837 22.7292 267.23 20.1797C264.652 17.6016 261.616 16.3125 258.121 16.3125H227.184V72H230.277V19.4062H258.121C260.757 19.4062 263.062 20.3945 265.039 22.3711C267.044 24.319 268.047 26.582 268.047 29.1602C268.047 32.0247 267.073 34.388 265.125 36.25C263.177 38.0833 260.842 39 258.121 39H248.668H238.57V42.0938H248.668H258.121C260.757 42.0938 263.062 43.1107 265.039 45.1445C267.044 47.1784 268.047 49.5417 268.047 52.2344C268.047 55.2135 267.073 57.6484 265.125 59.5391C263.177 61.4297 260.842 62.375 258.121 62.375ZM258.121 32.8125H238.57V35.9062H258.121C260.04 35.9062 261.659 35.3047 262.977 34.1016C264.294 32.8698 264.953 31.2227 264.953 29.1602C264.953 27.4128 264.266 25.8659 262.891 24.5195C261.516 23.1732 259.926 22.5 258.121 22.5H233.371V72H236.465V25.5938H258.121C259.095 25.5938 259.954 25.9661 260.699 26.7109C261.473 27.4271 261.859 28.2435 261.859 29.1602C261.859 30.3346 261.501 31.237 260.785 31.8672C260.069 32.4974 259.181 32.8125 258.121 32.8125ZM314.84 0.886719H318.02L298.082 80.3359H294.902L314.84 0.886719ZM308.395 0.886719H311.617L291.68 80.3359H288.5L308.395 0.886719ZM301.949 0.886719H305.172L285.277 80.3359H282.055L301.949 0.886719ZM323.305 48.9258V45.6172L371.73 26.4531L323.305 7.28906V3.98047L375.898 24.7773V28.1289L323.305 48.9258ZM323.305 55.5859V52.2344L375.898 31.4375V34.7461L323.305 55.5859ZM323.305 68.9062V65.5547L375.898 44.7578V48.0664L323.305 68.9062ZM323.305 62.2461V58.9375L375.898 38.0977V41.4062L323.305 62.2461ZM323.305 13.9062V10.5977L364.383 26.8398L360.43 28.6016L323.305 13.9062ZM323.305 20.6094V17.2578L356.219 30.2773L351.965 31.9102L323.305 20.6094ZM323.305 27.2266V23.918L347.711 33.543L343.371 35.1758L323.305 27.2266Z" fill="url(#paint0_linear_1_3)"/>
<defs>
<linearGradient id="paint0_linear_1_3" x1="189" y1="-30" x2="189" y2="82" gradientUnits="userSpaceOnUse">
<stop offset="0.296875" stop-color="#BB3AF4"/>
<stop offset="0.744792" stop-color="#1EB3F6"/>
</linearGradient>
</defs>
</svg>
