<svg width="256" height="75" viewBox="0 0 256 75" fill="none" xmlns="http://www.w3.org/2000/svg">
<path d="M12.272 71.152C11.5093 71.152 10.7173 70.8293 9.896 70.184C9.07467 69.48 8.34133 68.3947 7.696 66.928C6.69867 64.3467 5.64267 61.824 4.528 59.36C3.41333 56.8373 2.26933 54.3147 1.096 51.792C0.92 51.44 0.773334 51.0587 0.656 50.648C0.538667 50.2373 0.48 49.7973 0.48 49.328C0.48 49.0933 1.06667 48.3307 2.24 47.04C3.41333 45.6907 4.93867 44.1067 6.816 42.288C8.752 40.4693 10.8053 38.68 12.976 36.92C15.1467 35.16 17.2587 33.6933 19.312 32.52C21.3653 31.3467 23.1253 30.76 24.592 30.76C26.1173 30.76 27.1147 31.464 27.584 32.872C27.7013 33.1067 27.76 33.312 27.76 33.488C27.76 33.664 27.76 33.8693 27.76 34.104C27.76 35.8053 26.9093 37.2133 25.208 38.328C22.8613 39.7947 20.6027 41.3787 18.432 43.08C16.2613 44.7813 14.0613 46.3947 11.832 47.92C11.5973 48.0373 11.4213 48.096 11.304 48.096C10.776 48.096 10.512 47.8027 10.512 47.216C10.512 46.864 10.6293 46.6 10.864 46.424C13.0933 44.8987 15.2933 43.3147 17.464 41.672C19.6347 39.9707 21.8933 38.3573 24.24 36.832C24.8853 36.4213 25.3253 35.9813 25.56 35.512C25.8533 34.984 26 34.5147 26 34.104C26 33.048 25.4427 32.52 24.328 32.52C23.976 32.52 23.536 32.608 23.008 32.784C22.128 33.136 20.8373 33.8693 19.136 34.984C17.4933 36.04 15.704 37.3013 13.768 38.768C11.832 40.176 9.984 41.6133 8.224 43.08C6.464 44.5467 5.02667 45.8373 3.912 46.952C2.79733 48.0667 2.24 48.8587 2.24 49.328C2.24 49.9733 2.416 50.6187 2.768 51.264C3.12 51.8507 3.41333 52.4373 3.648 53.024C4.64533 55.2533 5.64267 57.512 6.64 59.8C7.63733 62.0293 8.54667 64.1707 9.368 66.224C9.83733 67.3387 10.336 68.16 10.864 68.688C11.392 69.1573 11.8907 69.392 12.36 69.392C12.8293 69.392 13.24 69.1867 13.592 68.776C13.944 68.3067 14.12 67.72 14.12 67.016C14.12 66.488 14.032 65.96 13.856 65.432C13.68 64.8453 13.2693 63.8773 12.624 62.528C12.0373 61.1787 11.392 59.712 10.688 58.128C9.984 56.4853 9.33867 55.0187 8.752 53.728C8.69333 53.6693 8.664 53.552 8.664 53.376C8.664 52.7893 8.98667 52.496 9.632 52.496C9.92533 52.496 10.16 52.672 10.336 53.024C10.9227 54.3733 11.568 55.84 12.272 57.424C13.0347 59.008 13.7093 60.4747 14.296 61.824C14.8827 63.1733 15.2933 64.1707 15.528 64.816C15.8213 65.696 15.968 66.4 15.968 66.928C15.968 68.16 15.5867 69.1867 14.824 70.008C14.12 70.7707 13.2693 71.152 12.272 71.152ZM49.1639 73.264C45.7026 73.264 42.9746 72.032 40.9799 69.568C39.0439 67.0453 38.0759 63.936 38.0759 60.24C38.0759 57.776 38.5159 55.136 39.3959 52.32C40.3346 49.504 41.7133 46.6587 43.5319 43.784C44.9986 41.496 46.5826 39.2667 48.2839 37.096C49.9853 34.9253 51.5693 32.784 53.0359 30.672C54.5613 28.56 55.7933 26.4187 56.7319 24.248C57.6706 22.0187 58.1399 19.7307 58.1399 17.384C58.1399 14.6853 57.3773 12.5733 55.8519 11.048C54.3853 9.52266 52.6253 8.76 50.5719 8.76C48.2253 8.76 46.1133 9.52266 44.2359 11.048C42.4173 12.5147 40.8626 14.48 39.5719 16.944C38.2813 19.3493 37.2839 21.96 36.5799 24.776C35.9346 27.5333 35.6119 30.2027 35.6119 32.784C35.6119 34.4267 35.7586 36.0693 36.0519 37.712C36.4039 39.296 36.9613 40.9387 37.7239 42.64C37.8413 42.9333 37.9586 43.256 38.0759 43.608C38.2519 43.96 38.3399 44.312 38.3399 44.664C38.3399 45.3093 38.1346 45.808 37.7239 46.16C37.3133 46.4533 36.7853 46.6 36.1399 46.6C34.8493 46.6 33.6466 46.1013 32.5319 45.104C31.4173 44.048 30.5959 42.7867 30.0679 41.32C29.5399 39.7947 29.1293 38.152 28.8359 36.392C28.6013 34.632 28.4839 32.872 28.4839 31.112C28.4839 27.1813 28.9826 23.3973 29.9799 19.76C31.0359 16.1227 32.5319 12.8667 34.4679 9.992C36.4039 7.11733 38.7506 4.85866 41.5079 3.216C44.3239 1.51466 47.4919 0.663998 51.0119 0.663998C53.7106 0.663998 56.2039 1.30933 58.4919 2.6C60.8386 3.832 62.7159 5.70933 64.1239 8.23199C65.5906 10.696 66.3239 13.7467 66.3239 17.384C66.3239 20.1413 66.1186 22.3707 65.7079 24.072C65.3559 25.7733 64.7986 27.2987 64.0359 28.648C63.2733 29.9387 62.2759 31.3467 61.0439 32.872C59.8706 34.3973 58.4626 36.3627 56.8199 38.768C55.2359 41.1147 53.3879 44.2533 51.2759 48.184C50.1613 50.3547 49.3106 52.408 48.7239 54.344C48.1373 56.2213 47.8439 57.8933 47.8439 59.36C47.8439 60.592 48.1079 61.6773 48.6359 62.616C49.1639 63.5547 50.0146 64.024 51.1879 64.024C52.0679 64.024 53.1533 63.7307 54.4439 63.144C55.7933 62.5573 57.3773 61.5893 59.1959 60.24C63.1266 57.3067 66.4999 53.992 69.3159 50.296C72.1906 46.6 74.7426 42.6987 76.9719 38.592C79.2599 34.4853 81.5186 30.3493 83.7479 26.184C84.5693 24.6587 85.4199 23.5733 86.2999 22.928C87.2386 22.2827 88.0893 21.96 88.8519 21.96C89.9079 21.96 90.7879 22.4 91.4919 23.28C92.1959 24.1013 92.5479 25.0107 92.5479 26.008C92.5479 26.4187 92.4599 26.8587 92.2839 27.328C92.1079 27.68 91.8439 27.856 91.4919 27.856C91.2573 27.856 91.0226 27.7387 90.7879 27.504C90.5533 27.2693 90.5239 26.976 90.6999 26.624C90.9346 26.096 90.8466 25.5093 90.4359 24.864C90.0839 24.16 89.5559 23.808 88.8519 23.808C88.3826 23.808 87.8253 24.0427 87.1799 24.512C86.5933 24.9813 85.9773 25.832 85.3319 27.064C83.0439 31.3467 80.7266 35.5707 78.3799 39.736C76.0919 43.9013 73.5106 47.8613 70.6359 51.616C67.7613 55.312 64.2999 58.656 60.2519 61.648C56.4973 64.4053 53.4173 65.784 51.0119 65.784C49.1933 65.784 47.9026 65.1093 47.1399 63.76C46.4359 62.4107 46.0839 60.9147 46.0839 59.272C46.0839 57.2187 46.4946 55.0773 47.3159 52.848C48.1959 50.56 49.2226 48.3893 50.3959 46.336C51.6279 44.224 52.7426 42.464 53.7399 41.056C55.6173 38.416 57.3773 35.8933 59.0199 33.488C60.6626 31.0827 62.0119 28.5893 63.0679 26.008C64.1239 23.4267 64.6519 20.5813 64.6519 17.472C64.6519 14.1867 64.0066 11.4293 62.7159 9.2C61.4839 6.97067 59.8413 5.29866 57.7879 4.18399C55.7346 3.01066 53.4759 2.424 51.0119 2.424C47.6679 2.424 44.7053 3.216 42.1239 4.8C39.6013 6.384 37.4599 8.55466 35.6999 11.312C33.9399 14.0107 32.5906 17.0613 31.6519 20.464C30.7719 23.8667 30.3319 27.3867 30.3319 31.024C30.3319 32.7253 30.4199 34.456 30.5959 36.216C30.8306 37.9173 31.2119 39.4427 31.7399 40.792C32.3853 42.376 33.0893 43.4613 33.8519 44.048C34.6146 44.6347 35.3479 44.928 36.0519 44.928C36.4626 44.928 36.6679 44.7813 36.6679 44.488C36.6679 44.1947 36.4039 43.52 35.8759 42.464C35.3479 41.3493 34.9959 40.4987 34.8199 39.912C34.5266 38.9147 34.2919 37.8293 34.1159 36.656C33.9986 35.4827 33.9399 34.2507 33.9399 32.96C33.9399 30.144 34.2919 27.24 34.9959 24.248C35.6999 21.1973 36.7559 18.3813 38.1639 15.8C39.5719 13.16 41.3026 11.048 43.3559 9.46399C45.4679 7.82133 47.8733 6.99999 50.5719 6.99999C53.2119 6.99999 55.4413 7.93866 57.2599 9.816C59.0786 11.6933 59.9879 14.216 59.9879 17.384C59.9879 19.848 59.4893 22.2533 58.4919 24.6C57.4946 26.888 56.2333 29.1467 54.7079 31.376C53.1826 33.5467 51.5399 35.7467 49.7799 37.976C48.0786 40.1467 46.4946 42.376 45.0279 44.664C43.2093 47.48 41.8893 50.208 41.0679 52.848C40.2466 55.488 39.8359 57.9227 39.8359 60.152C39.8359 63.496 40.6573 66.224 42.2999 68.336C44.0013 70.448 46.2893 71.504 49.1639 71.504C51.9213 71.504 55.2359 70.3893 59.1079 68.16C62.9799 65.9307 67.3213 62.1173 72.1319 56.72C72.3079 56.544 72.5133 56.456 72.7479 56.456C73.0999 56.456 73.3639 56.632 73.5399 56.984C73.7746 57.2773 73.7453 57.6 73.4519 57.952C68.6413 63.2907 64.1533 67.192 59.9879 69.656C55.8813 72.0613 52.2733 73.264 49.1639 73.264ZM81.5479 74.144C79.6119 74.144 77.9693 73.704 76.6199 72.824C75.2706 71.8853 74.1853 70.712 73.3639 69.304C72.5426 67.896 71.9559 66.4587 71.6039 64.992C71.3106 63.4667 71.2226 62.088 71.3399 60.856C71.4573 60.328 71.7506 60.064 72.2199 60.064C72.8066 60.064 73.0999 60.328 73.0999 60.856C73.0999 61.0907 73.0706 61.296 73.0119 61.472C73.0119 61.648 73.0119 61.8533 73.0119 62.088C73.0119 63.5547 73.3346 65.1093 73.9799 66.752C74.6253 68.336 75.5639 69.6853 76.7959 70.8C78.0866 71.856 79.6706 72.384 81.5479 72.384C85.2439 72.384 88.8519 71.4453 92.3719 69.568C95.9506 67.6907 99.2653 65.168 102.316 62C105.367 58.832 108.036 55.2827 110.324 51.352C112.671 47.3627 114.489 43.256 115.78 39.032C117.129 34.7493 117.804 30.6427 117.804 26.712C117.804 22.84 116.983 19.2613 115.34 15.976C113.756 12.6907 111.057 10.0507 107.244 8.056C106.716 7.76266 106.1 7.85066 105.396 8.32C104.692 8.78933 104.34 9.288 104.34 9.816C104.34 10.2853 104.633 10.6373 105.22 10.872C108.153 11.9867 110.207 13.776 111.38 16.24C112.612 18.704 113.228 21.4907 113.228 24.6C113.228 28.0613 112.641 31.728 111.468 35.6C110.295 39.4133 108.74 43.1973 106.804 46.952C104.927 50.648 102.844 54.0213 100.556 57.072C99.0893 59.0667 97.4173 60.9147 95.5399 62.616C93.6626 64.3173 91.7266 65.696 89.7319 66.752C87.7373 67.808 85.8306 68.336 84.0119 68.336C82.1346 68.336 80.7559 67.6613 79.8759 66.312C78.9959 64.9627 78.5559 63.144 78.5559 60.856C78.5559 58.6853 78.8786 56.3093 79.5239 53.728C80.2279 51.088 81.1373 48.3893 82.2519 45.632C83.3666 42.8747 84.5399 40.2347 85.7719 37.712C87.0626 35.1307 88.2653 32.8133 89.3799 30.76C89.5559 30.4667 89.8199 30.32 90.1719 30.32C90.4653 30.32 90.7293 30.4667 90.9639 30.76C91.1986 30.9947 91.1986 31.288 90.9639 31.64C89.8493 33.6933 88.6466 35.9813 87.3559 38.504C86.1239 41.0267 84.9799 43.6373 83.9239 46.336C82.8679 48.976 81.9879 51.5573 81.2839 54.08C80.6386 56.6027 80.3159 58.8613 80.3159 60.856C80.3159 62.8507 80.6093 64.288 81.1959 65.168C81.8413 66.048 82.6333 66.5173 83.5719 66.576C85.0973 66.6933 86.7693 66.312 88.5879 65.432C90.4653 64.4933 92.3133 63.2027 94.1319 61.56C96.0093 59.9173 97.6813 58.0693 99.1479 56.016C101.436 52.9067 103.489 49.592 105.308 46.072C107.185 42.4933 108.681 38.8853 109.796 35.248C110.911 31.552 111.468 28.0613 111.468 24.776C111.468 21.9013 110.94 19.3787 109.884 17.208C108.828 15.0373 107.039 13.4533 104.516 12.456C103.167 11.928 102.492 11.0773 102.492 9.904C102.492 8.96533 102.903 8.08533 103.724 7.264C104.545 6.44266 105.484 6.032 106.54 6.032C107.009 6.032 107.537 6.17866 108.124 6.472C112.289 8.64266 115.223 11.5467 116.924 15.184C118.684 18.7627 119.564 22.6347 119.564 26.8C119.564 31.024 118.86 35.3653 117.452 39.824C116.103 44.224 114.196 48.4773 111.732 52.584C109.327 56.6907 106.511 60.3573 103.284 63.584C100.057 66.8107 96.5959 69.392 92.8999 71.328C89.2039 73.2053 85.4199 74.144 81.5479 74.144ZM127.148 59.448C126.092 59.448 125.183 59.2133 124.42 58.744C124.068 58.568 123.892 58.3333 123.892 58.04C123.892 57.7467 124.01 57.512 124.244 57.336C124.538 57.1013 124.86 57.072 125.212 57.248C125.916 57.5413 126.562 57.688 127.148 57.688C128.38 57.688 129.73 57.336 131.196 56.632C132.663 55.8693 134.071 54.9013 135.42 53.728C136.77 52.5547 137.855 51.2933 138.676 49.944C139.556 48.5947 139.996 47.304 139.996 46.072C139.996 43.6667 138.764 42.464 136.3 42.464C133.543 42.464 130.962 43.1973 128.556 44.664C126.21 46.072 124.039 47.8613 122.044 50.032C120.108 52.144 118.378 54.3147 116.852 56.544C116.676 56.8373 116.442 56.984 116.148 56.984C115.855 56.984 115.62 56.8373 115.444 56.544C115.21 56.2507 115.21 55.928 115.444 55.576C116.97 53.3467 118.759 51.088 120.812 48.8C122.866 46.512 125.183 44.6053 127.764 43.08C130.404 41.496 133.25 40.704 136.3 40.704C137.884 40.704 139.175 41.1733 140.172 42.112C141.228 43.0507 141.756 44.3707 141.756 46.072C141.756 47.656 141.258 49.24 140.26 50.824C139.322 52.3493 138.09 53.7867 136.564 55.136C135.098 56.4267 133.514 57.4827 131.812 58.304C130.111 59.0667 128.556 59.448 127.148 59.448ZM125.124 67.632C123.54 67.632 122.074 67.2213 120.724 66.4C119.434 65.5787 118.788 64.1707 118.788 62.176C118.788 60.5333 119.375 58.7733 120.548 56.896C121.78 55.0187 123.276 53.2293 125.036 51.528C126.855 49.768 128.703 48.2427 130.58 46.952C132.458 45.6613 134.071 44.8107 135.42 44.4C135.479 44.4 135.508 44.4 135.508 44.4C135.567 44.3413 135.626 44.312 135.684 44.312C136.271 44.312 136.564 44.6347 136.564 45.28C136.564 45.632 136.359 45.896 135.948 46.072C134.658 46.4827 133.132 47.304 131.372 48.536C129.671 49.768 127.97 51.2053 126.268 52.848C124.626 54.432 123.247 56.0453 122.132 57.688C121.076 59.3307 120.548 60.8267 120.548 62.176C120.548 63.4667 120.959 64.4053 121.78 64.992C122.66 65.5787 123.775 65.872 125.124 65.872C128.586 65.872 132.076 64.9627 135.596 63.144C139.175 61.2667 142.226 58.6853 144.748 55.4C144.924 55.1653 145.13 55.048 145.364 55.048C145.716 55.048 145.98 55.224 146.156 55.576C146.391 55.8693 146.362 56.192 146.068 56.544C143.428 59.9467 140.202 62.6453 136.388 64.64C132.634 66.6347 128.879 67.632 125.124 67.632ZM124.684 72.912C123.159 72.912 121.604 72.6773 120.02 72.208C118.436 71.7387 117.116 70.976 116.06 69.92C114.946 68.8053 114.388 67.3387 114.388 65.52C114.388 64.8747 114.682 64.552 115.268 64.552C115.855 64.552 116.148 64.8747 116.148 65.52C116.148 66.6347 116.354 67.5147 116.764 68.16C117.234 68.8053 118.026 69.392 119.14 69.92C120.02 70.3307 120.959 70.6533 121.956 70.888C123.012 71.064 123.922 71.152 124.684 71.152C126.855 71.152 128.967 70.7413 131.02 69.92C133.132 69.0987 135.068 68.0427 136.828 66.752C136.946 66.6347 137.122 66.576 137.356 66.576C137.943 66.576 138.236 66.8693 138.236 67.456C138.236 67.7493 138.119 67.984 137.884 68.16C136.007 69.568 133.924 70.712 131.636 71.592C129.407 72.472 127.09 72.912 124.684 72.912ZM145.367 56.984C145.074 56.984 144.839 56.808 144.663 56.456C144.429 56.104 144.429 55.7813 144.663 55.488C146.13 53.8453 147.861 51.792 149.855 49.328C151.909 46.8053 154.138 44.136 156.543 41.32C159.007 38.4453 161.559 35.6293 164.199 32.872C166.839 30.056 169.509 27.504 172.207 25.216C174.906 22.928 177.546 21.1093 180.127 19.76C182.767 18.352 185.261 17.648 187.607 17.648C188.311 17.648 189.162 17.7947 190.159 18.088C191.215 18.3813 192.154 18.88 192.975 19.584C193.797 20.2293 194.207 21.1387 194.207 22.312C194.207 23.368 193.914 24.1307 193.327 24.6C192.741 25.0107 192.037 25.2747 191.215 25.392C190.394 25.5093 189.602 25.568 188.839 25.568C187.079 25.568 185.261 26.0373 183.383 26.976C181.506 27.856 179.687 29 177.927 30.408C176.167 31.816 174.525 33.3413 172.999 34.984C171.474 36.568 170.183 38.064 169.127 39.472C168.951 39.7067 168.717 39.824 168.423 39.824C168.13 39.824 167.866 39.6773 167.631 39.384C167.455 39.0907 167.485 38.768 167.719 38.416C168.775 37.008 170.066 35.4827 171.591 33.84C173.175 32.1387 174.906 30.5253 176.783 29C178.719 27.4747 180.714 26.2427 182.767 25.304C184.821 24.3067 186.845 23.808 188.839 23.808C189.367 23.808 190.101 23.7787 191.039 23.72C191.978 23.6027 192.447 23.1333 192.447 22.312C192.447 21.4907 191.89 20.816 190.775 20.288C189.719 19.7013 188.663 19.408 187.607 19.408C185.437 19.408 183.09 20.112 180.567 21.52C178.103 22.8693 175.551 24.688 172.911 26.976C170.271 29.264 167.631 31.7867 164.991 34.544C162.41 37.3013 159.917 40.088 157.511 42.904C155.165 45.6613 152.994 48.2427 150.999 50.648C149.063 53.0533 147.421 55.048 146.071 56.632C145.895 56.8667 145.661 56.984 145.367 56.984ZM152.935 72.912C151.527 72.912 150.09 72.6773 148.623 72.208C147.157 71.7387 145.954 70.976 145.015 69.92C144.018 68.864 143.519 67.456 143.519 65.696C143.519 64.992 143.783 64.64 144.311 64.64C144.957 64.64 145.279 65.0213 145.279 65.784C145.279 67.1333 145.69 68.2187 146.511 69.04C147.333 69.8027 148.33 70.36 149.503 70.712C150.735 71.0053 151.879 71.152 152.935 71.152C155.693 71.152 158.391 70.5947 161.031 69.48C163.73 68.3067 166.165 66.7227 168.335 64.728C170.506 62.7333 172.237 60.4747 173.527 57.952C174.818 55.3707 175.463 52.672 175.463 49.856C175.463 47.744 174.877 45.984 173.703 44.576C172.53 43.168 170.887 42.464 168.775 42.464C167.367 42.464 165.959 42.7573 164.551 43.344C163.202 43.872 161.882 44.5467 160.591 45.368C160.357 45.4853 160.181 45.544 160.063 45.544C159.535 45.544 159.271 45.2507 159.271 44.664C159.271 44.3707 159.389 44.136 159.623 43.96C160.973 43.08 162.41 42.3173 163.935 41.672C165.519 41.0267 167.133 40.704 168.775 40.704C171.533 40.704 173.615 41.6133 175.023 43.432C176.49 45.2507 177.223 47.392 177.223 49.856C177.223 52.9067 176.519 55.84 175.111 58.656C173.703 61.4133 171.826 63.8773 169.479 66.048C167.191 68.16 164.61 69.832 161.735 71.064C158.861 72.296 155.927 72.912 152.935 72.912ZM154.431 68.336C151.733 68.336 149.767 67.3973 148.535 65.52C147.362 63.6427 146.834 61.5307 146.951 59.184C146.951 58.656 147.245 58.392 147.831 58.392C148.066 58.392 148.271 58.48 148.447 58.656C148.682 58.7733 148.77 58.9787 148.711 59.272C148.653 61.1493 149.034 62.8507 149.855 64.376C150.735 65.8427 152.261 66.576 154.431 66.576C156.015 66.576 157.658 66.0187 159.359 64.904C161.119 63.7307 162.733 62.264 164.199 60.504C165.666 58.744 166.869 56.9253 167.807 55.048C168.746 53.112 169.215 51.4107 169.215 49.944C169.215 48.184 168.394 47.304 166.751 47.304C165.402 47.304 163.935 47.8027 162.351 48.8C160.767 49.7973 159.271 51.088 157.863 52.672C156.455 54.1973 155.341 55.8107 154.519 57.512C153.698 59.2133 153.375 60.768 153.551 62.176V62.264C153.551 62.8507 153.258 63.144 152.671 63.144C152.085 63.144 151.791 62.88 151.791 62.352C151.615 60.7093 151.967 58.92 152.847 56.984C153.786 55.048 155.018 53.2293 156.543 51.528C158.127 49.768 159.799 48.3307 161.559 47.216C163.378 46.1013 165.109 45.544 166.751 45.544C168.101 45.544 169.127 45.9547 169.831 46.776C170.594 47.5973 170.975 48.6533 170.975 49.944C170.975 51.5867 170.477 53.464 169.479 55.576C168.482 57.6293 167.162 59.6533 165.519 61.648C163.935 63.584 162.175 65.1973 160.239 66.488C158.303 67.72 156.367 68.336 154.431 68.336ZM184.57 72.208C184.276 72.208 184.012 72.032 183.778 71.68C183.602 71.328 183.66 71.0053 183.954 70.712C185.479 68.952 187.503 66.664 190.026 63.848C192.607 60.9733 195.452 57.8053 198.562 54.344C201.73 50.8827 204.986 47.304 208.33 43.608C211.674 39.912 214.959 36.2747 218.186 32.696C221.412 29.1173 224.404 25.832 227.162 22.84C229.919 19.7893 232.236 17.208 234.114 15.096C236.05 12.984 237.34 11.5467 237.986 10.784C238.748 9.904 239.57 9.288 240.45 8.936C241.33 8.52533 242.151 8.32 242.914 8.32C244.028 8.32 244.967 8.64266 245.73 9.288C246.492 9.87466 246.874 10.6667 246.874 11.664C246.874 12.72 246.375 13.8347 245.378 15.008C244.263 16.2987 242.65 18.088 240.538 20.376C238.484 22.664 236.108 25.304 233.41 28.296C230.711 31.2293 227.866 34.368 224.874 37.712C221.882 40.9973 218.86 44.312 215.81 47.656C212.759 51 209.855 54.1973 207.098 57.248C204.34 60.2987 201.876 63.056 199.706 65.52C197.535 67.9253 195.804 69.8613 194.514 71.328C194.338 71.5627 194.132 71.68 193.898 71.68C193.604 71.68 193.34 71.504 193.106 71.152C192.871 70.8 192.9 70.448 193.194 70.096C194.484 68.6293 196.215 66.6933 198.386 64.288C200.556 61.8827 203.02 59.1547 205.778 56.104C208.535 53.0533 211.439 49.856 214.49 46.512C217.54 43.168 220.562 39.8533 223.554 36.568C226.546 33.224 229.391 30.0853 232.09 27.152C234.788 24.16 237.164 21.52 239.218 19.232C241.33 16.944 242.943 15.1547 244.058 13.864C244.762 12.984 245.114 12.2507 245.114 11.664C245.114 10.608 244.41 10.08 243.002 10.08C242.415 10.08 241.799 10.2267 241.154 10.52C240.508 10.8133 239.892 11.2827 239.306 11.928C238.66 12.6907 237.37 14.128 235.434 16.24C233.556 18.352 231.239 20.9333 228.482 23.984C225.724 26.976 222.732 30.2613 219.506 33.84C216.279 37.4187 212.994 41.056 209.65 44.752C206.306 48.448 203.05 52.0267 199.882 55.488C196.772 58.9493 193.927 62.1173 191.346 64.992C188.823 67.808 186.799 70.096 185.274 71.856C185.098 72.0907 184.863 72.208 184.57 72.208ZM233.984 73C232.811 73 231.931 72.4427 231.344 71.328C231.051 70.7413 230.904 70.1547 230.904 69.568C230.904 68.0427 231.52 66.7227 232.752 65.608C234.805 63.7307 236.771 61.7947 238.648 59.8C240.525 57.7467 242.403 55.7813 244.28 53.904C244.456 53.728 244.661 53.64 244.896 53.64C245.189 53.64 245.424 53.816 245.6 54.168C245.835 54.4613 245.805 54.784 245.512 55.136C243.635 57.0133 241.757 58.9787 239.88 61.032C238.003 63.0267 236.037 64.992 233.984 66.928C233.104 67.6907 232.664 68.5413 232.664 69.48C232.664 70.5947 233.192 71.152 234.248 71.152C234.717 71.152 235.245 70.976 235.832 70.624C236.653 70.096 237.797 69.1573 239.264 67.808C240.731 66.4587 242.285 64.904 243.928 63.144C245.629 61.384 247.213 59.6533 248.68 57.952C250.147 56.192 251.32 54.6667 252.2 53.376C253.139 52.0853 253.579 51.2347 253.52 50.824C253.403 50.1787 253.109 49.5627 252.64 48.976C252.171 48.3893 251.76 47.8613 251.408 47.392C250.059 45.3387 248.68 43.2853 247.272 41.232C245.923 39.1787 244.661 37.2133 243.488 35.336C242.373 33.576 241.288 32.696 240.232 32.696C239.117 32.696 238.56 33.4 238.56 34.808C238.56 35.5707 238.765 36.2747 239.176 36.92C239.528 37.448 240.085 38.328 240.848 39.56C241.669 40.792 242.579 42.1413 243.576 43.608C244.573 45.016 245.483 46.336 246.304 47.568C246.421 47.8027 246.48 47.9787 246.48 48.096C246.48 48.624 246.187 48.888 245.6 48.888C245.248 48.888 244.984 48.7707 244.808 48.536C243.987 47.304 243.077 45.984 242.08 44.576C241.083 43.1093 240.173 41.76 239.352 40.528C238.589 39.2373 238.032 38.328 237.68 37.8C237.093 36.8027 236.8 35.8347 236.8 34.896C236.8 33.7813 237.123 32.872 237.768 32.168C238.472 31.4053 239.293 31.024 240.232 31.024C240.995 31.024 241.787 31.288 242.608 31.816C243.429 32.344 244.221 33.224 244.984 34.456C246.451 36.8027 247.947 39.12 249.472 41.408C250.997 43.6373 252.552 45.896 254.136 48.184C254.664 48.8293 255.016 49.592 255.192 50.472C255.251 50.7067 254.928 51.4107 254.224 52.584C253.52 53.7573 252.552 55.1947 251.32 56.896C250.147 58.5973 248.797 60.3867 247.272 62.264C245.805 64.0827 244.251 65.8133 242.608 67.456C241.024 69.0987 239.469 70.448 237.944 71.504C236.477 72.5013 235.157 73 233.984 73Z" fill="url(#paint0_linear_1_3)"/>
<defs>
<linearGradient id="paint0_linear_1_3" x1="128" y1="-20" x2="128" y2="80" gradientUnits="userSpaceOnUse">
<stop offset="0.296875" stop-color="#BB3AF4"/>
<stop offset="0.744792" stop-color="#1EB3F6"/>
</linearGradient>
</defs>
</svg>
