<svg width="408" height="90" viewBox="0 0 408 90" fill="none" xmlns="http://www.w3.org/2000/svg">
<path d="M33.6836 69.24L0.331563 45.128L22.5076 45.216L55.7716 69.24H33.6836ZM33.6836 16.176L55.7716 16.088L22.5076 40.2H0.331563L33.6836 16.176ZM124.746 42.576L115.242 33.424V11.776L124.746 3.152V42.576ZM71.1544 3.152L80.6584 12.304V33.952L71.1544 42.576V3.152ZM99.9304 65.104L99.4904 61.144L107.146 61.936L124.834 78.304L126.066 85.872L118.41 85.256L100.722 68.888L99.9304 65.104ZM124.922 45.656V74.344L115.418 65.808V54.632L124.922 45.656ZM71.3304 74.344V45.656L80.8344 54.192V65.368L71.3304 74.344ZM96.9384 65.104L96.1464 68.888L78.4584 85.256L70.8024 85.872L72.0344 78.304L89.7224 61.936L97.3784 61.144L96.9384 65.104ZM150.513 89.744L159.577 80.24H181.313L189.937 89.744H150.513ZM147.961 46.536L157.377 55.688V77.248L147.961 85.872V46.536ZM158.081 49.704C155.911 48.0027 153.857 46.3893 151.921 44.864L158.081 40.2H182.105L188.265 44.864L182.105 49.704H158.081ZM150.425 0.335997H189.673L181.137 9.84H159.401L150.425 0.335997ZM147.697 43.456V4.12L157.113 12.656V34.48L147.697 43.456ZM219.576 89.744L228.64 80.24H250.376L258.912 89.744H219.576ZM216.936 46.536L226.44 55.688V77.248L216.936 85.872V46.536ZM261.728 85.872L252.224 76.808V55.16L261.728 46.536V85.872ZM227.144 49.704C225.091 48.0613 223.008 46.448 220.896 44.864L227.144 40.2H251.168L257.328 44.864L251.168 49.704H227.144ZM219.488 0.335997H258.824L250.112 9.84H228.552L219.488 0.335997ZM216.672 43.456V4.12L226.176 12.656V34.48L216.672 43.456ZM261.464 4.12V43.456L251.96 34.92V13.184L261.464 4.12ZM324.719 23.832L294.447 83.672V61.32L324.719 1.74399V23.832ZM374.334 69.24H352.246L385.51 45.216L407.686 45.128L374.334 69.24ZM374.334 16.176L407.686 40.2H385.51L352.246 16.088L374.334 16.176Z" fill="url(#paint0_linear_1_3)"/>
<defs>
<linearGradient id="paint0_linear_1_3" x1="204" y1="-5" x2="204" y2="90" gradientUnits="userSpaceOnUse">
<stop offset="0.296875" stop-color="#BB3AF4"/>
<stop offset="0.744792" stop-color="#1EB3F6"/>
</linearGradient>
</defs>
</svg>
