<svg width="32" height="31" viewBox="0 0 32 31" fill="none" xmlns="http://www.w3.org/2000/svg">
<path d="M16 0C7.16342 0 0 6.93956 0 15.5C0 24.0604 7.16342 31 16 31C24.8366 31 32 24.0604 32 15.5C32 6.93956 24.8366 0 16 0ZM23.4163 10.5413C23.1755 12.9922 22.1336 18.9399 21.6034 21.685C21.3791 22.8465 20.9374 23.236 20.5099 23.2741C19.5809 23.3569 18.8752 22.6792 17.9753 22.1077C16.5671 21.2135 15.7715 20.6568 14.4046 19.7842C12.8249 18.7757 13.849 18.2217 14.7492 17.3154C14.9848 17.0784 19.0787 13.4711 19.1579 13.1438C19.1678 13.1029 19.1773 12.9501 19.0835 12.8698C18.9897 12.7896 18.8519 12.8168 18.7522 12.8386C18.611 12.8696 16.3614 14.3101 12.0033 17.1599C11.3648 17.5847 10.7864 17.7916 10.2682 17.7808C9.6969 17.7689 8.598 17.4679 7.78103 17.2106C6.77903 16.8951 5.98264 16.7283 6.052 16.1924C6.08813 15.9133 6.4849 15.6279 7.24232 15.3362C11.9067 13.3675 15.0169 12.0696 16.5732 11.4424C21.0165 9.652 21.9398 9.341 22.5416 9.33062C22.674 9.3285 22.9699 9.36025 23.1616 9.51094C23.2891 9.61828 23.3704 9.76808 23.3894 9.93069C23.4218 10.1326 23.4309 10.3374 23.4163 10.5413V10.5413Z" fill="white"/>
</svg>
