<svg width="32" height="31" viewBox="0 0 32 31" fill="none" xmlns="http://www.w3.org/2000/svg">
<path fill-rule="evenodd" clip-rule="evenodd" d="M15.5 0C6.93959 0 0 6.93959 0 15.5C0 24.0604 6.93959 31 15.5 31H16.5C25.0604 31 32 24.0604 32 15.5C32 6.93959 25.0604 0 16.5 0H15.5ZM25.7716 10C26.4986 10 26.6497 10.3738 26.4986 10.8816C26.1964 12.275 23.2599 16.3863 23.2558 16.3904C23.0027 16.7966 22.9005 16.9997 23.2558 17.4547C23.2825 17.4921 23.418 17.6299 23.6228 17.8381C24.4847 18.7144 26.5742 20.8388 26.9438 21.9844C27.1439 22.6588 26.7967 23 26.1106 23H23.7051C23.0626 23 22.7384 22.6414 22.0365 21.8651C21.7389 21.5359 21.3735 21.1317 20.8871 20.6478C19.4576 19.2788 18.8451 19.1 18.4897 19.1C17.8379 19.1 17.8395 19.2845 17.8549 21.0007C17.8576 21.306 17.8608 21.6598 17.8608 22.0697C17.8608 22.6588 17.6729 23 16.1414 23C13.5929 23 10.7912 21.4603 8.80228 18.6207C5.81681 14.4606 5 11.3122 5 10.6784C5 10.3209 5.13886 10 5.82498 10H8.23051C8.8472 10 9.08 10.2681 9.31688 10.9303C10.4931 14.3428 12.478 17.3247 13.2948 17.3247C13.6011 17.3247 13.74 17.1825 13.74 16.4106V12.8844C13.6844 11.8796 13.3321 11.4448 13.0713 11.123C12.9104 10.9243 12.7842 10.7686 12.7842 10.5484C12.7842 10.2844 13.013 10 13.3969 10H17.1787C17.6851 10 17.8567 10.2722 17.8567 10.8816V15.6225C17.8567 16.1303 18.0895 16.3091 18.2406 16.3091C18.5469 16.3091 18.8042 16.1303 19.3637 15.5738C21.0954 13.6481 22.3206 10.6784 22.3206 10.6784C22.4717 10.3209 22.7535 10 23.3661 10H25.7716Z" fill="white"/>
</svg>
