<?xml version="1.0" encoding="utf-8"?><svg viewBox="0 0 408 92" xmlns="http://www.w3.org/2000/svg" xmlns:xlink="http://www.w3.org/1999/xlink"><style>:root>svg{display:none}:root>svg:target{display:block}</style><svg viewBox="0 0 32 31" id="discord" xmlns="http://www.w3.org/2000/svg"><path fill-rule="evenodd" clip-rule="evenodd" d="M15.5 0C6.94 0 0 6.94 0 15.5 0 24.06 6.94 31 15.5 31h1C25.06 31 32 24.06 32 15.5 32 6.94 25.06 0 16.5 0h-1zm8.012 9.035a.054.054 0 01.028.024c2.448 3.378 3.658 7.188 3.205 11.575a.061.061 0 01-.008.026.068.068 0 01-.02.02 18.393 18.393 0 01-5.421 2.567.072.072 0 01-.077-.024 13.425 13.425 0 01-1.106-1.689.062.062 0 01.013-.076.067.067 0 01.024-.014 11.46 11.46 0 001.692-.756.068.068 0 00.024-.022.062.062 0 00-.018-.086 8.594 8.594 0 01-.337-.247.07.07 0 00-.071-.009c-3.506 1.52-7.346 1.52-10.894 0a.07.07 0 00-.07.01 9.275 9.275 0 01-.336.246.066.066 0 00-.021.025.062.062 0 00.004.061.07.07 0 00.024.022c.541.294 1.107.547 1.69.756a.065.065 0 01.04.037.062.062 0 01-.003.053 11.93 11.93 0 01-1.106 1.69.07.07 0 01-.034.023.074.074 0 01-.042 0 18.452 18.452 0 01-5.413-2.567.07.07 0 01-.028-.047c-.378-3.794.392-7.636 3.202-11.575a.062.062 0 01.03-.023 18.696 18.696 0 014.412-1.284.074.074 0 01.04.006.068.068 0 01.03.026c.207.343.394.696.559 1.058a17.581 17.581 0 014.956 0 11.4 11.4 0 01.549-1.058.065.065 0 01.03-.027.07.07 0 01.04-.005c1.525.247 3.008.679 4.413 1.284zm-13.055 7.238c0 1.13.88 2.05 1.948 2.05 1.085 0 1.948-.92 1.948-2.05.018-1.122-.854-2.05-1.948-2.05-1.085 0-1.948.92-1.948 2.05zm7.203 0c0 1.13.88 2.05 1.948 2.05 1.094 0 1.948-.92 1.948-2.05.017-1.122-.854-2.05-1.948-2.05-1.085 0-1.948.92-1.948 2.05z"/></svg><svg viewBox="0 0 32 31" id="github" xmlns="http://www.w3.org/2000/svg"><path d="M10.703 24.961c0 .128-.148.23-.335.23-.213.02-.361-.082-.361-.23 0-.128.148-.23.335-.23.194-.02.361.083.361.23zm-2.006-.288c-.045.128.084.275.277.314.168.064.361 0 .4-.128.039-.129-.084-.276-.277-.334-.168-.045-.355.02-.4.148zm2.851-.11c-.187.046-.316.167-.296.315.019.128.187.211.38.166.187-.044.316-.166.297-.294-.02-.122-.194-.206-.38-.186zM15.793 0C6.845 0 0 6.75 0 15.64c0 7.11 4.503 13.193 10.935 15.334.826.147 1.117-.36 1.117-.776 0-.397-.02-2.59-.02-3.936 0 0-4.516.962-5.464-1.91 0 0-.736-1.865-1.794-2.346 0 0-1.477-1.006.103-.987 0 0 1.607.128 2.49 1.654 1.414 2.474 3.781 1.763 4.704 1.34.148-1.026.568-1.738 1.032-2.16-3.606-.398-7.245-.917-7.245-7.084 0-1.763.49-2.647 1.523-3.776-.168-.416-.716-2.134.167-4.352C8.897 6.224 12 8.37 12 8.37a15.252 15.252 0 014.052-.544c1.374 0 2.76.186 4.051.545 0 0 3.103-2.154 4.452-1.731.884 2.224.335 3.936.168 4.352 1.032 1.135 1.664 2.02 1.664 3.776 0 6.186-3.8 6.68-7.406 7.083.593.507 1.096 1.468 1.096 2.974 0 2.16-.019 4.834-.019 5.36 0 .416.297.922 1.116.775C27.626 28.833 32 22.75 32 15.641 32 6.75 24.742 0 15.794 0zM6.271 22.109c-.084.064-.065.211.045.333.103.102.252.147.336.064.083-.064.064-.212-.046-.333-.103-.103-.251-.148-.335-.064zm-.697-.52c-.045.084.02.186.149.25.103.065.232.045.277-.044.045-.084-.02-.186-.148-.25-.13-.039-.233-.02-.278.044zm2.09 2.282c-.103.084-.064.276.084.398.149.147.336.167.42.064.084-.083.045-.276-.084-.397-.142-.148-.336-.167-.42-.065zm-.735-.942c-.103.064-.103.23 0 .378s.277.212.361.148c.104-.084.104-.25 0-.398-.09-.147-.258-.211-.361-.128z"/></svg><svg viewBox="0 0 32 31" id="instagram" xmlns="http://www.w3.org/2000/svg"><path fill-rule="evenodd" clip-rule="evenodd" d="M15.5 0C6.94 0 0 6.94 0 15.5 0 24.06 6.94 31 15.5 31h1C25.06 31 32 24.06 32 15.5 32 6.94 25.06 0 16.5 0h-1zm-4.112 15a4.607 4.607 0 014.614-4.615A4.607 4.607 0 0120.616 15a4.607 4.607 0 01-4.614 4.615A4.607 4.607 0 0111.388 15zm1.614 0c0 1.655 1.35 3 3 3s3-1.345 3-3-1.346-3-3-3-3 1.345-3 3zm7.803-3.727a1.076 1.076 0 100-2.153 1.076 1.076 0 000 2.153zm2.678-3.756c1.056 1.053 1.386 2.33 1.454 3.772.084 1.486.084 5.936 0 7.422-.073 1.442-.402 2.72-1.454 3.772-1.052 1.056-2.329 1.386-3.77 1.454-1.486.084-5.94.084-7.426 0-1.441-.073-2.714-.402-3.77-1.454-1.056-1.053-1.385-2.33-1.454-3.772-.084-1.486-.084-5.94 0-7.426.073-1.442.398-2.72 1.454-3.772 1.056-1.052 2.333-1.381 3.77-1.45 1.486-.084 5.94-.084 7.425 0 1.442.073 2.719.402 3.771 1.454zm-2.176 14.5a3.037 3.037 0 001.71-1.711c.403-1.013.38-3.229.366-4.665-.002-.238-.004-.455-.004-.641s.002-.403.004-.641c.015-1.436.037-3.649-.366-4.665a3.037 3.037 0 00-1.71-1.71c-1.016-.402-3.242-.38-4.677-.367a50.35 50.35 0 01-.628.005c-.186 0-.403-.003-.641-.005-1.435-.014-3.648-.037-4.664.366a3.037 3.037 0 00-1.71 1.711c-.401 1.016-.38 3.242-.366 4.678.002.233.004.445.004.628 0 .186-.002.403-.004.641-.015 1.436-.037 3.649.366 4.665a3.037 3.037 0 001.71 1.71c1.016.402 3.242.38 4.677.367.233-.003.445-.005.628-.005.186 0 .403.003.641.005 1.435.015 3.648.037 4.664-.366z"/></svg><svg viewBox="0 0 256 75" id="logo1" xmlns="http://www.w3.org/2000/svg"><path d="M12.272 71.152c-.763 0-1.555-.323-2.376-.968-.821-.704-1.555-1.79-2.2-3.256a146.161 146.161 0 00-3.168-7.568 430.864 430.864 0 00-3.432-7.568 6.616 6.616 0 01-.44-1.144 4.786 4.786 0 01-.176-1.32c0-.235.587-.997 1.76-2.288 1.173-1.35 2.699-2.933 4.576-4.752a112.158 112.158 0 016.16-5.368c2.17-1.76 4.283-3.227 6.336-4.4 2.053-1.173 3.813-1.76 5.28-1.76 1.525 0 2.523.704 2.992 2.112.117.235.176.44.176.616v.616c0 1.701-.85 3.11-2.552 4.224a77.945 77.945 0 00-6.776 4.752 126.479 126.479 0 01-6.6 4.84c-.235.117-.41.176-.528.176-.528 0-.792-.293-.792-.88 0-.352.117-.616.352-.792 2.23-1.525 4.43-3.11 6.6-4.752a94.187 94.187 0 016.776-4.84c.645-.41 1.085-.85 1.32-1.32.293-.528.44-.997.44-1.408 0-1.056-.557-1.584-1.672-1.584-.352 0-.792.088-1.32.264-.88.352-2.17 1.085-3.872 2.2-1.643 1.056-3.432 2.317-5.368 3.784a106.52 106.52 0 00-5.544 4.312c-1.76 1.467-3.197 2.757-4.312 3.872-1.115 1.115-1.672 1.907-1.672 2.376 0 .645.176 1.29.528 1.936.352.587.645 1.173.88 1.76.997 2.23 1.995 4.488 2.992 6.776.997 2.23 1.907 4.37 2.728 6.424.47 1.115.968 1.936 1.496 2.464.528.47 1.027.704 1.496.704.47 0 .88-.205 1.232-.616.352-.47.528-1.056.528-1.76 0-.528-.088-1.056-.264-1.584-.176-.587-.587-1.555-1.232-2.904a598.726 598.726 0 00-1.936-4.4c-.704-1.643-1.35-3.11-1.936-4.4-.059-.059-.088-.176-.088-.352 0-.587.323-.88.968-.88.293 0 .528.176.704.528a598.39 598.39 0 001.936 4.4c.763 1.584 1.437 3.05 2.024 4.4.587 1.35.997 2.347 1.232 2.992.293.88.44 1.584.44 2.112 0 1.232-.381 2.259-1.144 3.08-.704.763-1.555 1.144-2.552 1.144zm36.892 2.112c-3.461 0-6.19-1.232-8.184-3.696-1.936-2.523-2.904-5.632-2.904-9.328 0-2.464.44-5.104 1.32-7.92.939-2.816 2.317-5.661 4.136-8.536a86.616 86.616 0 014.752-6.688 138.316 138.316 0 004.752-6.424c1.525-2.112 2.757-4.253 3.696-6.424.939-2.23 1.408-4.517 1.408-6.864 0-2.699-.763-4.81-2.288-6.336-1.467-1.525-3.227-2.288-5.28-2.288-2.347 0-4.459.763-6.336 2.288-1.819 1.467-3.373 3.432-4.664 5.896-1.29 2.405-2.288 5.016-2.992 7.832-.645 2.757-.968 5.427-.968 8.008 0 1.643.147 3.285.44 4.928.352 1.584.91 3.227 1.672 4.928.117.293.235.616.352.968.176.352.264.704.264 1.056 0 .645-.205 1.144-.616 1.496-.41.293-.939.44-1.584.44-1.29 0-2.493-.499-3.608-1.496a9.63 9.63 0 01-2.464-3.784 30.264 30.264 0 01-1.232-4.928 39.92 39.92 0 01-.352-5.28c0-3.93.499-7.715 1.496-11.352 1.056-3.637 2.552-6.893 4.488-9.768 1.936-2.875 4.283-5.133 7.04-6.776C44.324 1.515 47.492.664 51.012.664c2.699 0 5.192.645 7.48 1.936 2.347 1.232 4.224 3.11 5.632 5.632 1.467 2.464 2.2 5.515 2.2 9.152 0 2.757-.205 4.987-.616 6.688-.352 1.701-.91 3.227-1.672 4.576-.763 1.29-1.76 2.699-2.992 4.224-1.173 1.525-2.581 3.49-4.224 5.896-1.584 2.347-3.432 5.485-5.544 9.416-1.115 2.17-1.965 4.224-2.552 6.16-.587 1.877-.88 3.55-.88 5.016 0 1.232.264 2.317.792 3.256.528.939 1.379 1.408 2.552 1.408.88 0 1.965-.293 3.256-.88 1.35-.587 2.933-1.555 4.752-2.904 3.93-2.933 7.304-6.248 10.12-9.944a85.379 85.379 0 007.656-11.704 836.95 836.95 0 006.776-12.408c.821-1.525 1.672-2.61 2.552-3.256.939-.645 1.79-.968 2.552-.968 1.056 0 1.936.44 2.64 1.32.704.821 1.056 1.73 1.056 2.728 0 .41-.088.85-.264 1.32-.176.352-.44.528-.792.528-.235 0-.47-.117-.704-.352-.235-.235-.264-.528-.088-.88.235-.528.147-1.115-.264-1.76-.352-.704-.88-1.056-1.584-1.056-.47 0-1.027.235-1.672.704-.587.47-1.203 1.32-1.848 2.552a645.203 645.203 0 01-6.952 12.672 93.795 93.795 0 01-7.744 11.88c-2.875 3.696-6.336 7.04-10.384 10.032-3.755 2.757-6.835 4.136-9.24 4.136-1.819 0-3.11-.675-3.872-2.024-.704-1.35-1.056-2.845-1.056-4.488 0-2.053.41-4.195 1.232-6.424a47.392 47.392 0 013.08-6.512c1.232-2.112 2.347-3.872 3.344-5.28a486.745 486.745 0 005.28-7.568 40.311 40.311 0 004.048-7.48c1.056-2.581 1.584-5.427 1.584-8.536 0-3.285-.645-6.043-1.936-8.272-1.232-2.23-2.875-3.901-4.928-5.016-2.053-1.173-4.312-1.76-6.776-1.76-3.344 0-6.307.792-8.888 2.376C39.6 6.384 37.46 8.555 35.7 11.312c-1.76 2.699-3.11 5.75-4.048 9.152a42.006 42.006 0 00-1.32 10.56c0 1.701.088 3.432.264 5.192.235 1.701.616 3.227 1.144 4.576.645 1.584 1.35 2.67 2.112 3.256.763.587 1.496.88 2.2.88.41 0 .616-.147.616-.44 0-.293-.264-.968-.792-2.024-.528-1.115-.88-1.965-1.056-2.552a24.362 24.362 0 01-.704-3.256 37.183 37.183 0 01-.176-3.696c0-2.816.352-5.72 1.056-8.712.704-3.05 1.76-5.867 3.168-8.448 1.408-2.64 3.139-4.752 5.192-6.336C45.468 7.821 47.873 7 50.572 7c2.64 0 4.87.939 6.688 2.816 1.819 1.877 2.728 4.4 2.728 7.568 0 2.464-.499 4.87-1.496 7.216-.997 2.288-2.259 4.547-3.784 6.776a147.796 147.796 0 01-4.928 6.6 86.616 86.616 0 00-4.752 6.688c-1.819 2.816-3.139 5.544-3.96 8.184-.821 2.64-1.232 5.075-1.232 7.304 0 3.344.821 6.072 2.464 8.184 1.701 2.112 3.99 3.168 6.864 3.168 2.757 0 6.072-1.115 9.944-3.344 3.872-2.23 8.213-6.043 13.024-11.44a.844.844 0 01.616-.264c.352 0 .616.176.792.528.235.293.205.616-.088.968-4.81 5.339-9.299 9.24-13.464 11.704-4.107 2.405-7.715 3.608-10.824 3.608zm32.384.88c-1.936 0-3.579-.44-4.928-1.32a10.985 10.985 0 01-3.256-3.52c-.821-1.408-1.408-2.845-1.76-4.312-.293-1.525-.381-2.904-.264-4.136.117-.528.41-.792.88-.792.587 0 .88.264.88.792 0 .235-.03.44-.088.616v.616c0 1.467.323 3.021.968 4.664a10.954 10.954 0 002.816 4.048c1.29 1.056 2.875 1.584 4.752 1.584 3.696 0 7.304-.939 10.824-2.816 3.579-1.877 6.893-4.4 9.944-7.568 3.051-3.168 5.72-6.717 8.008-10.648 2.347-3.99 4.165-8.096 5.456-12.32 1.349-4.283 2.024-8.39 2.024-12.32 0-3.872-.821-7.45-2.464-10.736-1.584-3.285-4.283-5.925-8.096-7.92-.528-.293-1.144-.205-1.848.264-.704.47-1.056.968-1.056 1.496 0 .47.293.821.88 1.056 2.933 1.115 4.987 2.904 6.16 5.368 1.232 2.464 1.848 5.25 1.848 8.36 0 3.461-.587 7.128-1.76 11-1.173 3.813-2.728 7.597-4.664 11.352-1.877 3.696-3.96 7.07-6.248 10.12a37.254 37.254 0 01-5.016 5.544c-1.877 1.701-3.813 3.08-5.808 4.136-1.995 1.056-3.901 1.584-5.72 1.584-1.877 0-3.256-.675-4.136-2.024-.88-1.35-1.32-3.168-1.32-5.456 0-2.17.323-4.547.968-7.128a69.22 69.22 0 012.728-8.096 123.68 123.68 0 013.52-7.92 234.639 234.639 0 013.608-6.952c.176-.293.44-.44.792-.44.293 0 .557.147.792.44.235.235.235.528 0 .88a319.85 319.85 0 00-3.608 6.864 105.165 105.165 0 00-3.432 7.832 75.578 75.578 0 00-2.64 7.744c-.645 2.523-.968 4.781-.968 6.776s.293 3.432.88 4.312c.645.88 1.437 1.35 2.376 1.408 1.525.117 3.197-.264 5.016-1.144 1.877-.939 3.725-2.23 5.544-3.872a32.227 32.227 0 005.016-5.544 74.267 74.267 0 006.16-9.944c1.877-3.579 3.373-7.187 4.488-10.824 1.115-3.696 1.672-7.187 1.672-10.472 0-2.875-.528-5.397-1.584-7.568-1.056-2.17-2.845-3.755-5.368-4.752-1.349-.528-2.024-1.379-2.024-2.552 0-.939.411-1.819 1.232-2.64.821-.821 1.76-1.232 2.816-1.232.469 0 .997.147 1.584.44 4.165 2.17 7.099 5.075 8.8 8.712 1.76 3.579 2.64 7.45 2.64 11.616 0 4.224-.704 8.565-2.112 13.024-1.349 4.4-3.256 8.653-5.72 12.76-2.405 4.107-5.221 7.773-8.448 11-3.227 3.227-6.688 5.808-10.384 7.744-3.696 1.877-7.48 2.816-11.352 2.816zm45.6-14.696c-1.056 0-1.965-.235-2.728-.704-.352-.176-.528-.41-.528-.704 0-.293.118-.528.352-.704.294-.235.616-.264.968-.088.704.293 1.35.44 1.936.44 1.232 0 2.582-.352 4.048-1.056a21.683 21.683 0 004.224-2.904c1.35-1.173 2.435-2.435 3.256-3.784.88-1.35 1.32-2.64 1.32-3.872 0-2.405-1.232-3.608-3.696-3.608-2.757 0-5.338.733-7.744 2.2-2.346 1.408-4.517 3.197-6.512 5.368a58.788 58.788 0 00-5.192 6.512c-.176.293-.41.44-.704.44-.293 0-.528-.147-.704-.44-.234-.293-.234-.616 0-.968 1.526-2.23 3.315-4.488 5.368-6.776a29.417 29.417 0 016.952-5.72c2.64-1.584 5.486-2.376 8.536-2.376 1.584 0 2.875.47 3.872 1.408 1.056.939 1.584 2.259 1.584 3.96 0 1.584-.498 3.168-1.496 4.752-.938 1.525-2.17 2.963-3.696 4.312a20.946 20.946 0 01-4.752 3.168c-1.701.763-3.256 1.144-4.664 1.144zm-2.024 8.184a8.31 8.31 0 01-4.4-1.232c-1.29-.821-1.936-2.23-1.936-4.224 0-1.643.587-3.403 1.76-5.28 1.232-1.877 2.728-3.667 4.488-5.368 1.819-1.76 3.667-3.285 5.544-4.576 1.878-1.29 3.491-2.141 4.84-2.552h.088c.059-.059.118-.088.176-.088.587 0 .88.323.88.968 0 .352-.205.616-.616.792-1.29.41-2.816 1.232-4.576 2.464-1.701 1.232-3.402 2.67-5.104 4.312-1.642 1.584-3.021 3.197-4.136 4.84-1.056 1.643-1.584 3.139-1.584 4.488 0 1.29.411 2.23 1.232 2.816.88.587 1.995.88 3.344.88 3.462 0 6.952-.91 10.472-2.728 3.579-1.877 6.63-4.459 9.152-7.744.176-.235.382-.352.616-.352.352 0 .616.176.792.528.235.293.206.616-.088.968a29.3 29.3 0 01-9.68 8.096c-3.754 1.995-7.509 2.992-11.264 2.992zm-.44 5.28c-1.525 0-3.08-.235-4.664-.704-1.584-.47-2.904-1.232-3.96-2.288-1.114-1.115-1.672-2.581-1.672-4.4 0-.645.294-.968.88-.968.587 0 .88.323.88.968 0 1.115.206 1.995.616 2.64.47.645 1.262 1.232 2.376 1.76.88.41 1.819.733 2.816.968 1.056.176 1.966.264 2.728.264 2.171 0 4.283-.41 6.336-1.232a25.234 25.234 0 005.808-3.168c.118-.117.294-.176.528-.176.587 0 .88.293.88.88a.835.835 0 01-.352.704 25.76 25.76 0 01-6.248 3.432 18.764 18.764 0 01-6.952 1.32zm20.683-15.928c-.293 0-.528-.176-.704-.528-.234-.352-.234-.675 0-.968 1.467-1.643 3.198-3.696 5.192-6.16a445.355 445.355 0 016.688-8.008 207.1 207.1 0 017.656-8.448c2.64-2.816 5.31-5.368 8.008-7.656 2.699-2.288 5.339-4.107 7.92-5.456 2.64-1.408 5.134-2.112 7.48-2.112.704 0 1.555.147 2.552.44a7.255 7.255 0 012.816 1.496c.822.645 1.232 1.555 1.232 2.728 0 1.056-.293 1.819-.88 2.288-.586.41-1.29.675-2.112.792-.821.117-1.613.176-2.376.176-1.76 0-3.578.47-5.456 1.408-1.877.88-3.696 2.024-5.456 3.432a45.577 45.577 0 00-4.928 4.576c-1.525 1.584-2.816 3.08-3.872 4.488a.835.835 0 01-.704.352c-.293 0-.557-.147-.792-.44-.176-.293-.146-.616.088-.968 1.056-1.408 2.347-2.933 3.872-4.576a51.176 51.176 0 015.192-4.84c1.936-1.525 3.931-2.757 5.984-3.696 2.054-.997 4.078-1.496 6.072-1.496.528 0 1.262-.03 2.2-.088.939-.117 1.408-.587 1.408-1.408s-.557-1.496-1.672-2.024c-1.056-.587-2.112-.88-3.168-.88-2.17 0-4.517.704-7.04 2.112-2.464 1.35-5.016 3.168-7.656 5.456-2.64 2.288-5.28 4.81-7.92 7.568a247.414 247.414 0 00-7.48 8.36 809.589 809.589 0 00-6.512 7.744 284.454 284.454 0 01-4.928 5.984.835.835 0 01-.704.352zm7.568 15.928c-1.408 0-2.845-.235-4.312-.704-1.466-.47-2.669-1.232-3.608-2.288-.997-1.056-1.496-2.464-1.496-4.224 0-.704.264-1.056.792-1.056.646 0 .968.381.968 1.144 0 1.35.411 2.435 1.232 3.256.822.763 1.819 1.32 2.992 1.672 1.232.293 2.376.44 3.432.44 2.758 0 5.456-.557 8.096-1.672a26.09 26.09 0 007.304-4.752c2.171-1.995 3.902-4.253 5.192-6.776 1.291-2.581 1.936-5.28 1.936-8.096 0-2.112-.586-3.872-1.76-5.28-1.173-1.408-2.816-2.112-4.928-2.112-1.408 0-2.816.293-4.224.88a22.976 22.976 0 00-3.96 2.024c-.234.117-.41.176-.528.176-.528 0-.792-.293-.792-.88 0-.293.118-.528.352-.704a27.504 27.504 0 014.312-2.288 12.727 12.727 0 014.84-.968c2.758 0 4.84.91 6.248 2.728 1.467 1.819 2.2 3.96 2.2 6.424 0 3.05-.704 5.984-2.112 8.8-1.408 2.757-3.285 5.221-5.632 7.392a27.026 27.026 0 01-7.744 5.016c-2.874 1.232-5.808 1.848-8.8 1.848zm1.496-4.576c-2.698 0-4.664-.939-5.896-2.816-1.173-1.877-1.701-3.99-1.584-6.336 0-.528.294-.792.88-.792.235 0 .44.088.616.264.235.117.323.323.264.616-.058 1.877.323 3.579 1.144 5.104.88 1.467 2.406 2.2 4.576 2.2 1.584 0 3.227-.557 4.928-1.672 1.76-1.173 3.374-2.64 4.84-4.4 1.467-1.76 2.67-3.579 3.608-5.456.939-1.936 1.408-3.637 1.408-5.104 0-1.76-.821-2.64-2.464-2.64-1.349 0-2.816.499-4.4 1.496-1.584.997-3.08 2.288-4.488 3.872-1.408 1.525-2.522 3.139-3.344 4.84-.821 1.701-1.144 3.256-.968 4.664v.088c0 .587-.293.88-.88.88-.586 0-.88-.264-.88-.792-.176-1.643.176-3.432 1.056-5.368.939-1.936 2.171-3.755 3.696-5.456 1.584-1.76 3.256-3.197 5.016-4.312 1.819-1.115 3.55-1.672 5.192-1.672 1.35 0 2.376.41 3.08 1.232.763.821 1.144 1.877 1.144 3.168 0 1.643-.498 3.52-1.496 5.632-.997 2.053-2.317 4.077-3.96 6.072-1.584 1.936-3.344 3.55-5.28 4.84-1.936 1.232-3.872 1.848-5.808 1.848zm30.139 3.872c-.294 0-.558-.176-.792-.528-.176-.352-.118-.675.176-.968a577.15 577.15 0 016.072-6.864c2.581-2.875 5.426-6.043 8.536-9.504 3.168-3.461 6.424-7.04 9.768-10.736 3.344-3.696 6.629-7.333 9.856-10.912 3.226-3.579 6.218-6.864 8.976-9.856a1302.31 1302.31 0 006.952-7.744c1.936-2.112 3.226-3.55 3.872-4.312.762-.88 1.584-1.496 2.464-1.848.88-.41 1.701-.616 2.464-.616 1.114 0 2.053.323 2.816.968.762.587 1.144 1.379 1.144 2.376 0 1.056-.499 2.17-1.496 3.344-1.115 1.29-2.728 3.08-4.84 5.368-2.054 2.288-4.43 4.928-7.128 7.92a915.439 915.439 0 00-8.536 9.416c-2.992 3.285-6.014 6.6-9.064 9.944a2737.02 2737.02 0 00-8.712 9.592 860.757 860.757 0 00-7.392 8.272 636.934 636.934 0 00-5.192 5.808c-.176.235-.382.352-.616.352-.294 0-.558-.176-.792-.528-.235-.352-.206-.704.088-1.056a636.934 636.934 0 015.192-5.808c2.17-2.405 4.634-5.133 7.392-8.184a2737.02 2737.02 0 018.712-9.592c3.05-3.344 6.072-6.659 9.064-9.944a915.439 915.439 0 018.536-9.416c2.698-2.992 5.074-5.632 7.128-7.92 2.112-2.288 3.725-4.077 4.84-5.368.704-.88 1.056-1.613 1.056-2.2 0-1.056-.704-1.584-2.112-1.584-.587 0-1.203.147-1.848.44-.646.293-1.262.763-1.848 1.408-.646.763-1.936 2.2-3.872 4.312a1324.843 1324.843 0 01-6.952 7.744c-2.758 2.992-5.75 6.277-8.976 9.856a8786.967 8786.967 0 01-9.856 10.912c-3.344 3.696-6.6 7.275-9.768 10.736-3.11 3.461-5.955 6.63-8.536 9.504a577.15 577.15 0 00-6.072 6.864.837.837 0 01-.704.352zm49.414.792c-1.173 0-2.053-.557-2.64-1.672-.293-.587-.44-1.173-.44-1.76 0-1.525.616-2.845 1.848-3.96a110.258 110.258 0 005.896-5.808 182.287 182.287 0 015.632-5.896.844.844 0 01.616-.264c.293 0 .528.176.704.528.235.293.205.616-.088.968a182.287 182.287 0 00-5.632 5.896 139.668 139.668 0 01-5.896 5.896c-.88.763-1.32 1.613-1.32 2.552 0 1.115.528 1.672 1.584 1.672.469 0 .997-.176 1.584-.528.821-.528 1.965-1.467 3.432-2.816a87.22 87.22 0 004.664-4.664 124.14 124.14 0 004.752-5.192c1.467-1.76 2.64-3.285 3.52-4.576.939-1.29 1.379-2.141 1.32-2.552-.117-.645-.411-1.261-.88-1.848a65.95 65.95 0 01-1.232-1.584 374.639 374.639 0 00-4.136-6.16 308.154 308.154 0 01-3.784-5.896c-1.115-1.76-2.2-2.64-3.256-2.64-1.115 0-1.672.704-1.672 2.112 0 .763.205 1.467.616 2.112.352.528.909 1.408 1.672 2.64a536.024 536.024 0 002.728 4.048 170.697 170.697 0 012.728 3.96c.117.235.176.41.176.528 0 .528-.293.792-.88.792-.352 0-.616-.117-.792-.352a170.697 170.697 0 00-2.728-3.96 536.024 536.024 0 01-2.728-4.048c-.763-1.29-1.32-2.2-1.672-2.728-.587-.997-.88-1.965-.88-2.904 0-1.115.323-2.024.968-2.728.704-.763 1.525-1.144 2.464-1.144.763 0 1.555.264 2.376.792s1.613 1.408 2.376 2.64a283.315 283.315 0 004.488 6.952c1.525 2.23 3.08 4.488 4.664 6.776.528.645.88 1.408 1.056 2.288.059.235-.264.939-.968 2.112s-1.672 2.61-2.904 4.312a85.96 85.96 0 01-4.048 5.368 65.373 65.373 0 01-4.664 5.192c-1.584 1.643-3.139 2.992-4.664 4.048-1.467.997-2.787 1.496-3.96 1.496z"/><defs><linearGradient id="da" x1="128" y1="-20" x2="128" y2="80" gradientUnits="userSpaceOnUse"><stop offset=".297" stop-color="#BB3AF4"/><stop offset=".745" stop-color="#1EB3F6"/></linearGradient></defs></svg><svg viewBox="0 0 376 81" id="logo2" xmlns="http://www.w3.org/2000/svg"><path d="M52.688 45.66v3.309L28.28 39.344l4.34-1.633 20.066 7.95zm0 6.617v3.352l-32.915-13.02 4.254-1.632 28.66 11.3zm0 6.703v3.31l-41.08-16.244 3.954-1.762L52.686 58.98zm0-48.34v3.31L.093 34.79v-3.31l52.593-20.84zm0-6.66v3.352L.093 28.129V24.82L52.687 3.98zm0 13.32v3.352L.093 41.45v-3.308L52.687 17.3zm0 6.66v3.31L4.261 46.434l48.425 19.164v3.308L.094 48.11v-3.351L52.687 23.96zm27.713 26.17l-1.46 6.102L64.245.843h3.18l12.976 49.285zm3.223-11.902l-1.59 5.93L70.648.843h3.137l9.84 37.383zm3.223-12.332l-1.633 6.015L77.008.844h3.223l6.617 25.05zM99.094 72H95.87L114.691.93l-.043-.086h3.266V.93l8.379 28.875L133.984.844h3.223L118.344 72h-3.223l-8.422-28.832L99.094 72zm-6.446 0h-3.18L108.29.844h3.18L92.649 72zm-6.402 0h-3.18L101.93.844h3.136L86.246 72zm51.348 0h-3.223L153.191.844h3.223L137.594 72zm-6.446 0h-3.179L146.789.844h3.18L131.148 72zm-6.402 0h-3.18L140.43.844h3.136L124.746 72zm-46.492-6.102L95.484.844h3.223L79.844 72H76.62L57.801.844h3.222l17.23 65.054zm30.078-28.789l8.336 29.047 1.633-6.144-8.379-28.961-1.59 6.058zm3.18-12.117l8.379 28.961 1.632-6.059-8.378-29.003-1.633 6.101zm3.179-12.031l8.422 28.96 1.59-6.1-8.336-29.048-1.676 6.188zM177.77 72h-3.094V10.125h3.094V72zm-6.188 0h-3.094V10.125h3.094V72zm-6.187 0h-3.094V10.125h3.094V72zm18.562-15.469h29.605v3.094h-29.605v3.094h29.605v3.093h-29.605v3.094h29.605V72h-32.699V10.125h32.699v3.094h-29.605v3.094h29.605v3.093h-29.605V22.5h29.605v3.094h-29.605v7.691h27.887v3.094h-27.887v3.094h27.887v3.093h-27.887v3.094h27.887v3.094h-27.887v7.777zm85.508-15.812l-.086-.043c3.237-3.151 4.855-6.99 4.855-11.516 0-4.297-1.604-8.02-4.812-11.172-3.18-3.18-6.947-4.77-11.301-4.77H224.09V72h-3.094V10.125h37.125c3.38 0 6.546.874 9.496 2.621 2.979 1.719 5.343 4.053 7.09 7.004 1.747 2.922 2.621 6.059 2.621 9.41 0 4.583-1.232 8.522-3.695 11.817 2.463 3.408 3.695 7.161 3.695 11.257 0 3.925-.888 7.391-2.664 10.399-1.776 2.979-4.111 5.228-7.004 6.746-2.864 1.518-6.044 2.277-9.539 2.277H238.57v-3.094h19.551c4.412 0 8.193-1.56 11.344-4.683 3.18-3.151 4.769-7.033 4.769-11.645 0-2.12-.458-4.21-1.375-6.273-.916-2.063-2.062-3.796-3.437-5.2 0-.028.014-.042.043-.042zm-11.344 15.468H238.57v3.094h19.551c1.891 0 3.495-.63 4.813-1.89 1.346-1.29 2.019-3.008 2.019-5.157 0-1.862-.687-3.494-2.062-4.898-1.375-1.432-2.965-2.148-4.77-2.148h-19.594v3.093h19.594c.974 0 1.833.401 2.578 1.203.774.802 1.16 1.72 1.16 2.75 0 1.26-.358 2.235-1.074 2.922-.716.688-1.604 1.032-2.664 1.032zm0 6.188H238.57v3.094h19.551c3.552 0 6.603-1.26 9.152-3.781 2.579-2.55 3.868-5.701 3.868-9.454 0-2.377-.645-4.612-1.934-6.703-1.26-2.12-2.936-3.752-5.027-4.898a12.842 12.842 0 005.027-4.64c1.289-2.035 1.934-4.312 1.934-6.833 0-3.437-1.304-6.43-3.911-8.98-2.578-2.578-5.614-3.867-9.109-3.867h-30.937V72h3.093V19.406h27.844c2.636 0 4.941.989 6.918 2.965 2.005 1.948 3.008 4.211 3.008 6.79 0 2.864-.974 5.227-2.922 7.089-1.948 1.833-4.283 2.75-7.004 2.75H238.57v3.094h19.551c2.636 0 4.941 1.017 6.918 3.05 2.005 2.034 3.008 4.398 3.008 7.09 0 2.98-.974 5.414-2.922 7.305-1.948 1.89-4.283 2.836-7.004 2.836zm0-29.563H238.57v3.094h19.551c1.919 0 3.538-.601 4.856-1.804 1.317-1.232 1.976-2.88 1.976-4.942 0-1.747-.687-3.294-2.062-4.64-1.375-1.347-2.965-2.02-4.77-2.02h-24.75V72h3.094V25.594h21.656c.974 0 1.833.372 2.578 1.117.774.716 1.16 1.533 1.16 2.45 0 1.174-.358 2.076-1.074 2.706-.716.63-1.604.945-2.664.945zM314.84.887h3.18l-19.938 79.449h-3.18L314.84.886zm-6.445 0h3.222L291.68 80.336h-3.18L308.395.886zm-6.446 0h3.223l-19.895 79.449h-3.222L301.949.886zm21.356 48.039v-3.309l48.425-19.164L323.305 7.29V3.98l52.593 20.797v3.352l-52.593 20.797zm0 6.66v-3.352l52.593-20.797v3.31l-52.593 20.839zm0 13.32v-3.351l52.593-20.797v3.308l-52.593 20.84zm0-6.66v-3.309l52.593-20.84v3.31l-52.593 20.84zm0-48.34v-3.308l41.078 16.242-3.953 1.762-37.125-14.696zm0 6.703v-3.351l32.914 13.02-4.254 1.632-28.66-11.3zm0 6.618v-3.309l24.406 9.625-4.34 1.633-20.066-7.95z"/><defs><linearGradient id="ea" x1="189" y1="-30" x2="189" y2="82" gradientUnits="userSpaceOnUse"><stop offset=".297" stop-color="#BB3AF4"/><stop offset=".745" stop-color="#1EB3F6"/></linearGradient></defs></svg><svg viewBox="0 0 328 69" id="logo3" xmlns="http://www.w3.org/2000/svg"><path d="M2.984 42.208C1.634 41.621.96 40.653.96 39.304c0-.645.176-1.203.528-1.672.352-.528.85-.939 1.496-1.232l46.464-21.648c.88 1.408 1.32 2.787 1.32 4.136 0 1.056-.264 1.995-.792 2.816-.528.821-1.32 1.437-2.376 1.848L12.4 39.304l35.112 15.752c.997.41 1.76 1.056 2.288 1.936.528.88.792 1.877.792 2.992 0 1.467-.381 2.787-1.144 3.96L2.984 42.208zM81.15 65.792c-2.112 0-3.843-.499-5.192-1.496-1.35-1.056-2.259-2.523-2.728-4.4L58.71 3.4c.88-.528 1.995-.792 3.344-.792 1.701 0 3.139.44 4.312 1.32 1.173.821 1.936 1.965 2.288 3.432l9.592 41.712-1.408 5.192.528.176L91.534 5.336c.235-.88.675-1.555 1.32-2.024.704-.47 1.525-.704 2.464-.704.88 0 1.672.235 2.376.704.704.47 1.173 1.144 1.408 2.024l12.232 44.088-1.232 5.368.528.176L121.982 7.36c.352-1.467 1.085-2.61 2.2-3.432 1.173-.88 2.581-1.32 4.224-1.32 1.349 0 2.523.264 3.52.792l-14.52 56.496c-.469 1.877-1.408 3.344-2.816 4.4-1.349.997-3.08 1.496-5.192 1.496L94.35 12.552l-.528.176 1.144 4.136L81.15 65.792zm72.815 0c-3.578 0-6.776-.675-9.592-2.024-2.816-1.408-5.016-3.315-6.6-5.72-1.584-2.464-2.376-5.221-2.376-8.272V36.752c0-3.11.822-5.925 2.464-8.448 1.702-2.523 3.96-4.488 6.776-5.896 2.875-1.467 5.984-2.2 9.328-2.2 3.344 0 6.395.704 9.152 2.112 2.816 1.408 5.016 3.344 6.6 5.808 1.643 2.464 2.464 5.25 2.464 8.36v5.632c0 .939-.352 1.73-1.056 2.376-.704.645-1.554.968-2.552.968h-25.696v3.96c0 2.992.939 5.397 2.816 7.216 1.936 1.819 4.694 2.728 8.272 2.728 3.579 0 6.307-.792 8.184-2.376 1.878-1.584 2.816-3.725 2.816-6.424 1.76-.117 3.227.235 4.4 1.056 1.232.763 1.848 1.907 1.848 3.432 0 1.877-.821 3.637-2.464 5.28-1.584 1.643-3.696 2.963-6.336 3.96-2.64.997-5.456 1.496-8.448 1.496zm11.088-26.312v-2.992c0-2.933-1.026-5.31-3.08-7.128-1.994-1.877-4.664-2.816-8.008-2.816-3.344 0-6.042.939-8.096 2.816-1.994 1.819-2.992 4.195-2.992 7.128v2.992h22.176zM182.34 8.592c0-3.99 2.581-5.984 7.744-5.984V24.08c-.88.763-1.496 1.408-1.848 1.936l.264.44c1.76-1.877 3.901-3.373 6.424-4.488 2.581-1.173 5.104-1.76 7.568-1.76 5.221 0 9.386 1.379 12.496 4.136 3.109 2.757 4.664 6.453 4.664 11.088V50.48c0 2.933-.734 5.573-2.2 7.92-1.408 2.347-3.403 4.165-5.984 5.456-2.582 1.29-5.515 1.936-8.8 1.936-5.75 0-10.59-2.523-14.52-7.568l-.264.352c.352.528.938 1.261 1.76 2.2 0 1.701-.587 2.963-1.76 3.784-1.174.821-3.022 1.232-5.544 1.232v-57.2zm18.656 50.424c3.578 0 6.306-.763 8.184-2.288 1.936-1.525 2.904-3.725 2.904-6.6V35.784c0-2.757-.968-4.899-2.904-6.424-1.936-1.584-4.635-2.376-8.096-2.376-3.051 0-5.662.821-7.832 2.464-2.171 1.643-3.256 3.608-3.256 5.896v15.224c0 2.405 1.056 4.43 3.168 6.072 2.112 1.584 4.722 2.376 7.832 2.376zM260.546 3.4c.528-1.056 1.232-1.848 2.112-2.376a5.702 5.702 0 013.08-.88c1.467 0 2.934.47 4.4 1.408L238.37 65c-1.114 2.112-2.816 3.168-5.104 3.168-1.525 0-2.992-.499-4.4-1.496L260.546 3.4zm18.797 60.544c-.763-1.173-1.144-2.493-1.144-3.96 0-1.115.264-2.112.792-2.992.528-.88 1.29-1.525 2.288-1.936l35.112-15.752-35.2-15.752c-1.056-.41-1.848-1.027-2.376-1.848-.528-.821-.792-1.76-.792-2.816 0-1.35.44-2.728 1.32-4.136L325.806 36.4c.646.293 1.145.704 1.497 1.232.352.47.528 1.027.528 1.672 0 1.35-.675 2.317-2.025 2.904l-46.463 21.736z"/><defs><linearGradient id="fa" x1="164.5" y1="-27" x2="164.5" y2="68" gradientUnits="userSpaceOnUse"><stop offset=".297" stop-color="#BB3AF4"/><stop offset=".745" stop-color="#1EB3F6"/></linearGradient></defs></svg><svg viewBox="0 0 276 79" id="logo4" xmlns="http://www.w3.org/2000/svg"><path d="M33.016 60.088l-5.368 5.28L.456 43.544l27.192-22.792 5.368 5.28-21.648 17.512 21.648 16.544zm74.902-2.2L94.982 71h-8.536L76.414 60.792 66.47 71h-8.624L44.91 57.888V10.192h8.712v45.232l7.92 8.184h2.376l8.096-8.184V10.192h8.712v45.232l8.096 8.184h2.464l7.92-7.92V10.192h8.712v47.696zM152.645 71h-23.848l-7.568-7.656v-30.36l7.568-7.656h16.28l7.568 7.656v15.224l-7.568 7.568h-14.08l7.744-7.568h5.28V32.984h-14.08v30.36h22.704V71zm44.379-7.656L189.368 71h-15.224v-7.568l-8.712 8.624V9.576l8.712-9.152v30.36l5.456-5.456h9.768l7.656 7.656v30.36zm-8.712 0v-30.36h-14.168v30.36h14.168zm51.334-60.808l-30.008 76.12h-8.008l30.272-76.12h7.744zm24.89 41.008L242.8 26.032l5.28-5.28 27.28 22.792-27.28 21.824-5.28-5.28 21.736-16.544z"/><defs><linearGradient id="ga" x1="138" y1="-11" x2="138" y2="79" gradientUnits="userSpaceOnUse"><stop offset=".297" stop-color="#BB3AF4"/><stop offset=".745" stop-color="#1EB3F6"/></linearGradient></defs></svg><svg viewBox="0 0 345 79" id="logo5" xmlns="http://www.w3.org/2000/svg"><path d="M27.881 57.264l-13.728-3.168a928.793 928.793 0 00-13.64-3.08c3.755-3.99 7.51-7.715 11.264-11.176 3.755-3.461 7.715-6.483 11.88-9.064a59.2 59.2 0 0113.464-6.072c4.752-1.525 10.032-2.288 15.84-2.288v1.496c.059.235.088.44.088.616 0 .293-.146.528-.44.704a5.81 5.81 0 01-.968.352l-1.232.176h-1.672l.088.968c.352 0 .851.088 1.496.264a8.08 8.08 0 012.024.616c.704.235 1.291.528 1.76.88.47.352.704.792.704 1.32 0 .645-.616 1.232-1.848 1.76-1.173.528-2.552.997-4.136 1.408-1.584.352-3.138.675-4.664.968-1.466.235-2.464.44-2.992.616a39.733 39.733 0 00-9.944 4.752 822.527 822.527 0 00-9.152 6.072c2.347.645 4.664 1.32 6.952 2.024l6.864 1.936c.41.117 1.203.293 2.376.528 1.232.235 2.464.528 3.696.88 1.291.293 2.435.645 3.432 1.056.998.41 1.496.821 1.496 1.232 0 .117-.058.293-.176.528-4.4-1.173-8.8-2.259-13.2-3.256-4.4-1.056-8.8-2.23-13.2-3.52l-.088.088c4.4 1.232 8.77 2.405 13.112 3.52a230.74 230.74 0 0113.112 3.608l-.44 1.408c.763.117 1.614.381 2.552.792.998.352 1.496.997 1.496 1.936 0 .704-.44 1.261-1.32 1.672-.88.352-1.584.587-2.112.704a73.814 73.814 0 00-9.504-3.608 139.753 139.753 0 00-10.032-2.64 280.765 280.765 0 00-10.12-2.112 495.884 495.884 0 01-9.944-2.024c3.168.939 6.366 1.79 9.592 2.552 3.227.763 6.454 1.555 9.68 2.376 3.227.763 6.424 1.613 9.592 2.552a93.437 93.437 0 019.416 3.168 9.038 9.038 0 01-2.2.264 17.89 17.89 0 01-3.52-.352 104.411 104.411 0 01-3.432-.968 74.933 74.933 0 01-3.344-1.144 33.227 33.227 0 00-3.432-1.056l-.792-1.056a101.608 101.608 0 01-13.2-2.816 421.814 421.814 0 00-13.024-3.52 367.672 367.672 0 018.536-8.096 226.967 226.967 0 018.888-7.744c-.117 0-.176-.117-.176-.352a85.568 85.568 0 00-9.68 8.008 311.207 311.207 0 00-8.8 8.8 2329.18 2329.18 0 0113.376 3.168 556.974 556.974 0 0113.376 3.344zm-22.88-7.568c.939-.997 1.848-1.995 2.728-2.992a37.099 37.099 0 001.496-1.584l-1.584 1.584c-.997.939-1.994 1.907-2.992 2.904l.352.088zm89.4-.44c.763 2.523 1.526 5.075 2.289 7.656a50.047 50.047 0 002.904 7.216c1.173 2.17 2.61 4.048 4.312 5.632 1.76 1.643 3.96 2.728 6.6 3.256-2.523-.176-4.694-.997-6.512-2.464-1.76-1.467-3.256-3.256-4.488-5.368a35.006 35.006 0 01-2.992-6.952c-.763-2.464-1.32-4.723-1.672-6.776-.176 1.408-.47 2.963-.88 4.664a41.34 41.34 0 01-1.408 5.104 34.422 34.422 0 01-2.112 4.752c-.763 1.467-1.672 2.728-2.728 3.784l-7.48 1.32c-2.523-1.408-4.752-3.403-6.688-5.984-1.878-2.64-3.55-5.603-5.016-8.888-1.408-3.344-2.61-6.893-3.608-10.648a168.197 168.197 0 01-2.376-11.264 154.344 154.344 0 01-1.496-10.648c-.294-3.461-.47-6.483-.528-9.064l2.2-.264c.293.176.528.616.704 1.32.234.645.41 1.379.528 2.2.117.821.205 1.613.264 2.376.058.763.088 1.29.088 1.584l.792-.264c0-.47.03-1.32.088-2.552.058-1.29.205-2.581.44-3.872.234-1.35.557-2.523.968-3.52.47-.997 1.056-1.496 1.76-1.496.352 0 .704.91 1.056 2.728.41 1.819.88 4.195 1.408 7.128.528 2.875 1.114 6.16 1.76 9.856a193.29 193.29 0 002.288 11 138.738 138.738 0 003.168 10.56c1.173 3.344 2.522 6.16 4.048 8.448a130.703 130.703 0 012.024-8.36 323.6 323.6 0 012.552-8.448 355.64 355.64 0 012.112-6.6c.645-1.76 1.026-2.67 1.144-2.728l9.416-.264c.762.528 1.466 1.496 2.112 2.904.645 1.35 1.261 2.933 1.848 4.752a92.105 92.105 0 011.672 5.896 182.527 182.527 0 001.672 6.072 83.684 83.684 0 001.848 5.456c.645 1.643 1.349 2.963 2.112 3.96l.792.088c.88 0 1.76-.557 2.64-1.672.938-1.115 1.848-2.523 2.728-4.224a57.968 57.968 0 002.64-5.72 132.872 132.872 0 002.2-6.072 112.28 112.28 0 001.76-5.368c.469-1.643.821-2.845 1.056-3.608.234-.88.469-2.083.704-3.608.293-1.584.586-3.285.88-5.104l.88-5.456a103.2 103.2 0 011.056-5.016c.352-1.525.733-2.757 1.144-3.696.41-.997.85-1.496 1.32-1.496l.44.088a250.655 250.655 0 01-7.568 33.44 147.36 147.36 0 004.488-16.368c1.232-5.515 2.434-11.03 3.608-16.544l.704.704c.058-.41.234-1.144.528-2.2.293-1.115.616-2.23.968-3.344.41-1.173.85-2.2 1.32-3.08.469-.88.938-1.32 1.408-1.32.352 0 .645.293.88.88.293.587.498 1.261.616 2.024a30.7 30.7 0 01.264 2.288c.058.704.088 1.173.088 1.408 0 .176-.088.557-.264 1.144a31.12 31.12 0 00-.352 1.232c-.47 1.995-1.056 4.752-1.76 8.272a322.473 322.473 0 01-2.376 11.616 196.678 196.678 0 01-3.344 12.76c-1.174 4.165-2.523 8.008-4.048 11.528 1.584-3.52 3.021-7.333 4.312-11.44a209.334 209.334 0 003.52-12.672 342.002 342.002 0 002.728-11.528 494.44 494.44 0 011.848-8.272c0 2.992-.235 6.101-.704 9.328a115.444 115.444 0 01-1.848 9.592 178.308 178.308 0 01-2.552 9.592 638.546 638.546 0 01-2.728 8.976l-1.32.528c-.528 1.877-1.262 4.107-2.2 6.688a39.229 39.229 0 01-3.608 7.392c-1.408 2.288-3.08 4.224-5.016 5.808-1.878 1.643-4.019 2.464-6.424 2.464-1.819 0-3.462-.41-4.928-1.232-1.408-.763-2.699-1.819-3.872-3.168-1.115-1.29-2.112-2.787-2.992-4.488a71.43 71.43 0 01-2.288-5.28 98.152 98.152 0 01-1.76-5.456 478.638 478.638 0 01-1.408-5.104c-.118.41-.235.91-.352 1.496zm16.985 21.736c1.818 0 3.52-.587 5.104-1.76 1.642-1.115 3.168-2.64 4.576-4.576-1.526 1.525-3.051 2.845-4.576 3.96-1.526 1.115-3.227 1.672-5.104 1.672-1.526 0-2.934-.44-4.224-1.32-1.232-.821-2.376-1.907-3.432-3.256a32.385 32.385 0 01-2.728-4.664c-.763-1.76-1.467-3.49-2.112-5.192a80.275 80.275 0 01-1.672-4.84c-.47-1.584-.88-2.904-1.232-3.96.234 1.408.557 2.992.968 4.752.47 1.701.997 3.432 1.584 5.192a55.842 55.842 0 002.024 5.192 26.417 26.417 0 002.816 4.488c1.056 1.29 2.229 2.317 3.52 3.08 1.349.821 2.845 1.232 4.488 1.232zm.968 1.936a13.231 13.231 0 005.456-2.288 20.546 20.546 0 004.4-4.048 25.725 25.725 0 003.432-5.192 71.909 71.909 0 001.496-2.992 49.876 49.876 0 01-1.408 3.256 30.99 30.99 0 01-3.344 5.544c-1.291 1.643-2.787 2.992-4.488 4.048-1.643 1.115-3.491 1.672-5.544 1.672zm-1.848-8.712c-.704-.176-1.408-.733-2.112-1.672a12.392 12.392 0 01-1.496-2.904c.176.528.381 1.085.616 1.672.293.587.616 1.144.968 1.672.41.528.85.968 1.32 1.32.469.293.997.44 1.584.44.938 0 1.848-.41 2.728-1.232.938-.88 1.789-1.936 2.552-3.168a31.504 31.504 0 002.2-3.872c.645-1.408 1.202-2.67 1.672-3.784a92.668 92.668 0 01-1.76 3.696 26.679 26.679 0 01-2.2 3.784c-.763 1.173-1.614 2.17-2.552 2.992-.88.821-1.76 1.232-2.64 1.232-.235 0-.528-.059-.88-.176zm-16.28-10.912c.058-.41.117-.792.176-1.144.058-.41.146-.821.264-1.232l-.352-1.056-.352 1.76a19.513 19.513 0 01-.264 1.672h.528zm33.264 4.224l-.352.88c.117-.352.234-.645.352-.88zm.352-.792a11.04 11.04 0 01-.352.792c.117-.293.234-.557.352-.792zm.264-.616zm46.752 13.464c-2.23.763-3.931 1.173-5.104 1.232-1.174.117-2.2.205-3.08.264-3.286 0-6.248-.616-8.888-1.848-2.64-1.232-4.899-2.904-6.776-5.016-1.878-2.112-3.344-4.576-4.4-7.392-.998-2.875-1.496-5.925-1.496-9.152 0-1.877.176-3.813.528-5.808.352-2.053.88-4.048 1.584-5.984a25.63 25.63 0 012.728-5.544 21.824 21.824 0 013.784-4.576 17.398 17.398 0 00-3.872 4.4 28.875 28.875 0 00-2.816 5.544 29.929 29.929 0 00-1.672 6.072 35.397 35.397 0 00-.528 5.984c0 2.464.381 5.104 1.144 7.92.821 2.757 2.112 5.339 3.872 7.744 1.76 2.347 4.018 4.312 6.776 5.896 2.816 1.584 6.218 2.376 10.208 2.376 1.877 0 3.842-.264 5.896-.792-2.23 1.467-4.723 2.2-7.48 2.2-2.23 0-4.342-.352-6.336-1.056a20.09 20.09 0 01-5.456-2.816 23.402 23.402 0 01-4.488-4.224 28.018 28.018 0 01-3.432-5.28l.792-.704c-.998-1.995-1.731-3.99-2.2-5.984a30.01 30.01 0 01-.616-6.072c0-2.992.41-5.867 1.232-8.624a40.644 40.644 0 013.432-7.832l2.112-2.904c.352-.645.85-1.29 1.496-1.936a24.1 24.1 0 012.288-1.848 17.312 17.312 0 012.552-1.672 60.922 60.922 0 012.64-1.408 74.75 74.75 0 016.336-2.816c2.112-.88 4.576-1.525 7.392-1.936l-.352-.264c-5.398.528-9.974 1.848-13.728 3.96-3.755 2.053-6.806 4.576-9.152 7.568-2.347 2.992-4.048 6.277-5.104 9.856-1.056 3.52-1.584 6.981-1.584 10.384 0 1.819.146 3.667.44 5.544.352 1.819.85 3.637 1.496 5.456-1.467-3.52-2.2-7.245-2.2-11.176 0-3.872.645-7.715 1.936-11.528 1.29-3.813 3.314-7.333 6.072-10.56 3.52-3.227 7.362-5.69 11.528-7.392 4.165-1.76 8.184-2.64 12.056-2.64 1.232 0 2.493.205 3.784.616 1.29.41 2.464 1.056 3.52 1.936 1.056.821 1.906 1.907 2.552 3.256.704 1.35 1.056 2.992 1.056 4.928 0 1.584-.382 3.52-1.144 5.808-.763 2.288-1.907 4.517-3.432 6.688-1.467 2.112-3.315 3.93-5.544 5.456-2.23 1.467-4.811 2.2-7.744 2.2h-2.904a62.614 62.614 0 01-5.984-1.584 39.568 39.568 0 00-5.016-1.496 15.411 15.411 0 00-.44 2.728V48.2c0 1.701.176 3.373.528 5.016a16.214 16.214 0 001.848 4.4 12.327 12.327 0 003.08 3.432c1.29.88 2.845 1.437 4.664 1.672 1.114.235 2.082.381 2.904.44.821 0 1.496.03 2.024.088.586 0 .997.088 1.232.264.293.117.44.381.44.792a9.378 9.378 0 01-1.848.352c-.587.059-1.203.088-1.848.088-2.054 0-3.902-.323-5.544-.968-1.643-.704-3.051-1.496-4.224-2.376 1.349 1.35 2.962 2.317 4.84 2.904 1.877.528 3.725.792 5.544.792.997 0 2.024-.088 3.08-.264-.118.352-.176.557-.176.616 0 .352.146.587.44.704.234-.059.645-.205 1.232-.44a23.066 23.066 0 011.76-.792 14.65 14.65 0 011.848-.704c.586-.235.997-.352 1.232-.352.293 0 .557.059.792.176.234.059.352.381.352.968s-.206 1.29-.616 2.112c-.411.821-1.027 1.643-1.848 2.464zm-12.144-34.848l1.936.352a9.915 9.915 0 001.76.176c.586 0 1.261-.176 2.024-.528.821-.41 1.613-.968 2.376-1.672.821-.704 1.525-1.584 2.112-2.64.645-1.056 1.114-2.259 1.408-3.608l.176-.528c-.822 0-2.054.205-3.696.616-1.643.41-3.344.968-5.104 1.672a27.299 27.299 0 00-4.928 2.376c-1.526.88-2.582 1.848-3.168 2.904.88.176 1.73.352 2.552.528.88.117 1.73.235 2.552.352zm-4.048 6.512c.117-.117.176-.293.176-.528a2.45 2.45 0 00.088-.528l-4.136-1.496-.44 1.232 4.312 1.32zm-2.464 19.976l-1.232-1.408a7.966 7.966 0 01-.88-1.232 9.12 9.12 0 002.112 2.64zm53.701-37.576h1.496c3.403 0 6.776.616 10.12 1.848 3.344 1.173 6.336 2.845 8.976 5.016a24.87 24.87 0 016.336 7.832c1.643 2.992 2.464 6.277 2.464 9.856 0 3.813-.528 7.01-1.584 9.592-1.056 2.523-2.552 4.605-4.488 6.248-1.936 1.643-4.253 2.933-6.952 3.872-2.699.88-5.691 1.613-8.976 2.2 2.053-.176 4.341-.557 6.864-1.144a21.833 21.833 0 007.216-3.08c2.288-1.525 4.195-3.608 5.72-6.248 1.525-2.699 2.288-6.219 2.288-10.56 0-5.339-1.496-10.15-4.488-14.432-2.992-4.283-7.451-7.51-13.376-9.68a24.575 24.575 0 00-4.576-1.496 17.86 17.86 0 00-4.664-.616c.528-.293 1.232-.44 2.112-.44.88-.059 1.584-.088 2.112-.088 2.288 0 4.635.47 7.04 1.408a28.001 28.001 0 016.952 3.872 28.264 28.264 0 015.72 5.808c1.701 2.17 2.963 4.488 3.784 6.952-.293.117-.557.352-.792.704a30.825 30.825 0 011.056 4.312c.235 1.408.352 2.845.352 4.312 0 1.643-.147 3.285-.44 4.928-.235 1.643-.763 3.256-1.584 4.84-.763 1.584-1.877 3.08-3.344 4.488-1.408 1.408-3.285 2.67-5.632 3.784-2.347 1.115-5.221 2.024-8.624 2.728-3.403.763-7.451 1.261-12.144 1.496-.293.176-.704.264-1.232.264-.528.059-1.056.088-1.584.088h-1.232c-.88 0-1.789-.176-2.728-.528-.939-.293-1.789-.85-2.552-1.672-.763-.763-1.379-1.79-1.848-3.08-.469-1.35-.704-3.021-.704-5.016v-.968c-.059.235-.147.352-.264.352-.176 0-.264-.059-.264-.176v.44c0 1.056.059 2.259.176 3.608.117 1.29.44 2.523.968 3.696.587 1.173 1.467 2.141 2.64 2.904 1.232.821 2.963 1.232 5.192 1.232.528 0 1.056-.03 1.584-.088a7.02 7.02 0 001.848-.264c4.283-.176 8.36-.645 12.232-1.408 3.931-.763 7.392-1.995 10.384-3.696a19.768 19.768 0 007.128-7.128c1.76-2.992 2.64-6.835 2.64-11.528 0-1.525-.117-3.08-.352-4.664.059.645.147 1.261.264 1.848.117.939.176 1.877.176 2.816 0 1.29-.088 2.757-.264 4.4-.117 1.643-.499 3.315-1.144 5.016-.587 1.701-1.467 3.373-2.64 5.016-1.173 1.643-2.816 3.08-4.928 4.312a30.202 30.202 0 01-6.776 2.992c-2.288.763-4.488 1.32-6.6 1.672-2.053.41-3.931.645-5.632.704-1.643.117-2.875.176-3.696.176h-1.056c-.528 0-1.085.03-1.672.088a8.133 8.133 0 01-1.76.176h-.44c-.528 0-1.203-.059-2.024-.176-.763-.117-1.584-.41-2.464-.88-.821-.47-1.584-1.232-2.288-2.288-.704-.997-1.203-2.435-1.496-4.312a22.155 22.155 0 01-.264-1.936 14.107 14.107 0 00-.264-1.76c0-1.173.088-2.259.264-3.256.176-1.056.264-1.907.264-2.552V40.28l-3.168-16.632c.059-1.173.117-2.464.176-3.872.117-1.408.205-2.845.264-4.312.117-1.525.205-3.021.264-4.488.059-1.467.088-2.875.088-4.224 0-.47-.029-.91-.088-1.32v-1.32c.176.176.352.264.528.264.235 0 .469-.059.704-.176.293-.176.557-.264.792-.264.176 0 .352.088.528.264.176.176.323.499.44.968.176.47.293 1.173.352 2.112.059.88.088 2.024.088 3.432h.792c.235-3.227.645-5.75 1.232-7.568.645-1.819 1.291-2.728 1.936-2.728.763 0 1.32.939 1.672 2.816.352 1.877.587 4.253.704 7.128.176 2.816.323 5.925.44 9.328.117 3.344.352 6.512.704 9.504a140.252 140.252 0 011.584 11.088c.411 3.872.675 7.656.792 11.352 0 2.757-.029 4.723-.088 5.896s-.147 2.024-.264 2.552v2.376l2.992-.264c1.877 0 3.813-.088 5.808-.264 1.995-.235 3.667-.587 5.016-1.056 2.464-.41 4.371-.997 5.72-1.76 1.408-.821 2.464-1.701 3.168-2.64.704-.939 1.144-1.936 1.32-2.992.176-1.056.264-2.053.264-2.992 0-1.819-.147-3.55-.44-5.192-.235-1.701-.733-3.256-1.496-4.664-.763-1.467-1.877-2.787-3.344-3.96-1.467-1.232-3.373-2.317-5.72-3.256-2.581-.997-4.459-1.584-5.632-1.76-1.115-.176-1.672-.528-1.672-1.056 0-.059.059-.264.176-.616 2.464.117 4.928.704 7.392 1.76a26.886 26.886 0 016.248 3.784 25.783 25.783 0 00-6.072-3.784c-2.405-1.115-4.84-1.79-7.304-2.024.176-.235.264-.528.264-.88 0-.176-.088-.41-.264-.704h-1.496c-.411 0-.851.03-1.32.088a16.48 16.48 0 00-1.144.176c-1.408-.117-2.405-.323-2.992-.616-.528-.293-.792-.645-.792-1.056 0-.587.469-1.173 1.408-1.76.997-.587 1.965-1.027 2.904-1.32zm23.144 25.168c0 2.699-.323 4.899-.968 6.6-.645 1.701-1.555 3.021-2.728 3.96 1.525-1.056 2.523-2.405 2.992-4.048.528-1.643.792-3.725.792-6.248 0-.41-.029-.792-.088-1.144 0-.293-.029-.616-.088-.968v.968c.059.293.088.587.088.88zm7.656-5.544l.088.352-.088-.352zm-13.728-7.48a.579.579 0 01-.264-.264.579.579 0 01.264.264zm13.816 7.92v.264-.264zM283.25 9.304c.586 0 .997.235 1.232.704.234.41.352.85.352 1.32 0 2.053-.616 4.517-1.848 7.392-1.174 2.816-2.699 5.867-4.576 9.152a432.378 432.378 0 01-5.896 10.296 282.385 282.385 0 00-5.984 10.648c-1.819 3.461-3.344 6.805-4.576 10.032-1.174 3.227-1.76 6.16-1.76 8.8v1.144c.058.47.088 1.027.088 1.672 0 .939-.088 1.819-.264 2.64-.176.88-.587 1.35-1.232 1.408l-.352-.616c.058-1.936.146-3.872.264-5.808.117-1.819.322-3.608.616-5.368a56.208 56.208 0 00-1.232 11.704h-1.496l.176 1.936a6.25 6.25 0 01-.616 1.496c-.294.587-.734.88-1.32.88-.646 0-1.232-.264-1.76-.792a11.243 11.243 0 01-1.144-1.496c0-6.336.733-12.232 2.2-17.688 1.525-5.515 3.696-11.088 6.512-16.72a78.167 78.167 0 00-6.6 16.104 83.804 83.804 0 00-2.816 17.16c-.704-1.29-1.056-2.699-1.056-4.224 0-1.936.088-3.784.264-5.544a48.102 48.102 0 011.056-5.544l1.144-.176a34.193 34.193 0 011.848-7.304 82.708 82.708 0 013.08-6.952 240.253 240.253 0 013.432-6.776 74.28 74.28 0 003.344-6.864l-.528-.176a717.685 717.685 0 00-6.864 13.376 77.449 77.449 0 00-5.016 13.376 63.875 63.875 0 013.344-10.296 172.427 172.427 0 014.928-10.56 213.573 213.573 0 015.544-10.208 290.846 290.846 0 005.544-10.208 59.607 59.607 0 012.552-4.312 26.716 26.716 0 002.376-4.4c.352.176.85.381 1.496.616.704.176 1.056.499 1.056.968 0 .352-.118.763-.352 1.232-.176.47-.352.88-.528 1.232l.88.44c.469-.704 1.085-1.496 1.848-2.376.821-.88 1.701-1.32 2.64-1.32zM251.746 59.2l.176-.704-.176.704zm48.676-37.048c2.464 0 5.485.264 9.064.792a93.945 93.945 0 0110.912 2.112c3.696.939 7.187 2.083 10.472 3.432 3.285 1.29 5.837 2.728 7.656 4.312a18.887 18.887 0 013.168 3.696 231.75 231.75 0 012.816 3.96c-3.755 2.17-6.981 3.755-9.68 4.752-2.699.939-5.251 1.701-7.656 2.288a406.972 406.972 0 00-7.128 1.672c-2.405.587-5.133 1.555-8.184 2.904-.645.293-1.408.704-2.288 1.232-.821.528-1.701 1.085-2.64 1.672-.88.528-1.76 1.027-2.64 1.496-.821.41-1.525.616-2.112.616l-1.056-.968a42.81 42.81 0 002.904-1.144c.939-.41 1.819-.939 2.64-1.584-.88.47-1.789.88-2.728 1.232-.939.352-1.877.675-2.816.968l-.44-1.32-1.232.44c-.587.176-.939.264-1.056.264a3.872 3.872 0 01-1.584-.352c-.528-.293-.792-.763-.792-1.408 0-.821.235-1.467.704-1.936a4.764 4.764 0 011.76-1.232 56.797 56.797 0 004.312-1.936L307.022 46a70.813 70.813 0 014.224-2.112 31.435 31.435 0 014.488-1.584c-1.584.293-3.08.792-4.488 1.496a70.813 70.813 0 00-4.224 2.112 296.092 296.092 0 01-4.312 2.112 16.528 16.528 0 01-4.488 1.32c1.877-2.053 4.136-3.667 6.776-4.84a144.636 144.636 0 017.92-3.344l.264.88a47.545 47.545 0 016.336-2.2 91.182 91.182 0 016.688-1.496l-.88-.352a49.797 49.797 0 01-5.984 1.584 57.111 57.111 0 00-5.896 1.408 103.678 103.678 0 015.632-1.76 65.938 65.938 0 015.896-1.32c-.821-.352-1.995-.733-3.52-1.144a99.613 99.613 0 00-5.104-1.408c-1.819-.47-3.755-.91-5.808-1.32-1.995-.47-3.931-.88-5.808-1.232a70.716 70.716 0 00-5.192-.792c-1.525-.235-2.728-.352-3.608-.352v-.264c.059-.059.088-.147.088-.264 0-.47-.059-.939-.176-1.408.176-.47.44-.763.792-.88a3.318 3.318 0 011.32-.264c.293 0 .587.03.88.088.293 0 .587.03.88.088l.088-.968c-.352-.059-.88-.176-1.584-.352a47.586 47.586 0 01-2.024-.792 10.855 10.855 0 01-1.848-.968c-.469-.41-.704-.85-.704-1.32 0-.528.293-.939.88-1.232a6.806 6.806 0 011.936-.616 10.146 10.146 0 012.288-.264 24.19 24.19 0 011.672-.088zm26.312 16.016l1.056-.264-6.688-2.464-.968.264 6.6 2.464zm-8.8 3.52c1.936-.41 4.107-.88 6.512-1.408 2.405-.587 4.459-1.203 6.16-1.848l-.352-.088-12.32 3.344zm14.52 3.08a66.78 66.78 0 01-6.776 1.584c-2.229.352-4.459.88-6.688 1.584 2.229-.47 4.459-.91 6.688-1.32a40.02 40.02 0 006.776-1.848zm-14.52-3.08c-.059 0-.117.03-.176.088l.176-.088z"/><defs><linearGradient id="ha" x1="172.5" y1="-11" x2="172.5" y2="79" gradientUnits="userSpaceOnUse"><stop offset=".297" stop-color="#BB3AF4"/><stop offset=".745" stop-color="#1EB3F6"/></linearGradient></defs></svg><svg viewBox="0 0 399 92" id="logo6" xmlns="http://www.w3.org/2000/svg"><path d="M49.373 77.752c-.293.235-.704.41-1.232.528-.528.117-1.144.117-1.848 0l-33.616-9.592c-3.872-1.115-6.805-2.67-8.8-4.664-1.995-1.995-2.992-5.28-2.992-9.856v-6.336c0-2.699.352-4.899 1.056-6.6.704-1.76 1.73-3.197 3.08-4.312l11.352-9.592c.939-.763 2.053-1.437 3.344-2.024a33.275 33.275 0 014.312-1.584l33.616-9.592c1.467-.235 2.523-.059 3.168.528.704.528 1.056 1.555 1.056 3.08v11.616c0 .821-.117 1.525-.352 2.112a3.674 3.674 0 01-.968 1.32l-11.44 9.592c-.293.235-.645.44-1.056.616-.41.176-.85.323-1.32.44l-4.84 1.232 16.104 4.312c1.35.235 2.317.704 2.904 1.408.645.645.968 1.672.968 3.08V65.08c0 .763-.117 1.408-.352 1.936-.176.47-.44.85-.792 1.144l-11.352 9.592zm8.448-9.944c1.115.235 1.907.117 2.376-.352.528-.47.792-1.261.792-2.376V53.464c0-1.115-.264-1.936-.792-2.464-.47-.587-1.261-.968-2.376-1.144L32.565 43.08c-.587-.117-.997-.293-1.232-.528-.176-.235-.264-.616-.264-1.144 0-.528.088-.91.264-1.144.235-.235.645-.41 1.232-.528l25.256-6.776c1.115-.176 1.907-.528 2.376-1.056.528-.587.792-1.437.792-2.552V17.736c0-1.115-.264-1.907-.792-2.376-.47-.47-1.261-.587-2.376-.352L24.293 24.6c-3.637 1.056-6.424 2.523-8.36 4.4-1.877 1.819-2.816 4.899-2.816 9.24v6.336c0 4.341.939 7.45 2.816 9.328 1.936 1.819 4.723 3.256 8.36 4.312l33.528 9.592zm-4.752-10.296v.88l-26.4-7.568c-1.467-.41-2.699-1.056-3.696-1.936-.939-.939-1.408-2.376-1.408-4.312V38.24c0-1.936.47-3.315 1.408-4.136.997-.821 2.23-1.437 3.696-1.848l26.4-7.568v.88l-26.224 7.568c-1.232.352-2.288.88-3.168 1.584-.821.704-1.232 1.877-1.232 3.52v6.336c0 1.643.41 2.875 1.232 3.696.88.763 1.936 1.32 3.168 1.672l26.224 7.568zm62.432-14.872c.939 0 1.672.293 2.2.88.587.528 1.291 1.613 2.112 3.256l8.096 16.192c.293.587.645.939 1.056 1.056.469.117.909.176 1.32.176h.44c.469 0 .909-.176 1.32-.528.411-.41.645-.85.704-1.32l2.2-10.032c.235-1.115.352-2.552.352-4.312.059-1.76.088-3.285.088-4.576V17.56h.88v25.96c0 1.29-.029 2.816-.088 4.576 0 1.76-.117 3.197-.352 4.312l-2.2 9.944c-.235.939-.616 1.643-1.144 2.112-.469.41-1.056.616-1.76.616h-.616a5.824 5.824 0 01-1.672-.264c-.528-.235-.939-.645-1.232-1.232l-8.096-16.368c-.763-1.525-1.379-2.523-1.848-2.992-.469-.47-1.056-.704-1.76-.704h-2.2c-.704 0-1.291.235-1.76.704-.469.47-1.085 1.467-1.848 2.992l-8.096 16.368a2.459 2.459 0 01-1.32 1.232 4.984 4.984 0 01-1.584.264h-.616c-.704 0-1.32-.205-1.848-.616-.47-.47-.821-1.173-1.056-2.112l-2.2-9.944c-.235-1.115-.381-2.552-.44-4.312V17.56h.88v30.448c.059 1.76.205 3.197.44 4.312l2.2 10.032c.059.47.293.91.704 1.32.41.352.85.528 1.32.528h.44c.41 0 .821-.059 1.232-.176.469-.117.851-.47 1.144-1.056l8.096-16.192c.821-1.643 1.496-2.728 2.024-3.256.587-.587 1.349-.88 2.288-.88h2.2zm13.816-33c-1.115 0-1.936.264-2.464.792-.469.47-.704 1.261-.704 2.376v32.384l-5.104-11.088c-.469-.997-1.085-1.701-1.848-2.112-.763-.41-1.701-.616-2.816-.616h-3.696c-1.115 0-2.053.205-2.816.616-.763.41-1.379 1.115-1.848 2.112l-5.104 11.088V12.808c0-1.115-.264-1.907-.792-2.376-.469-.528-1.261-.792-2.376-.792H86.197c-1.115 0-1.936.264-2.464.792-.47.47-.704 1.261-.704 2.376v33.968c0 1.877.059 3.637.176 5.28.176 1.584.645 3.461 1.408 5.632l4.4 12.144c.293.939.763 1.701 1.408 2.288.704.587 1.525.88 2.464.88H104.5c.939 0 1.731-.205 2.376-.616.645-.47 1.085-1.144 1.32-2.024l4.136-14.344c.176-.587.381-.968.616-1.144.293-.235.616-.352.968-.352h.792c.352 0 .645.117.88.352.293.176.528.557.704 1.144l4.048 14.344c.235.939.733 1.613 1.496 2.024.763.41 1.613.616 2.552.616h11.704c.939 0 1.672-.293 2.2-.88a6.321 6.321 0 001.32-2.288l4.4-11.968c.763-2.17 1.203-4.048 1.32-5.632a49.68 49.68 0 00.264-5.28V12.808c0-1.115-.264-1.907-.792-2.376-.469-.528-1.261-.792-2.376-.792h-13.112zM96.229 82.416c-.41.293-.88.528-1.408.704a4.07 4.07 0 01-1.672.352H81.533c-1.115 0-2.083-.352-2.904-1.056-.821-.704-1.408-1.613-1.76-2.728l-4.4-12.144c-.821-2.17-1.32-4.077-1.496-5.72a79.53 79.53 0 01-.176-5.456V22.4c0-.763.088-1.408.264-1.936.235-.528.557-.968.968-1.32L83.38 9.552c.293-.235.675-.41 1.144-.528a5.253 5.253 0 011.672-.264h13.552c1.408 0 2.435.323 3.08.968s.968 1.672.968 3.08v22.968l4.928-4.136a4.161 4.161 0 011.672-.88 9.419 9.419 0 012.288-.264h1.232V22.4c0-.763.088-1.408.264-1.936.176-.528.44-.939.792-1.232l.088-.088 11.44-9.592c.293-.235.675-.41 1.144-.528.469-.176 1.027-.264 1.672-.264h13.112c1.408 0 2.435.323 3.08.968s.968 1.672.968 3.08v34.144c0 1.936-.088 3.755-.264 5.456-.117 1.643-.587 3.55-1.408 5.72l-4.4 11.968a6.503 6.503 0 01-.704 1.584c-.293.47-.645.91-1.056 1.32l-11.352 9.416a3.65 3.65 0 01-1.144.792c-.411.176-.88.264-1.408.264h-11.704c-1.173 0-2.2-.264-3.08-.792-.88-.528-1.496-1.35-1.848-2.464l-1.76-6.248-10.12 8.448zm102.138 1.056h-40.832c-1.408 0-2.434-.323-3.08-.968-.645-.645-.968-1.672-.968-3.08V22.4c0-.763.088-1.408.264-1.936.235-.528.558-.968.968-1.32l11.352-9.592c.294-.235.675-.41 1.144-.528a5.256 5.256 0 011.672-.264h40.832c1.408 0 2.435.323 3.08.968.646.645.968 1.672.968 3.08v10.296c0 .763-.117 1.408-.352 1.936a2.917 2.917 0 01-.88 1.32l-7.568 6.248c.587.293.998.733 1.232 1.32.294.587.44 1.35.44 2.288v9.416c0 .763-.117 1.408-.352 1.936a2.917 2.917 0 01-.88 1.32l-7.832 6.6h12.144c1.408 0 2.435.323 3.08.968.646.645.968 1.672.968 3.08v10.296c0 .763-.117 1.408-.352 1.936a2.917 2.917 0 01-.88 1.32l-11.44 9.504c-.234.235-.616.44-1.144.616a4.483 4.483 0 01-1.584.264zM209.719 73c1.115 0 1.907-.235 2.376-.704.528-.528.792-1.35.792-2.464V59.536c0-1.115-.264-1.907-.792-2.376-.469-.528-1.261-.792-2.376-.792h-24.288V48.8h17.16c1.115 0 1.907-.235 2.376-.704.528-.528.792-1.35.792-2.464v-9.416c0-1.115-.264-1.907-.792-2.376-.469-.528-1.261-.792-2.376-.792h-17.16v-6.776h24.288c1.115 0 1.907-.235 2.376-.704.528-.528.792-1.35.792-2.464V12.808c0-1.115-.264-1.907-.792-2.376-.469-.528-1.261-.792-2.376-.792h-40.832c-1.114 0-1.936.264-2.464.792-.469.47-.704 1.261-.704 2.376v57.024c0 1.115.235 1.936.704 2.464.528.47 1.35.704 2.464.704h40.832zm-4.752-8.8v.88h-29.656V17.56h29.656v.88h-28.776v22.088h21.648v.88h-21.648V64.2h28.776zm18.912 19.272c-1.408 0-2.435-.323-3.08-.968s-.968-1.672-.968-3.08V22.4c0-.763.088-1.408.264-1.936.235-.528.557-.968.968-1.32l11.352-9.592c.293-.235.675-.41 1.144-.528a5.251 5.251 0 011.672-.264h28.072c6.101 0 10.589 1.203 13.464 3.608 2.875 2.347 4.312 5.925 4.312 10.736v4.224c0 2.053-.293 3.813-.88 5.28-.528 1.467-1.349 2.64-2.464 3.52l-.264.176c3.168.704 5.544 2.23 7.128 4.576 1.584 2.288 2.376 5.485 2.376 9.592v8.096c0 2.64-.381 4.928-1.144 6.864a12.096 12.096 0 01-3.432 4.752l-11.352 9.592c-1.467 1.232-3.315 2.141-5.544 2.728-2.229.645-4.84.968-7.832.968h-33.792zM269.023 73c5.808 0 10.091-1.173 12.848-3.52 2.816-2.347 4.224-5.984 4.224-10.912v-8.096c0-4.283-.909-7.539-2.728-9.768-1.819-2.23-4.605-3.52-8.36-3.872 1.76-.763 3.051-1.907 3.872-3.432.88-1.584 1.32-3.608 1.32-6.072v-4.224c0-4.576-1.379-7.95-4.136-10.12-2.757-2.23-7.011-3.344-12.76-3.344h-28.072c-1.115 0-1.936.264-2.464.792-.469.47-.704 1.261-.704 2.376v57.024c0 1.115.235 1.936.704 2.464.528.47 1.349.704 2.464.704h33.792zm-3.52-7.92h-23.672V17.56h17.864c2.405 0 4.371.264 5.896.792 1.525.47 2.699 1.144 3.52 2.024a6.31 6.31 0 011.672 2.904c.293 1.115.44 2.317.44 3.608v5.632c0 1.76-.323 3.373-.968 4.84-.587 1.467-2.141 2.523-4.664 3.168 2.405 0 4.371.264 5.896.792 1.525.47 2.699 1.173 3.52 2.112.821.88 1.349 1.936 1.584 3.168.293 1.232.44 2.581.44 4.048v5.632c0 1.29-.147 2.493-.44 3.608a5.768 5.768 0 01-1.672 2.728c-.763.763-1.907 1.379-3.432 1.848-1.525.41-3.52.616-5.984.616zm-5.808-46.64h-16.984v22.088h16.984c2.405 0 4.312-.205 5.72-.616 1.408-.47 2.464-1.056 3.168-1.76.763-.763 1.232-1.613 1.408-2.552.235-.997.352-2.024.352-3.08v-5.632c0-2.347-.675-4.341-2.024-5.984-1.349-1.643-4.224-2.464-8.624-2.464zm-7.832 6.16h7.48c1.115 0 1.936.293 2.464.88.587.587.88 1.467.88 2.64v2.464c0 1.173-.293 2.053-.88 2.64-.528.587-1.349.88-2.464.88h-7.48V24.6zm13.728 16.808h-22.88V64.2h22.792c4.4 0 7.275-.704 8.624-2.112 1.349-1.467 2.024-3.403 2.024-5.808v-5.632c0-2.64-.675-4.84-2.024-6.6-1.291-1.76-4.136-2.64-8.536-2.64zm-13.728 6.248h11.44c1.115 0 1.936.293 2.464.88.587.528.88 1.379.88 2.552v3.432c0 1.173-.293 2.053-.88 2.64-.528.587-1.349.88-2.464.88h-11.44V47.656zm53.697 43.736H292.8c-1.466 0-2.552-.352-3.256-1.056-.704-.645-.968-1.672-.792-3.08l10.56-72.864c.059-.763.176-1.408.352-1.936.235-.528.558-.968.968-1.32l11.352-9.504c.294-.235.675-.41 1.144-.528a4.49 4.49 0 011.584-.264h12.76c1.467 0 2.552.352 3.256 1.056.704.645.968 1.672.792 3.08L320.96 77.84c-.117.763-.293 1.408-.528 1.936-.176.587-.469.997-.88 1.232L308.2 90.6c-.352.235-.733.41-1.144.528-.41.176-.909.264-1.496.264zm-4.576-13.64c-.117 1.115.088 1.907.616 2.376.587.528 1.438.792 2.552.792h12.76c1.115 0 1.878-.264 2.288-.792.47-.47.763-1.261.88-2.376l10.56-72.864c.118-1.115-.117-1.907-.704-2.376-.528-.528-1.349-.792-2.464-.792h-12.76c-1.114 0-1.906.264-2.376.792-.41.47-.674 1.261-.792 2.376l-10.56 72.864zM319.992 9.64h.88L311.72 73h-.88l9.152-63.36zm21.411 68.64c-1.467.235-2.552.059-3.256-.528-.645-.528-.968-1.555-.968-3.08V63.056c0-.821.117-1.496.352-2.024a4.392 4.392 0 01.968-1.496l11.352-9.504c.293-.235.645-.44 1.056-.616.411-.176.88-.323 1.408-.44l4.84-1.232-16.104-4.312c-1.349-.235-2.347-.675-2.992-1.32-.587-.704-.88-1.76-.88-3.168V27.328c0-.763.088-1.408.264-1.936.176-.528.44-.939.792-1.232l11.44-9.504c.293-.235.704-.41 1.232-.528.528-.117 1.144-.117 1.848 0h.088l33.528 9.592c3.872 1.115 6.805 2.67 8.8 4.664 1.995 1.995 2.992 5.28 2.992 9.856v6.336c0 2.699-.381 4.928-1.144 6.688-.704 1.701-1.701 3.11-2.992 4.224l-11.44 9.592c-.88.763-1.965 1.437-3.256 2.024-1.232.528-2.669 1.056-4.312 1.584l-33.616 9.592zm44.704-20.064c3.637-1.056 6.395-2.493 8.272-4.312 1.936-1.877 2.904-4.987 2.904-9.328V38.24c0-4.341-.968-7.421-2.904-9.24-1.877-1.877-4.635-3.344-8.272-4.4l-33.528-9.592c-1.115-.235-1.936-.117-2.464.352-.469.47-.704 1.261-.704 2.376v11.616c0 1.115.235 1.965.704 2.552.528.528 1.349.88 2.464 1.056l25.256 6.776c.587.117.968.293 1.144.528.235.235.352.616.352 1.144 0 .528-.117.91-.352 1.144-.176.235-.557.41-1.144.528l-25.256 6.776c-1.115.176-1.936.557-2.464 1.144-.469.528-.704 1.35-.704 2.464V65.08c0 1.115.235 1.907.704 2.376.528.47 1.349.587 2.464.352l33.528-9.592zm-2.376-7.392l-26.4 7.568v-.88l26.224-7.568c1.232-.352 2.259-.91 3.08-1.672.88-.821 1.32-2.053 1.32-3.696V38.24c0-1.643-.44-2.816-1.32-3.52-.821-.704-1.848-1.232-3.08-1.584l-26.224-7.568v-.88l26.4 7.568c1.467.41 2.669 1.027 3.608 1.848.997.821 1.496 2.2 1.496 4.136v6.336c0 1.936-.499 3.373-1.496 4.312-.939.88-2.141 1.525-3.608 1.936z"/><defs><linearGradient id="ia" x1="199.5" y1="-6" x2="199.5" y2="91" gradientUnits="userSpaceOnUse"><stop offset=".297" stop-color="#BB3AF4"/><stop offset=".745" stop-color="#1EB3F6"/></linearGradient></defs></svg><svg viewBox="0 0 338 80" id="logo7" xmlns="http://www.w3.org/2000/svg"><path d="M45.431 66.808l-33.527-9.592c-3.638-1.056-6.425-2.493-8.36-4.312C1.665 51.027.726 47.917.726 43.576V37.24c0-4.341.94-7.421 2.817-9.24 1.935-1.877 4.722-3.344 8.36-4.4l33.527-9.592c1.115-.235 1.907-.117 2.377.352.528.47.791 1.261.791 2.376v11.616c0 1.115-.263 1.965-.791 2.552-.47.528-1.262.88-2.377 1.056l-25.255 6.776c-.587.117-.998.293-1.232.528-.177.235-.264.616-.264 1.144 0 .528.087.91.264 1.144.234.235.645.41 1.232.528l25.256 6.776c1.114.176 1.906.557 2.375 1.144.529.528.792 1.35.792 2.464V64.08c0 1.115-.263 1.907-.791 2.376-.47.47-1.262.587-2.377.352zM108.077 8.64h13.112c1.114 0 1.906.264 2.376.792.528.47.792 1.261.792 2.376v34.144a49.68 49.68 0 01-.264 5.28c-.118 1.584-.558 3.461-1.32 5.632l-4.4 11.968a6.35 6.35 0 01-1.32 2.288c-.528.587-1.262.88-2.2.88h-11.704c-.939 0-1.79-.205-2.552-.616-.763-.41-1.261-1.085-1.496-2.024l-4.048-14.344c-.176-.587-.41-.968-.704-1.144a1.194 1.194 0 00-.88-.352h-.792c-.352 0-.675.117-.968.352-.235.176-.44.557-.616 1.144L86.956 69.36c-.235.88-.675 1.555-1.32 2.024-.645.41-1.438.616-2.376.616H71.644c-.939 0-1.76-.293-2.464-.88-.646-.587-1.115-1.35-1.408-2.288l-4.4-12.144c-.763-2.17-1.232-4.048-1.408-5.632a74.339 74.339 0 01-.176-5.28V11.808c0-1.115.235-1.907.704-2.376.528-.528 1.35-.792 2.464-.792h13.552c1.115 0 1.907.264 2.376.792.528.47.792 1.261.792 2.376v32.384l5.104-11.088c.47-.997 1.085-1.701 1.848-2.112.763-.41 1.701-.616 2.816-.616h3.696c1.114 0 2.053.205 2.816.616.763.41 1.379 1.115 1.848 2.112l5.104 11.088V11.808c0-1.115.234-1.907.704-2.376.528-.528 1.349-.792 2.464-.792zM179.713 72h-40.832c-1.115 0-1.936-.235-2.464-.704-.47-.528-.704-1.35-.704-2.464V11.808c0-1.115.234-1.907.704-2.376.528-.528 1.349-.792 2.464-.792h40.832c1.114 0 1.906.264 2.376.792.528.47.792 1.261.792 2.376v10.296c0 1.115-.264 1.936-.792 2.464-.47.47-1.262.704-2.376.704h-24.288v6.776h17.16c1.114 0 1.906.264 2.376.792.528.47.792 1.261.792 2.376v9.416c0 1.115-.264 1.936-.792 2.464-.47.47-1.262.704-2.376.704h-17.16v7.568h24.288c1.114 0 1.906.264 2.376.792.528.47.792 1.261.792 2.376v10.296c0 1.115-.264 1.936-.792 2.464-.47.47-1.262.704-2.376.704zm50.538 0h-33.792c-1.115 0-1.936-.235-2.464-.704-.47-.528-.704-1.35-.704-2.464V11.808c0-1.115.234-1.907.704-2.376.528-.528 1.349-.792 2.464-.792h28.072c5.749 0 10.002 1.115 12.76 3.344 2.757 2.17 4.136 5.544 4.136 10.12v4.224c0 2.464-.44 4.488-1.32 6.072-.822 1.525-2.112 2.67-3.872 3.432 3.754.352 6.541 1.643 8.36 3.872 1.818 2.23 2.728 5.485 2.728 9.768v8.096c0 4.928-1.408 8.565-4.224 10.912-2.758 2.347-7.04 3.52-12.848 3.52zm-17.16-48.4v9.504h7.48c1.114 0 1.936-.293 2.464-.88.586-.587.88-1.467.88-2.64V27.12c0-1.173-.294-2.053-.88-2.64-.528-.587-1.35-.88-2.464-.88h-7.48zm0 23.056V57.04h11.44c1.114 0 1.936-.293 2.464-.88.586-.587.88-1.467.88-2.64v-3.432c0-1.173-.294-2.024-.88-2.552-.528-.587-1.35-.88-2.464-.88h-11.44zM251.6 76.752l10.56-72.864c.118-1.115.382-1.907.792-2.376.47-.528 1.262-.792 2.376-.792h12.76c1.115 0 1.936.264 2.464.792.587.47.822 1.261.704 2.376l-10.56 72.864c-.117 1.115-.41 1.907-.88 2.376-.41.528-1.173.792-2.288.792h-12.76c-1.114 0-1.965-.264-2.552-.792-.528-.47-.733-1.261-.616-2.376zm74.508-19.536l-33.528 9.592c-1.114.235-1.936.117-2.464-.352-.469-.47-.704-1.261-.704-2.376V52.464c0-1.115.235-1.936.704-2.464.528-.587 1.35-.968 2.464-1.144l25.256-6.776c.587-.117.968-.293 1.144-.528.235-.235.352-.616.352-1.144 0-.528-.117-.91-.352-1.144-.176-.235-.557-.41-1.144-.528L292.58 31.96c-1.114-.176-1.936-.528-2.464-1.056-.469-.587-.704-1.437-.704-2.552V16.736c0-1.115.235-1.907.704-2.376.528-.47 1.35-.587 2.464-.352l33.528 9.592c3.638 1.056 6.395 2.523 8.272 4.4 1.936 1.819 2.904 4.899 2.904 9.24v6.336c0 4.341-.968 7.45-2.904 9.328-1.877 1.819-4.634 3.256-8.272 4.312z"/><defs><linearGradient id="ja" x1="169" y1="-7" x2="169" y2="80" gradientUnits="userSpaceOnUse"><stop offset=".297" stop-color="#BB3AF4"/><stop offset=".745" stop-color="#1EB3F6"/></linearGradient></defs></svg><svg viewBox="0 0 408 90" id="logo8" xmlns="http://www.w3.org/2000/svg"><path d="M33.684 69.24L.332 45.128l22.176.088L55.772 69.24H33.684zm0-53.064l22.088-.088L22.508 40.2H.332l33.352-24.024zm91.062 26.4l-9.504-9.152V11.776l9.504-8.624v39.424zM71.154 3.152l9.504 9.152v21.648l-9.504 8.624V3.152zM99.93 65.104l-.44-3.96 7.656.792 17.688 16.368 1.232 7.568-7.656-.616-17.688-16.368-.792-3.784zm24.992-19.448v28.688l-9.504-8.536V54.632l9.504-8.976zM71.33 74.344V45.656l9.504 8.536v11.176l-9.504 8.976zm25.608-9.24l-.792 3.784-17.688 16.368-7.656.616 1.232-7.568 17.688-16.368 7.656-.792-.44 3.96zm53.575 24.64l9.064-9.504h21.736l8.624 9.504h-39.424zm-2.552-43.208l9.416 9.152v21.56l-9.416 8.624V46.536zm10.12 3.168c-2.17-1.701-4.224-3.315-6.16-4.84l6.16-4.664h24.024l6.16 4.664-6.16 4.84h-24.024zM150.425.336h39.248l-8.536 9.504h-21.736L150.425.336zm-2.728 43.12V4.12l9.416 8.536V34.48l-9.416 8.976zm71.879 46.288l9.064-9.504h21.736l8.536 9.504h-39.336zm-2.64-43.208l9.504 9.152v21.56l-9.504 8.624V46.536zm44.792 39.336l-9.504-9.064V55.16l9.504-8.624v39.336zm-34.584-36.168a252.279 252.279 0 00-6.248-4.84l6.248-4.664h24.024l6.16 4.664-6.16 4.84h-24.024zM219.488.336h39.336l-8.712 9.504h-21.56L219.488.336zm-2.816 43.12V4.12l9.504 8.536V34.48l-9.504 8.976zM261.464 4.12v39.336l-9.504-8.536V13.184l9.504-9.064zm63.255 19.712l-30.272 59.84V61.32l30.272-59.576v22.088zm49.615 45.408h-22.088l33.264-24.024 22.176-.088-33.352 24.112zm0-53.064L407.686 40.2H385.51l-33.264-24.112 22.088.088z"/><defs><linearGradient id="ka" x1="204" y1="-5" x2="204" y2="90" gradientUnits="userSpaceOnUse"><stop offset=".297" stop-color="#BB3AF4"/><stop offset=".745" stop-color="#1EB3F6"/></linearGradient></defs></svg><svg viewBox="0 0 208 79" id="logo9" xmlns="http://www.w3.org/2000/svg"><path d="M15.973 57.824h5.176v-5.177h-5.176v5.177zm0 0h5.176v-5.177h-5.176v5.177zm0 0h5.176v-5.177h-5.176v5.177zm0 0h5.176v-5.177h-5.176v5.177zm0 0h5.176v-5.177h-5.176v5.177zm0 0h5.176v-5.177h-5.176v5.177zm0 0h5.176v-5.177h-5.176v5.177zm0 0h5.176v-5.177h-5.176v5.177zm0 0h5.176v-5.177h-5.176v5.177zm-5.177-5.177h5.177v-5.176h-5.177v5.176zm0 0h5.177v-5.176h-5.177v5.176zm0 0h5.177v-5.176h-5.177v5.176zm0 0h5.177v-5.176h-5.177v5.176zm0 0h5.177v-5.176h-5.177v5.176zm0 0h5.177v-5.176h-5.177v5.176zm0 0h5.177v-5.176h-5.177v5.176zm0 0h5.177v-5.176h-5.177v5.176zm0 0h5.177v-5.176h-5.177v5.176zM5.62 47.471h5.176v-5.177H5.62v5.177zm0 0h5.176v-5.177H5.62v5.177zm0 0h5.176v-5.177H5.62v5.177zm0 0h5.176v-5.177H5.62v5.177zm0 0h5.176v-5.177H5.62v5.177zm0 0h5.176v-5.177H5.62v5.177zm0 0h5.176v-5.177H5.62v5.177zm0 0h5.176v-5.177H5.62v5.177zm0 0h5.176v-5.177H5.62v5.177zM.443 42.294H5.62v-5.176H.443v5.176zm0 0H5.62v-5.176H.443v5.176zm0 0H5.62v-5.176H.443v5.176zm0 0H5.62v-5.176H.443v5.176zm0 0H5.62v-5.176H.443v5.176zm0 0H5.62v-5.176H.443v5.176zm0 0H5.62v-5.176H.443v5.176zm0 0H5.62v-5.176H.443v5.176zm0 0H5.62v-5.176H.443v5.176zm5.177-5.176h5.176V31.94H5.62v5.177zm0 0h5.176V31.94H5.62v5.177zm0 0h5.176V31.94H5.62v5.177zm0 0h5.176V31.94H5.62v5.177zm0 0h5.176V31.94H5.62v5.177zm0 0h5.176V31.94H5.62v5.177zm0 0h5.176V31.94H5.62v5.177zm0 0h5.176V31.94H5.62v5.177zm0 0h5.176V31.94H5.62v5.177zm5.176-5.177h5.177v-5.176h-5.177v5.176zm0 0h5.177v-5.176h-5.177v5.176zm0 0h5.177v-5.176h-5.177v5.176zm0 0h5.177v-5.176h-5.177v5.176zm0 0h5.177v-5.176h-5.177v5.176zm0 0h5.177v-5.176h-5.177v5.176zm0 0h5.177v-5.176h-5.177v5.176zm0 0h5.177v-5.176h-5.177v5.176zm0 0h5.177v-5.176h-5.177v5.176zm5.177-5.176h5.176v-5.177h-5.176v5.177zm0 0h5.176v-5.177h-5.176v5.177zm0 0h5.176v-5.177h-5.176v5.177zm0 0h5.176v-5.177h-5.176v5.177zm0 0h5.176v-5.177h-5.176v5.177zm0 0h5.176v-5.177h-5.176v5.177zm0 0h5.176v-5.177h-5.176v5.177zm0 0h5.176v-5.177h-5.176v5.177zm0 0h5.176v-5.177h-5.176v5.177zM41.886 63h5.176v-5.176h-5.176V63zm0 0h5.176v-5.176h-5.176V63zm0 0h5.176v-5.176h-5.176V63zm0 0h5.176v-5.176h-5.176V63zm0 0h5.176v-5.176h-5.176V63zm0 0h5.176v-5.176h-5.176V63zm0 0h5.176v-5.176h-5.176V63zm0 0h5.176v-5.176h-5.176V63zm0 0h5.176v-5.176h-5.176V63zm20.705 0h5.177v-5.176H62.59V63zm0 0h5.177v-5.176H62.59V63zm0 0h5.177v-5.176H62.59V63zm0 0h5.177v-5.176H62.59V63zm0 0h5.177v-5.176H62.59V63zm0 0h5.177v-5.176H62.59V63zm0 0h5.177v-5.176H62.59V63zm0 0h5.177v-5.176H62.59V63zm0 0h5.177v-5.176H62.59V63zm-23.294-5.176h5.177v-5.177h-5.177v5.177zm0 0h5.177v-5.177h-5.177v5.177zm0 0h5.177v-5.177h-5.177v5.177zm0 0h5.177v-5.177h-5.177v5.177zm0 0h5.177v-5.177h-5.177v5.177zm0 0h5.177v-5.177h-5.177v5.177zm0 0h5.177v-5.177h-5.177v5.177zm0 0h5.177v-5.177h-5.177v5.177zm0 0h5.177v-5.177h-5.177v5.177zm5.177 0h5.176v-5.177h-5.176v5.177zm0 0h5.176v-5.177h-5.176v5.177zm0 0h5.176v-5.177h-5.176v5.177zm0 0h5.176v-5.177h-5.176v5.177zm0 0h5.176v-5.177h-5.176v5.177zm0 0h5.176v-5.177h-5.176v5.177zm0 0h5.176v-5.177h-5.176v5.177zm0 0h5.176v-5.177h-5.176v5.177zm0 0h5.176v-5.177h-5.176v5.177zm15.53 0h5.176v-5.177h-5.177v5.177zm0 0h5.176v-5.177h-5.177v5.177zm0 0h5.176v-5.177h-5.177v5.177zm0 0h5.176v-5.177h-5.177v5.177zm0 0h5.176v-5.177h-5.177v5.177zm0 0h5.176v-5.177h-5.177v5.177zm0 0h5.176v-5.177h-5.177v5.177zm0 0h5.176v-5.177h-5.177v5.177zm0 0h5.176v-5.177h-5.177v5.177zm5.176 0h5.176v-5.177H65.18v5.177zm0 0h5.176v-5.177H65.18v5.177zm0 0h5.176v-5.177H65.18v5.177zm0 0h5.176v-5.177H65.18v5.177zm0 0h5.176v-5.177H65.18v5.177zm0 0h5.176v-5.177H65.18v5.177zm0 0h5.176v-5.177H65.18v5.177zm0 0h5.176v-5.177H65.18v5.177zm0 0h5.176v-5.177H65.18v5.177zm-28.47-5.177h5.176v-5.176h-5.177v5.176zm0 0h5.176v-5.176h-5.177v5.176zm0 0h5.176v-5.176h-5.177v5.176zm0 0h5.176v-5.176h-5.177v5.176zm0 0h5.176v-5.176h-5.177v5.176zm0 0h5.176v-5.176h-5.177v5.176zm0 0h5.176v-5.176h-5.177v5.176zm0 0h5.176v-5.176h-5.177v5.176zm0 0h5.176v-5.176h-5.177v5.176zm10.352 0h5.177v-5.176h-5.177v5.176zm0 0h5.177v-5.176h-5.177v5.176zm0 0h5.177v-5.176h-5.177v5.176zm0 0h5.177v-5.176h-5.177v5.176zm0 0h5.177v-5.176h-5.177v5.176zm0 0h5.177v-5.176h-5.177v5.176zm0 0h5.177v-5.176h-5.177v5.176zm0 0h5.177v-5.176h-5.177v5.176zm0 0h5.177v-5.176h-5.177v5.176zm10.353 0h5.176v-5.176h-5.176v5.176zm0 0h5.176v-5.176h-5.176v5.176zm0 0h5.176v-5.176h-5.176v5.176zm0 0h5.176v-5.176h-5.176v5.176zm0 0h5.176v-5.176h-5.176v5.176zm0 0h5.176v-5.176h-5.176v5.176zm0 0h5.176v-5.176h-5.176v5.176zm0 0h5.176v-5.176h-5.176v5.176zm0 0h5.176v-5.176h-5.176v5.176zm10.353 0h5.176v-5.176h-5.176v5.176zm0 0h5.176v-5.176h-5.176v5.176zm0 0h5.176v-5.176h-5.176v5.176zm0 0h5.176v-5.176h-5.176v5.176zm0 0h5.176v-5.176h-5.176v5.176zm0 0h5.176v-5.176h-5.176v5.176zm0 0h5.176v-5.176h-5.176v5.176zm0 0h5.176v-5.176h-5.176v5.176zm0 0h5.176v-5.176h-5.176v5.176zM34.12 47.471h5.176v-5.177H34.12v5.177zm0 0h5.176v-5.177H34.12v5.177zm0 0h5.176v-5.177H34.12v5.177zm0 0h5.176v-5.177H34.12v5.177zm0 0h5.176v-5.177H34.12v5.177zm0 0h5.176v-5.177H34.12v5.177zm0 0h5.176v-5.177H34.12v5.177zm0 0h5.176v-5.177H34.12v5.177zm0 0h5.176v-5.177H34.12v5.177zm15.53 0h5.176v-5.177H49.65v5.177zm0 0h5.176v-5.177H49.65v5.177zm0 0h5.176v-5.177H49.65v5.177zm0 0h5.176v-5.177H49.65v5.177zm0 0h5.176v-5.177H49.65v5.177zm0 0h5.176v-5.177H49.65v5.177zm0 0h5.176v-5.177H49.65v5.177zm0 0h5.176v-5.177H49.65v5.177zm0 0h5.176v-5.177H49.65v5.177zm5.176 0h5.176v-5.177h-5.176v5.177zm0 0h5.176v-5.177h-5.176v5.177zm0 0h5.176v-5.177h-5.176v5.177zm0 0h5.176v-5.177h-5.176v5.177zm0 0h5.176v-5.177h-5.176v5.177zm0 0h5.176v-5.177h-5.176v5.177zm0 0h5.176v-5.177h-5.176v5.177zm0 0h5.176v-5.177h-5.176v5.177zm0 0h5.176v-5.177h-5.176v5.177zm15.53 0h5.176v-5.177h-5.177v5.177zm0 0h5.176v-5.177h-5.177v5.177zm0 0h5.176v-5.177h-5.177v5.177zm0 0h5.176v-5.177h-5.177v5.177zm0 0h5.176v-5.177h-5.177v5.177zm0 0h5.176v-5.177h-5.177v5.177zm0 0h5.176v-5.177h-5.177v5.177zm0 0h5.176v-5.177h-5.177v5.177zm0 0h5.176v-5.177h-5.177v5.177zm-38.824-5.177h5.176v-5.176h-5.176v5.176zm0 0h5.176v-5.176h-5.176v5.176zm0 0h5.176v-5.176h-5.176v5.176zm0 0h5.176v-5.176h-5.176v5.176zm0 0h5.176v-5.176h-5.176v5.176zm0 0h5.176v-5.176h-5.176v5.176zm0 0h5.176v-5.176h-5.176v5.176zm0 0h5.176v-5.176h-5.176v5.176zm0 0h5.176v-5.176h-5.176v5.176zm20.706 0h5.176v-5.176h-5.176v5.176zm0 0h5.176v-5.176h-5.176v5.176zm0 0h5.176v-5.176h-5.176v5.176zm0 0h5.176v-5.176h-5.176v5.176zm0 0h5.176v-5.176h-5.176v5.176zm0 0h5.176v-5.176h-5.176v5.176zm0 0h5.176v-5.176h-5.176v5.176zm0 0h5.176v-5.176h-5.176v5.176zm0 0h5.176v-5.176h-5.176v5.176zm20.705 0h5.177v-5.176h-5.177v5.176zm0 0h5.177v-5.176h-5.177v5.176zm0 0h5.177v-5.176h-5.177v5.176zm0 0h5.177v-5.176h-5.177v5.176zm0 0h5.177v-5.176h-5.177v5.176zm0 0h5.177v-5.176h-5.177v5.176zm0 0h5.177v-5.176h-5.177v5.176zm0 0h5.177v-5.176h-5.177v5.176zm0 0h5.177v-5.176h-5.177v5.176zm-41.411-5.176h5.176V31.94h-5.176v5.177zm0 0h5.176V31.94h-5.176v5.177zm0 0h5.176V31.94h-5.176v5.177zm0 0h5.176V31.94h-5.176v5.177zm0 0h5.176V31.94h-5.176v5.177zm0 0h5.176V31.94h-5.176v5.177zm0 0h5.176V31.94h-5.176v5.177zm0 0h5.176V31.94h-5.176v5.177zm0 0h5.176V31.94h-5.176v5.177zm20.706 0h5.176V31.94h-5.176v5.177zm0 0h5.176V31.94h-5.176v5.177zm0 0h5.176V31.94h-5.176v5.177zm0 0h5.176V31.94h-5.176v5.177zm0 0h5.176V31.94h-5.176v5.177zm0 0h5.176V31.94h-5.176v5.177zm0 0h5.176V31.94h-5.176v5.177zm0 0h5.176V31.94h-5.176v5.177zm0 0h5.176V31.94h-5.176v5.177zm20.705 0h5.177V31.94h-5.177v5.177zm0 0h5.177V31.94h-5.177v5.177zm0 0h5.177V31.94h-5.177v5.177zm0 0h5.177V31.94h-5.177v5.177zm0 0h5.177V31.94h-5.177v5.177zm0 0h5.177V31.94h-5.177v5.177zm0 0h5.177V31.94h-5.177v5.177zm0 0h5.177V31.94h-5.177v5.177zm0 0h5.177V31.94h-5.177v5.177zm-41.41-5.178h5.176v-5.176h-5.176v5.176zm0 0h5.176v-5.176h-5.176v5.176zm0 0h5.176v-5.176h-5.176v5.176zm0 0h5.176v-5.176h-5.176v5.176zm0 0h5.176v-5.176h-5.176v5.176zm0 0h5.176v-5.176h-5.176v5.176zm0 0h5.176v-5.176h-5.176v5.176zm0 0h5.176v-5.176h-5.176v5.176zm0 0h5.176v-5.176h-5.176v5.176zm20.706 0h5.176v-5.176h-5.176v5.176zm0 0h5.176v-5.176h-5.176v5.176zm0 0h5.176v-5.176h-5.176v5.176zm0 0h5.176v-5.176h-5.176v5.176zm0 0h5.176v-5.176h-5.176v5.176zm0 0h5.176v-5.176h-5.176v5.176zm0 0h5.176v-5.176h-5.176v5.176zm0 0h5.176v-5.176h-5.176v5.176zm0 0h5.176v-5.176h-5.176v5.176zm20.705 0h5.177v-5.176h-5.177v5.176zm0 0h5.177v-5.176h-5.177v5.176zm0 0h5.177v-5.176h-5.177v5.176zm0 0h5.177v-5.176h-5.177v5.176zm0 0h5.177v-5.176h-5.177v5.176zm0 0h5.177v-5.176h-5.177v5.176zm0 0h5.177v-5.176h-5.177v5.176zm0 0h5.177v-5.176h-5.177v5.176zm0 0h5.177v-5.176h-5.177v5.176zm-41.411-5.176h5.176v-5.177h-5.176v5.177zm0 0h5.176v-5.177h-5.176v5.177zm0 0h5.176v-5.177h-5.176v5.177zm0 0h5.176v-5.177h-5.176v5.177zm0 0h5.176v-5.177h-5.176v5.177zm0 0h5.176v-5.177h-5.176v5.177zm0 0h5.176v-5.177h-5.176v5.177zm0 0h5.176v-5.177h-5.176v5.177zm0 0h5.176v-5.177h-5.176v5.177zm20.706 0h5.176v-5.177h-5.176v5.177zm0 0h5.176v-5.177h-5.176v5.177zm0 0h5.176v-5.177h-5.176v5.177zm0 0h5.176v-5.177h-5.176v5.177zm0 0h5.176v-5.177h-5.176v5.177zm0 0h5.176v-5.177h-5.176v5.177zm0 0h5.176v-5.177h-5.176v5.177zm0 0h5.176v-5.177h-5.176v5.177zm0 0h5.176v-5.177h-5.176v5.177zm20.705 0h5.177v-5.177h-5.177v5.177zm0 0h5.177v-5.177h-5.177v5.177zm0 0h5.177v-5.177h-5.177v5.177zm0 0h5.177v-5.177h-5.177v5.177zm0 0h5.177v-5.177h-5.177v5.177zm0 0h5.177v-5.177h-5.177v5.177zm0 0h5.177v-5.177h-5.177v5.177zm0 0h5.177v-5.177h-5.177v5.177zm0 0h5.177v-5.177h-5.177v5.177zm-41.411-5.177h5.176v-5.176h-5.176v5.176zm0 0h5.176v-5.176h-5.176v5.176zm0 0h5.176v-5.176h-5.176v5.176zm0 0h5.176v-5.176h-5.176v5.176zm0 0h5.176v-5.176h-5.176v5.176zm0 0h5.176v-5.176h-5.176v5.176zm0 0h5.176v-5.176h-5.176v5.176zm0 0h5.176v-5.176h-5.176v5.176zm0 0h5.176v-5.176h-5.176v5.176zm20.706 0h5.176v-5.176h-5.176v5.176zm0 0h5.176v-5.176h-5.176v5.176zm0 0h5.176v-5.176h-5.176v5.176zm0 0h5.176v-5.176h-5.176v5.176zm0 0h5.176v-5.176h-5.176v5.176zm0 0h5.176v-5.176h-5.176v5.176zm0 0h5.176v-5.176h-5.176v5.176zm0 0h5.176v-5.176h-5.176v5.176zm0 0h5.176v-5.176h-5.176v5.176zm20.705 0h5.177v-5.176h-5.177v5.176zm0 0h5.177v-5.176h-5.177v5.176zm0 0h5.177v-5.176h-5.177v5.176zm0 0h5.177v-5.176h-5.177v5.176zm0 0h5.177v-5.176h-5.177v5.176zm0 0h5.177v-5.176h-5.177v5.176zm0 0h5.177v-5.176h-5.177v5.176zm0 0h5.177v-5.176h-5.177v5.176zm0 0h5.177v-5.176h-5.177v5.176zm-41.411-5.176h5.176v-5.177h-5.176v5.177zm0 0h5.176v-5.177h-5.176v5.177zm0 0h5.176v-5.177h-5.176v5.177zm0 0h5.176v-5.177h-5.176v5.177zm0 0h5.176v-5.177h-5.176v5.177zm0 0h5.176v-5.177h-5.176v5.177zm0 0h5.176v-5.177h-5.176v5.177zm0 0h5.176v-5.177h-5.176v5.177zm0 0h5.176v-5.177h-5.176v5.177zm20.706 0h5.176v-5.177h-5.176v5.177zm0 0h5.176v-5.177h-5.176v5.177zm0 0h5.176v-5.177h-5.176v5.177zm0 0h5.176v-5.177h-5.176v5.177zm0 0h5.176v-5.177h-5.176v5.177zm0 0h5.176v-5.177h-5.176v5.177zm0 0h5.176v-5.177h-5.176v5.177zm0 0h5.176v-5.177h-5.176v5.177zm0 0h5.176v-5.177h-5.176v5.177zm20.705 0h5.177v-5.177h-5.177v5.177zm0 0h5.177v-5.177h-5.177v5.177zm0 0h5.177v-5.177h-5.177v5.177zm0 0h5.177v-5.177h-5.177v5.177zm0 0h5.177v-5.177h-5.177v5.177zm0 0h5.177v-5.177h-5.177v5.177zm0 0h5.177v-5.177h-5.177v5.177zm0 0h5.177v-5.177h-5.177v5.177zm0 0h5.177v-5.177h-5.177v5.177zm-41.411-5.177h5.176V6.06h-5.176v5.176zm0 0h5.176V6.06h-5.176v5.176zm0 0h5.176V6.06h-5.176v5.176zm0 0h5.176V6.06h-5.176v5.176zm0 0h5.176V6.06h-5.176v5.176zm0 0h5.176V6.06h-5.176v5.176zm0 0h5.176V6.06h-5.176v5.176zm0 0h5.176V6.06h-5.176v5.176zm0 0h5.176V6.06h-5.176v5.176zm20.706 0h5.176V6.06h-5.176v5.176zm0 0h5.176V6.06h-5.176v5.176zm0 0h5.176V6.06h-5.176v5.176zm0 0h5.176V6.06h-5.176v5.176zm0 0h5.176V6.06h-5.176v5.176zm0 0h5.176V6.06h-5.176v5.176zm0 0h5.176V6.06h-5.176v5.176zm0 0h5.176V6.06h-5.176v5.176zm0 0h5.176V6.06h-5.176v5.176zm20.705 0h5.177V6.06h-5.177v5.176zm0 0h5.177V6.06h-5.177v5.176zm0 0h5.177V6.06h-5.177v5.176zm0 0h5.177V6.06h-5.177v5.176zm0 0h5.177V6.06h-5.177v5.176zm0 0h5.177V6.06h-5.177v5.176zm0 0h5.177V6.06h-5.177v5.176zm0 0h5.177V6.06h-5.177v5.176zm0 0h5.177V6.06h-5.177v5.176zM91.032 63h5.176v-5.176h-5.176V63zm0 0h5.176v-5.176h-5.176V63zm0 0h5.176v-5.176h-5.176V63zm0 0h5.176v-5.176h-5.176V63zm0 0h5.176v-5.176h-5.176V63zm0 0h5.176v-5.176h-5.176V63zm0 0h5.176v-5.176h-5.176V63zm0 0h5.176v-5.176h-5.176V63zm0 0h5.176v-5.176h-5.176V63zm5.176 0h5.177v-5.176h-5.177V63zm0 0h5.177v-5.176h-5.177V63zm0 0h5.177v-5.176h-5.177V63zm0 0h5.177v-5.176h-5.177V63zm0 0h5.177v-5.176h-5.177V63zm0 0h5.177v-5.176h-5.177V63zm0 0h5.177v-5.176h-5.177V63zm0 0h5.177v-5.176h-5.177V63zm0 0h5.177v-5.176h-5.177V63zm5.177 0h5.176v-5.176h-5.176V63zm0 0h5.176v-5.176h-5.176V63zm0 0h5.176v-5.176h-5.176V63zm0 0h5.176v-5.176h-5.176V63zm0 0h5.176v-5.176h-5.176V63zm0 0h5.176v-5.176h-5.176V63zm0 0h5.176v-5.176h-5.176V63zm0 0h5.176v-5.176h-5.176V63zm0 0h5.176v-5.176h-5.176V63zm-15.53-5.176h5.177v-5.177h-5.177v5.177zm0 0h5.177v-5.177h-5.177v5.177zm0 0h5.177v-5.177h-5.177v5.177zm0 0h5.177v-5.177h-5.177v5.177zm0 0h5.177v-5.177h-5.177v5.177zm0 0h5.177v-5.177h-5.177v5.177zm0 0h5.177v-5.177h-5.177v5.177zm0 0h5.177v-5.177h-5.177v5.177zm0 0h5.177v-5.177h-5.177v5.177zm20.706 0h5.177v-5.177h-5.177v5.177zm0 0h5.177v-5.177h-5.177v5.177zm0 0h5.177v-5.177h-5.177v5.177zm0 0h5.177v-5.177h-5.177v5.177zm0 0h5.177v-5.177h-5.177v5.177zm0 0h5.177v-5.177h-5.177v5.177zm0 0h5.177v-5.177h-5.177v5.177zm0 0h5.177v-5.177h-5.177v5.177zm0 0h5.177v-5.177h-5.177v5.177zm-20.706-5.177h5.177v-5.176h-5.177v5.176zm0 0h5.177v-5.176h-5.177v5.176zm0 0h5.177v-5.176h-5.177v5.176zm0 0h5.177v-5.176h-5.177v5.176zm0 0h5.177v-5.176h-5.177v5.176zm0 0h5.177v-5.176h-5.177v5.176zm0 0h5.177v-5.176h-5.177v5.176zm0 0h5.177v-5.176h-5.177v5.176zm0 0h5.177v-5.176h-5.177v5.176zm0-5.176h5.177v-5.177h-5.177v5.177zm0 0h5.177v-5.177h-5.177v5.177zm0 0h5.177v-5.177h-5.177v5.177zm0 0h5.177v-5.177h-5.177v5.177zm0 0h5.177v-5.177h-5.177v5.177zm0 0h5.177v-5.177h-5.177v5.177zm0 0h5.177v-5.177h-5.177v5.177zm0 0h5.177v-5.177h-5.177v5.177zm0 0h5.177v-5.177h-5.177v5.177zm0-5.177h5.177v-5.176h-5.177v5.176zm0 0h5.177v-5.176h-5.177v5.176zm0 0h5.177v-5.176h-5.177v5.176zm0 0h5.177v-5.176h-5.177v5.176zm0 0h5.177v-5.176h-5.177v5.176zm0 0h5.177v-5.176h-5.177v5.176zm0 0h5.177v-5.176h-5.177v5.176zm0 0h5.177v-5.176h-5.177v5.176zm0 0h5.177v-5.176h-5.177v5.176zm5.177 0h5.176v-5.176h-5.176v5.176zm0 0h5.176v-5.176h-5.176v5.176zm0 0h5.176v-5.176h-5.176v5.176zm0 0h5.176v-5.176h-5.176v5.176zm0 0h5.176v-5.176h-5.176v5.176zm0 0h5.176v-5.176h-5.176v5.176zm0 0h5.176v-5.176h-5.176v5.176zm0 0h5.176v-5.176h-5.176v5.176zm0 0h5.176v-5.176h-5.176v5.176zm5.176 0h5.177v-5.176h-5.177v5.176zm0 0h5.177v-5.176h-5.177v5.176zm0 0h5.177v-5.176h-5.177v5.176zm0 0h5.177v-5.176h-5.177v5.176zm0 0h5.177v-5.176h-5.177v5.176zm0 0h5.177v-5.176h-5.177v5.176zm0 0h5.177v-5.176h-5.177v5.176zm0 0h5.177v-5.176h-5.177v5.176zm0 0h5.177v-5.176h-5.177v5.176zm5.177 0h5.176v-5.176h-5.176v5.176zm0 0h5.176v-5.176h-5.176v5.176zm0 0h5.176v-5.176h-5.176v5.176zm0 0h5.176v-5.176h-5.176v5.176zm0 0h5.176v-5.176h-5.176v5.176zm0 0h5.176v-5.176h-5.176v5.176zm0 0h5.176v-5.176h-5.176v5.176zm0 0h5.176v-5.176h-5.176v5.176zm0 0h5.176v-5.176h-5.176v5.176zm5.176 0h5.177v-5.176h-5.177v5.176zm0 0h5.177v-5.176h-5.177v5.176zm0 0h5.177v-5.176h-5.177v5.176zm0 0h5.177v-5.176h-5.177v5.176zm0 0h5.177v-5.176h-5.177v5.176zm0 0h5.177v-5.176h-5.177v5.176zm0 0h5.177v-5.176h-5.177v5.176zm0 0h5.177v-5.176h-5.177v5.176zm0 0h5.177v-5.176h-5.177v5.176zm-20.706-5.176h5.177V31.94h-5.177v5.177zm0 0h5.177V31.94h-5.177v5.177zm0 0h5.177V31.94h-5.177v5.177zm0 0h5.177V31.94h-5.177v5.177zm0 0h5.177V31.94h-5.177v5.177zm0 0h5.177V31.94h-5.177v5.177zm0 0h5.177V31.94h-5.177v5.177zm0 0h5.177V31.94h-5.177v5.177zm0 0h5.177V31.94h-5.177v5.177zm20.706 0h5.177V31.94h-5.177v5.177zm0 0h5.177V31.94h-5.177v5.177zm0 0h5.177V31.94h-5.177v5.177zm0 0h5.177V31.94h-5.177v5.177zm0 0h5.177V31.94h-5.177v5.177zm0 0h5.177V31.94h-5.177v5.177zm0 0h5.177V31.94h-5.177v5.177zm0 0h5.177V31.94h-5.177v5.177zm0 0h5.177V31.94h-5.177v5.177zM85.855 31.94h5.177v-5.176h-5.177v5.176zm0 0h5.177v-5.176h-5.177v5.176zm0 0h5.177v-5.176h-5.177v5.176zm0 0h5.177v-5.176h-5.177v5.176zm0 0h5.177v-5.176h-5.177v5.176zm0 0h5.177v-5.176h-5.177v5.176zm0 0h5.177v-5.176h-5.177v5.176zm0 0h5.177v-5.176h-5.177v5.176zm0 0h5.177v-5.176h-5.177v5.176zm20.706 0h5.177v-5.176h-5.177v5.176zm0 0h5.177v-5.176h-5.177v5.176zm0 0h5.177v-5.176h-5.177v5.176zm0 0h5.177v-5.176h-5.177v5.176zm0 0h5.177v-5.176h-5.177v5.176zm0 0h5.177v-5.176h-5.177v5.176zm0 0h5.177v-5.176h-5.177v5.176zm0 0h5.177v-5.176h-5.177v5.176zm0 0h5.177v-5.176h-5.177v5.176zm-15.53-5.176h5.177v-5.177h-5.176v5.177zm0 0h5.177v-5.177h-5.176v5.177zm0 0h5.177v-5.177h-5.176v5.177zm0 0h5.177v-5.177h-5.176v5.177zm0 0h5.177v-5.177h-5.176v5.177zm0 0h5.177v-5.177h-5.176v5.177zm0 0h5.177v-5.177h-5.176v5.177zm0 0h5.177v-5.177h-5.176v5.177zm0 0h5.177v-5.177h-5.176v5.177zm5.177 0h5.177v-5.177h-5.177v5.177zm0 0h5.177v-5.177h-5.177v5.177zm0 0h5.177v-5.177h-5.177v5.177zm0 0h5.177v-5.177h-5.177v5.177zm0 0h5.177v-5.177h-5.177v5.177zm0 0h5.177v-5.177h-5.177v5.177zm0 0h5.177v-5.177h-5.177v5.177zm0 0h5.177v-5.177h-5.177v5.177zm0 0h5.177v-5.177h-5.177v5.177zm5.177 0h5.176v-5.177h-5.176v5.177zm0 0h5.176v-5.177h-5.176v5.177zm0 0h5.176v-5.177h-5.176v5.177zm0 0h5.176v-5.177h-5.176v5.177zm0 0h5.176v-5.177h-5.176v5.177zm0 0h5.176v-5.177h-5.176v5.177zm0 0h5.176v-5.177h-5.176v5.177zm0 0h5.176v-5.177h-5.176v5.177zm0 0h5.176v-5.177h-5.176v5.177zM119.543 63h5.176v-5.176h-5.176V63zm0 0h5.176v-5.176h-5.176V63zm0 0h5.176v-5.176h-5.176V63zm0 0h5.176v-5.176h-5.176V63zm0 0h5.176v-5.176h-5.176V63zm0 0h5.176v-5.176h-5.176V63zm0 0h5.176v-5.176h-5.176V63zm0 0h5.176v-5.176h-5.176V63zm0 0h5.176v-5.176h-5.176V63zm10.353 0h5.176v-5.176h-5.176V63zm0 0h5.176v-5.176h-5.176V63zm0 0h5.176v-5.176h-5.176V63zm0 0h5.176v-5.176h-5.176V63zm0 0h5.176v-5.176h-5.176V63zm0 0h5.176v-5.176h-5.176V63zm0 0h5.176v-5.176h-5.176V63zm0 0h5.176v-5.176h-5.176V63zm0 0h5.176v-5.176h-5.176V63zm5.176 0h5.177v-5.176h-5.177V63zm0 0h5.177v-5.176h-5.177V63zm0 0h5.177v-5.176h-5.177V63zm0 0h5.177v-5.176h-5.177V63zm0 0h5.177v-5.176h-5.177V63zm0 0h5.177v-5.176h-5.177V63zm0 0h5.177v-5.176h-5.177V63zm0 0h5.177v-5.176h-5.177V63zm0 0h5.177v-5.176h-5.177V63zm-15.529-5.176h5.176v-5.177h-5.176v5.177zm0 0h5.176v-5.177h-5.176v5.177zm0 0h5.176v-5.177h-5.176v5.177zm0 0h5.176v-5.177h-5.176v5.177zm0 0h5.176v-5.177h-5.176v5.177zm0 0h5.176v-5.177h-5.176v5.177zm0 0h5.176v-5.177h-5.176v5.177zm0 0h5.176v-5.177h-5.176v5.177zm0 0h5.176v-5.177h-5.176v5.177zm5.176 0h5.177v-5.177h-5.177v5.177zm0 0h5.177v-5.177h-5.177v5.177zm0 0h5.177v-5.177h-5.177v5.177zm0 0h5.177v-5.177h-5.177v5.177zm0 0h5.177v-5.177h-5.177v5.177zm0 0h5.177v-5.177h-5.177v5.177zm0 0h5.177v-5.177h-5.177v5.177zm0 0h5.177v-5.177h-5.177v5.177zm0 0h5.177v-5.177h-5.177v5.177zm15.53 0h5.176v-5.177h-5.176v5.177zm0 0h5.176v-5.177h-5.176v5.177zm0 0h5.176v-5.177h-5.176v5.177zm0 0h5.176v-5.177h-5.176v5.177zm0 0h5.176v-5.177h-5.176v5.177zm0 0h5.176v-5.177h-5.176v5.177zm0 0h5.176v-5.177h-5.176v5.177zm0 0h5.176v-5.177h-5.176v5.177zm0 0h5.176v-5.177h-5.176v5.177zm-20.706-5.177h5.176v-5.176h-5.176v5.176zm0 0h5.176v-5.176h-5.176v5.176zm0 0h5.176v-5.176h-5.176v5.176zm0 0h5.176v-5.176h-5.176v5.176zm0 0h5.176v-5.176h-5.176v5.176zm0 0h5.176v-5.176h-5.176v5.176zm0 0h5.176v-5.176h-5.176v5.176zm0 0h5.176v-5.176h-5.176v5.176zm0 0h5.176v-5.176h-5.176v5.176zm20.706 0h5.176v-5.176h-5.176v5.176zm0 0h5.176v-5.176h-5.176v5.176zm0 0h5.176v-5.176h-5.176v5.176zm0 0h5.176v-5.176h-5.176v5.176zm0 0h5.176v-5.176h-5.176v5.176zm0 0h5.176v-5.176h-5.176v5.176zm0 0h5.176v-5.176h-5.176v5.176zm0 0h5.176v-5.176h-5.176v5.176zm0 0h5.176v-5.176h-5.176v5.176zm-20.706-5.176h5.176v-5.177h-5.176v5.177zm0 0h5.176v-5.177h-5.176v5.177zm0 0h5.176v-5.177h-5.176v5.177zm0 0h5.176v-5.177h-5.176v5.177zm0 0h5.176v-5.177h-5.176v5.177zm0 0h5.176v-5.177h-5.176v5.177zm0 0h5.176v-5.177h-5.176v5.177zm0 0h5.176v-5.177h-5.176v5.177zm0 0h5.176v-5.177h-5.176v5.177zm20.706 0h5.176v-5.177h-5.176v5.177zm0 0h5.176v-5.177h-5.176v5.177zm0 0h5.176v-5.177h-5.176v5.177zm0 0h5.176v-5.177h-5.176v5.177zm0 0h5.176v-5.177h-5.176v5.177zm0 0h5.176v-5.177h-5.176v5.177zm0 0h5.176v-5.177h-5.176v5.177zm0 0h5.176v-5.177h-5.176v5.177zm0 0h5.176v-5.177h-5.176v5.177zm-20.706-5.177h5.176v-5.176h-5.176v5.176zm0 0h5.176v-5.176h-5.176v5.176zm0 0h5.176v-5.176h-5.176v5.176zm0 0h5.176v-5.176h-5.176v5.176zm0 0h5.176v-5.176h-5.176v5.176zm0 0h5.176v-5.176h-5.176v5.176zm0 0h5.176v-5.176h-5.176v5.176zm0 0h5.176v-5.176h-5.176v5.176zm0 0h5.176v-5.176h-5.176v5.176zm20.706 0h5.176v-5.176h-5.176v5.176zm0 0h5.176v-5.176h-5.176v5.176zm0 0h5.176v-5.176h-5.176v5.176zm0 0h5.176v-5.176h-5.176v5.176zm0 0h5.176v-5.176h-5.176v5.176zm0 0h5.176v-5.176h-5.176v5.176zm0 0h5.176v-5.176h-5.176v5.176zm0 0h5.176v-5.176h-5.176v5.176zm0 0h5.176v-5.176h-5.176v5.176zm-20.706-5.176h5.176V31.94h-5.176v5.177zm0 0h5.176V31.94h-5.176v5.177zm0 0h5.176V31.94h-5.176v5.177zm0 0h5.176V31.94h-5.176v5.177zm0 0h5.176V31.94h-5.176v5.177zm0 0h5.176V31.94h-5.176v5.177zm0 0h5.176V31.94h-5.176v5.177zm0 0h5.176V31.94h-5.176v5.177zm0 0h5.176V31.94h-5.176v5.177zm20.706 0h5.176V31.94h-5.176v5.177zm0 0h5.176V31.94h-5.176v5.177zm0 0h5.176V31.94h-5.176v5.177zm0 0h5.176V31.94h-5.176v5.177zm0 0h5.176V31.94h-5.176v5.177zm0 0h5.176V31.94h-5.176v5.177zm0 0h5.176V31.94h-5.176v5.177zm0 0h5.176V31.94h-5.176v5.177zm0 0h5.176V31.94h-5.176v5.177zm-20.706-5.177h5.176v-5.176h-5.176v5.176zm0 0h5.176v-5.176h-5.176v5.176zm0 0h5.176v-5.176h-5.176v5.176zm0 0h5.176v-5.176h-5.176v5.176zm0 0h5.176v-5.176h-5.176v5.176zm0 0h5.176v-5.176h-5.176v5.176zm0 0h5.176v-5.176h-5.176v5.176zm0 0h5.176v-5.176h-5.176v5.176zm0 0h5.176v-5.176h-5.176v5.176zm5.176 0h5.177v-5.176h-5.177v5.176zm0 0h5.177v-5.176h-5.177v5.176zm0 0h5.177v-5.176h-5.177v5.176zm0 0h5.177v-5.176h-5.177v5.176zm0 0h5.177v-5.176h-5.177v5.176zm0 0h5.177v-5.176h-5.177v5.176zm0 0h5.177v-5.176h-5.177v5.176zm0 0h5.177v-5.176h-5.177v5.176zm0 0h5.177v-5.176h-5.177v5.176zm15.53 0h5.176v-5.176h-5.176v5.176zm0 0h5.176v-5.176h-5.176v5.176zm0 0h5.176v-5.176h-5.176v5.176zm0 0h5.176v-5.176h-5.176v5.176zm0 0h5.176v-5.176h-5.176v5.176zm0 0h5.176v-5.176h-5.176v5.176zm0 0h5.176v-5.176h-5.176v5.176zm0 0h5.176v-5.176h-5.176v5.176zm0 0h5.176v-5.176h-5.176v5.176zm-20.706-5.176h5.176v-5.177h-5.176v5.177zm0 0h5.176v-5.177h-5.176v5.177zm0 0h5.176v-5.177h-5.176v5.177zm0 0h5.176v-5.177h-5.176v5.177zm0 0h5.176v-5.177h-5.176v5.177zm0 0h5.176v-5.177h-5.176v5.177zm0 0h5.176v-5.177h-5.176v5.177zm0 0h5.176v-5.177h-5.176v5.177zm0 0h5.176v-5.177h-5.176v5.177zm10.353 0h5.176v-5.177h-5.176v5.177zm0 0h5.176v-5.177h-5.176v5.177zm0 0h5.176v-5.177h-5.176v5.177zm0 0h5.176v-5.177h-5.176v5.177zm0 0h5.176v-5.177h-5.176v5.177zm0 0h5.176v-5.177h-5.176v5.177zm0 0h5.176v-5.177h-5.176v5.177zm0 0h5.176v-5.177h-5.176v5.177zm0 0h5.176v-5.177h-5.176v5.177zm5.176 0h5.177v-5.177h-5.177v5.177zm0 0h5.177v-5.177h-5.177v5.177zm0 0h5.177v-5.177h-5.177v5.177zm0 0h5.177v-5.177h-5.177v5.177zm0 0h5.177v-5.177h-5.177v5.177zm0 0h5.177v-5.177h-5.177v5.177zm0 0h5.177v-5.177h-5.177v5.177zm0 0h5.177v-5.177h-5.177v5.177zm0 0h5.177v-5.177h-5.177v5.177zm-15.529-5.177h5.176v-5.176h-5.176v5.176zm0 0h5.176v-5.176h-5.176v5.176zm0 0h5.176v-5.176h-5.176v5.176zm0 0h5.176v-5.176h-5.176v5.176zm0 0h5.176v-5.176h-5.176v5.176zm0 0h5.176v-5.176h-5.176v5.176zm0 0h5.176v-5.176h-5.176v5.176zm0 0h5.176v-5.176h-5.176v5.176zm0 0h5.176v-5.176h-5.176v5.176zm0-5.176h5.176v-5.177h-5.176v5.177zm0 0h5.176v-5.177h-5.176v5.177zm0 0h5.176v-5.177h-5.176v5.177zm0 0h5.176v-5.177h-5.176v5.177zm0 0h5.176v-5.177h-5.176v5.177zm0 0h5.176v-5.177h-5.176v5.177zm0 0h5.176v-5.177h-5.176v5.177zm0 0h5.176v-5.177h-5.176v5.177zm0 0h5.176v-5.177h-5.176v5.177zm0-5.177h5.176V6.06h-5.176v5.176zm0 0h5.176V6.06h-5.176v5.176zm0 0h5.176V6.06h-5.176v5.176zm0 0h5.176V6.06h-5.176v5.176zm0 0h5.176V6.06h-5.176v5.176zm0 0h5.176V6.06h-5.176v5.176zm0 0h5.176V6.06h-5.176v5.176zm0 0h5.176V6.06h-5.176v5.176zm0 0h5.176V6.06h-5.176v5.176zm0-5.176h5.176V.882h-5.176V6.06zm0 0h5.176V.882h-5.176V6.06zm0 0h5.176V.882h-5.176V6.06zm0 0h5.176V.882h-5.176V6.06zm0 0h5.176V.882h-5.176V6.06zm0 0h5.176V.882h-5.176V6.06zm0 0h5.176V.882h-5.176V6.06zm0 0h5.176V.882h-5.176V6.06zm0 0h5.176V.882h-5.176V6.06zm25.912 72.47h5.177v-5.176h-5.177v5.176zm0 0h5.177v-5.176h-5.177v5.176zm0 0h5.177v-5.176h-5.177v5.176zm0 0h5.177v-5.176h-5.177v5.176zm0 0h5.177v-5.176h-5.177v5.176zm0 0h5.177v-5.176h-5.177v5.176zm0 0h5.177v-5.176h-5.177v5.176zm0 0h5.177v-5.176h-5.177v5.176zm0 0h5.177v-5.176h-5.177v5.176zm2.589-5.176h5.176v-5.176h-5.176v5.176zm0 0h5.176v-5.176h-5.176v5.176zm0 0h5.176v-5.176h-5.176v5.176zm0 0h5.176v-5.176h-5.176v5.176zm0 0h5.176v-5.176h-5.176v5.176zm0 0h5.176v-5.176h-5.176v5.176zm0 0h5.176v-5.176h-5.176v5.176zm0 0h5.176v-5.176h-5.176v5.176zm0 0h5.176v-5.176h-5.176v5.176zm2.588-5.176h5.176V63h-5.176v5.177zm0 0h5.176V63h-5.176v5.177zm0 0h5.176V63h-5.176v5.177zm0 0h5.176V63h-5.176v5.177zm0 0h5.176V63h-5.176v5.177zm0 0h5.176V63h-5.176v5.177zm0 0h5.176V63h-5.176v5.177zm0 0h5.176V63h-5.176v5.177zm0 0h5.176V63h-5.176v5.177zM153.22 63h5.177v-5.176h-5.177V63zm0 0h5.177v-5.176h-5.177V63zm0 0h5.177v-5.176h-5.177V63zm0 0h5.177v-5.176h-5.177V63zm0 0h5.177v-5.176h-5.177V63zm0 0h5.177v-5.176h-5.177V63zm0 0h5.177v-5.176h-5.177V63zm0 0h5.177v-5.176h-5.177V63zm0 0h5.177v-5.176h-5.177V63zm2.588-5.176h5.177v-5.177h-5.177v5.177zm0 0h5.177v-5.177h-5.177v5.177zm0 0h5.177v-5.177h-5.177v5.177zm0 0h5.177v-5.177h-5.177v5.177zm0 0h5.177v-5.177h-5.177v5.177zm0 0h5.177v-5.177h-5.177v5.177zm0 0h5.177v-5.177h-5.177v5.177zm0 0h5.177v-5.177h-5.177v5.177zm0 0h5.177v-5.177h-5.177v5.177zm2.589-5.177h5.176v-5.176h-5.176v5.176zm0 0h5.176v-5.176h-5.176v5.176zm0 0h5.176v-5.176h-5.176v5.176zm0 0h5.176v-5.176h-5.176v5.176zm0 0h5.176v-5.176h-5.176v5.176zm0 0h5.176v-5.176h-5.176v5.176zm0 0h5.176v-5.176h-5.176v5.176zm0 0h5.176v-5.176h-5.176v5.176zm0 0h5.176v-5.176h-5.176v5.176zm2.588-5.176h5.176v-5.177h-5.176v5.177zm0 0h5.176v-5.177h-5.176v5.177zm0 0h5.176v-5.177h-5.176v5.177zm0 0h5.176v-5.177h-5.176v5.177zm0 0h5.176v-5.177h-5.176v5.177zm0 0h5.176v-5.177h-5.176v5.177zm0 0h5.176v-5.177h-5.176v5.177zm0 0h5.176v-5.177h-5.176v5.177zm0 0h5.176v-5.177h-5.176v5.177zm2.588-5.177h5.177v-5.176h-5.177v5.176zm0 0h5.177v-5.176h-5.177v5.176zm0 0h5.177v-5.176h-5.177v5.176zm0 0h5.177v-5.176h-5.177v5.176zm0 0h5.177v-5.176h-5.177v5.176zm0 0h5.177v-5.176h-5.177v5.176zm0 0h5.177v-5.176h-5.177v5.176zm0 0h5.177v-5.176h-5.177v5.176zm0 0h5.177v-5.176h-5.177v5.176zm2.588-5.176h5.177V31.94h-5.177v5.177zm0 0h5.177V31.94h-5.177v5.177zm0 0h5.177V31.94h-5.177v5.177zm0 0h5.177V31.94h-5.177v5.177zm0 0h5.177V31.94h-5.177v5.177zm0 0h5.177V31.94h-5.177v5.177zm0 0h5.177V31.94h-5.177v5.177zm0 0h5.177V31.94h-5.177v5.177zm0 0h5.177V31.94h-5.177v5.177zm2.589-5.177h5.176v-5.176h-5.176v5.176zm0 0h5.176v-5.176h-5.176v5.176zm0 0h5.176v-5.176h-5.176v5.176zm0 0h5.176v-5.176h-5.176v5.176zm0 0h5.176v-5.176h-5.176v5.176zm0 0h5.176v-5.176h-5.176v5.176zm0 0h5.176v-5.176h-5.176v5.176zm0 0h5.176v-5.176h-5.176v5.176zm0 0h5.176v-5.176h-5.176v5.176zm2.588-5.176h5.176v-5.177h-5.176v5.177zm0 0h5.176v-5.177h-5.176v5.177zm0 0h5.176v-5.177h-5.176v5.177zm0 0h5.176v-5.177h-5.176v5.177zm0 0h5.176v-5.177h-5.176v5.177zm0 0h5.176v-5.177h-5.176v5.177zm0 0h5.176v-5.177h-5.176v5.177zm0 0h5.176v-5.177h-5.176v5.177zm0 0h5.176v-5.177h-5.176v5.177zm2.588-5.177h5.176v-5.176h-5.176v5.176zm0 0h5.176v-5.176h-5.176v5.176zm0 0h5.176v-5.176h-5.176v5.176zm0 0h5.176v-5.176h-5.176v5.176zm0 0h5.176v-5.176h-5.176v5.176zm0 0h5.176v-5.176h-5.176v5.176zm0 0h5.176v-5.176h-5.176v5.176zm0 0h5.176v-5.176h-5.176v5.176zm0 0h5.176v-5.176h-5.176v5.176zm2.588-5.176h5.177v-5.177h-5.177v5.177zm0 0h5.177v-5.177h-5.177v5.177zm0 0h5.177v-5.177h-5.177v5.177zm0 0h5.177v-5.177h-5.177v5.177zm0 0h5.177v-5.177h-5.177v5.177zm0 0h5.177v-5.177h-5.177v5.177zm0 0h5.177v-5.177h-5.177v5.177zm0 0h5.177v-5.177h-5.177v5.177zm0 0h5.177v-5.177h-5.177v5.177zm2.588-5.177h5.177V6.06h-5.177v5.176zm0 0h5.177V6.06h-5.177v5.176zm0 0h5.177V6.06h-5.177v5.176zm0 0h5.177V6.06h-5.177v5.176zm0 0h5.177V6.06h-5.177v5.176zm0 0h5.177V6.06h-5.177v5.176zm0 0h5.177V6.06h-5.177v5.176zm0 0h5.177V6.06h-5.177v5.176zm0 0h5.177V6.06h-5.177v5.176zm2.589-5.176h5.176V.882h-5.176V6.06zm0 0h5.176V.882h-5.176V6.06zm0 0h5.176V.882h-5.176V6.06zm0 0h5.176V.882h-5.176V6.06zm0 0h5.176V.882h-5.176V6.06zm0 0h5.176V.882h-5.176V6.06zm0 0h5.176V.882h-5.176V6.06zm0 0h5.176V.882h-5.176V6.06zm0 0h5.176V.882h-5.176V6.06zm5.151 51.765h5.176v-5.177h-5.176v5.177zm0 0h5.176v-5.177h-5.176v5.177zm0 0h5.176v-5.177h-5.176v5.177zm0 0h5.176v-5.177h-5.176v5.177zm0 0h5.176v-5.177h-5.176v5.177zm0 0h5.176v-5.177h-5.176v5.177zm0 0h5.176v-5.177h-5.176v5.177zm0 0h5.176v-5.177h-5.176v5.177zm0 0h5.176v-5.177h-5.176v5.177zm5.176-5.177h5.177v-5.176h-5.177v5.176zm0 0h5.177v-5.176h-5.177v5.176zm0 0h5.177v-5.176h-5.177v5.176zm0 0h5.177v-5.176h-5.177v5.176zm0 0h5.177v-5.176h-5.177v5.176zm0 0h5.177v-5.176h-5.177v5.176zm0 0h5.177v-5.176h-5.177v5.176zm0 0h5.177v-5.176h-5.177v5.176zm0 0h5.177v-5.176h-5.177v5.176zm5.177-5.176h5.176v-5.177h-5.176v5.177zm0 0h5.176v-5.177h-5.176v5.177zm0 0h5.176v-5.177h-5.176v5.177zm0 0h5.176v-5.177h-5.176v5.177zm0 0h5.176v-5.177h-5.176v5.177zm0 0h5.176v-5.177h-5.176v5.177zm0 0h5.176v-5.177h-5.176v5.177zm0 0h5.176v-5.177h-5.176v5.177zm0 0h5.176v-5.177h-5.176v5.177zm5.176-5.177h5.177v-5.176h-5.177v5.176zm0 0h5.177v-5.176h-5.177v5.176zm0 0h5.177v-5.176h-5.177v5.176zm0 0h5.177v-5.176h-5.177v5.176zm0 0h5.177v-5.176h-5.177v5.176zm0 0h5.177v-5.176h-5.177v5.176zm0 0h5.177v-5.176h-5.177v5.176zm0 0h5.177v-5.176h-5.177v5.176zm0 0h5.177v-5.176h-5.177v5.176zm-5.176-5.176h5.176V31.94h-5.176v5.177zm0 0h5.176V31.94h-5.176v5.177zm0 0h5.176V31.94h-5.176v5.177zm0 0h5.176V31.94h-5.176v5.177zm0 0h5.176V31.94h-5.176v5.177zm0 0h5.176V31.94h-5.176v5.177zm0 0h5.176V31.94h-5.176v5.177zm0 0h5.176V31.94h-5.176v5.177zm0 0h5.176V31.94h-5.176v5.177zm-5.177-5.177h5.177v-5.176h-5.177v5.176zm0 0h5.177v-5.176h-5.177v5.176zm0 0h5.177v-5.176h-5.177v5.176zm0 0h5.177v-5.176h-5.177v5.176zm0 0h5.177v-5.176h-5.177v5.176zm0 0h5.177v-5.176h-5.177v5.176zm0 0h5.177v-5.176h-5.177v5.176zm0 0h5.177v-5.176h-5.177v5.176zm0 0h5.177v-5.176h-5.177v5.176zm-5.176-5.176h5.176v-5.177h-5.176v5.177zm0 0h5.176v-5.177h-5.176v5.177zm0 0h5.176v-5.177h-5.176v5.177zm0 0h5.176v-5.177h-5.176v5.177zm0 0h5.176v-5.177h-5.176v5.177zm0 0h5.176v-5.177h-5.176v5.177zm0 0h5.176v-5.177h-5.176v5.177zm0 0h5.176v-5.177h-5.176v5.177zm0 0h5.176v-5.177h-5.176v5.177z"/><defs><linearGradient id="la" x1="104" y1="0" x2="104" y2="80" gradientUnits="userSpaceOnUse"><stop offset=".297" stop-color="#BB3AF4"/><stop offset=".745" stop-color="#1EB3F6"/></linearGradient></defs></svg><svg viewBox="0 0 16 16" id="moon" xmlns="http://www.w3.org/2000/svg"><path d="M6 .277a.768.768 0 01.08.858 7.208 7.208 0 00-.878 3.46c0 4.022 3.278 7.278 7.319 7.278.526 0 1.04-.055 1.533-.16a.787.787 0 01.81.316.733.733 0 01-.031.893A8.35 8.35 0 018.344 16C3.734 16 0 12.286 0 7.71 0 4.266 2.114 1.31 5.124.06A.752.752 0 016 .276z"/><path d="M10.794 3.147a.217.217 0 01.412 0l.387 1.163c.173.518.579.924 1.097 1.097l1.162.387a.217.217 0 010 .412l-1.162.387a1.734 1.734 0 00-1.097 1.097l-.387 1.162a.217.217 0 01-.412 0l-.387-1.162A1.734 1.734 0 009.31 6.593l-1.162-.387a.217.217 0 010-.412l1.162-.387a1.734 1.734 0 001.097-1.097l.387-1.163zm3.07-3.049a.144.144 0 01.22-.07.145.145 0 01.053.07l.258.774c.115.346.386.617.732.732l.774.258a.145.145 0 010 .274l-.774.258a1.155 1.155 0 00-.732.732l-.258.774a.145.145 0 01-.274 0l-.258-.774a1.156 1.156 0 00-.732-.732l-.774-.258a.145.145 0 010-.274l.774-.258c.346-.115.617-.386.732-.732L13.863.1z"/></svg><svg viewBox="0 0 16 16" id="sun" xmlns="http://www.w3.org/2000/svg"><path d="M8 11a3 3 0 110-6 3 3 0 010 6zm0 1a4 4 0 100-8 4 4 0 000 8zM8 0a.5.5 0 01.5.5v2a.5.5 0 11-1 0v-2A.5.5 0 018 0zm0 13a.5.5 0 01.5.5v2a.5.5 0 01-1 0v-2A.5.5 0 018 13zm8-5a.5.5 0 01-.5.5h-2a.5.5 0 010-1h2a.5.5 0 01.5.5zM3 8a.5.5 0 01-.5.5h-2a.5.5 0 010-1h2A.5.5 0 013 8zm10.657-5.657a.5.5 0 010 .707l-1.414 1.415a.5.5 0 01-.707-.708l1.414-1.414a.5.5 0 01.707 0zm-9.193 9.193a.5.5 0 010 .707L3.05 13.657a.5.5 0 01-.707-.707l1.414-1.414a.5.5 0 01.707 0zm9.193 2.121a.5.5 0 01-.707 0l-1.414-1.414a.5.5 0 01.707-.707l1.414 1.414a.5.5 0 010 .707zM4.464 4.465a.5.5 0 01-.707 0L2.343 3.05a.5.5 0 11.707-.707l1.414 1.414a.5.5 0 010 .708z"/></svg><svg viewBox="0 0 32 31" id="telegram" xmlns="http://www.w3.org/2000/svg"><path d="M16 0C7.163 0 0 6.94 0 15.5 0 24.06 7.163 31 16 31s16-6.94 16-15.5C32 6.94 24.837 0 16 0zm7.416 10.541c-.24 2.451-1.282 8.399-1.813 11.144-.224 1.162-.666 1.551-1.093 1.59-.93.082-1.635-.596-2.535-1.167-1.408-.895-2.204-1.451-3.57-2.324-1.58-1.008-.556-1.562.344-2.469.236-.237 4.33-3.844 4.409-4.171.01-.041.02-.194-.075-.274-.093-.08-.231-.053-.33-.031-.142.03-2.392 1.471-6.75 4.32-.638.426-1.217.633-1.735.622-.571-.012-1.67-.313-2.487-.57-1.002-.316-1.798-.483-1.729-1.019.036-.279.433-.564 1.19-.856 4.665-1.969 7.775-3.266 9.331-3.894 4.444-1.79 5.367-2.101 5.969-2.111.132-.002.428.03.62.18a.647.647 0 01.227.42c.033.202.042.406.027.61z"/></svg><svg viewBox="0 0 32 31" id="vk" xmlns="http://www.w3.org/2000/svg"><path fill-rule="evenodd" clip-rule="evenodd" d="M15.5 0C6.94 0 0 6.94 0 15.5 0 24.06 6.94 31 15.5 31h1C25.06 31 32 24.06 32 15.5 32 6.94 25.06 0 16.5 0h-1zm10.272 10c.727 0 .878.374.727.882-.303 1.393-3.24 5.504-3.243 5.508-.253.407-.355.61 0 1.065.026.037.162.175.367.383.862.876 2.951 3 3.32 4.146.2.675-.146 1.016-.832 1.016h-2.406c-.642 0-.967-.359-1.668-1.135-.298-.33-.663-.733-1.15-1.217-1.43-1.37-2.042-1.548-2.397-1.548-.652 0-.65.184-.635 1.9.003.306.006.66.006 1.07 0 .589-.188.93-1.72.93-2.548 0-5.35-1.54-7.339-4.38C5.817 14.46 5 11.313 5 10.679c0-.357.139-.678.825-.678h2.406c.616 0 .849.268 1.086.93 1.176 3.413 3.161 6.395 3.978 6.395.306 0 .445-.142.445-.914v-3.527c-.056-1.004-.408-1.44-.669-1.761-.16-.199-.287-.354-.287-.575 0-.264.229-.548.613-.548h3.782c.506 0 .678.272.678.882v4.74c0 .508.233.687.384.687.306 0 .563-.179 1.123-.735 1.731-1.926 2.957-4.896 2.957-4.896.15-.357.432-.678 1.045-.678h2.406z"/></svg></svg>